<svg width="1600" height="340" viewBox="0 0 1600 340" fill="none" xmlns="http://www.w3.org/2000/svg">
<mask id="mask0_8_1865" style="mask-type:alpha" maskUnits="userSpaceOnUse" x="0" y="0" width="1600" height="340">
<rect width="1600" height="340" fill="#F7F8FB"/>
</mask>
<g mask="url(#mask0_8_1865)">
<g opacity="0.3">
<path d="M1067.71 220.491C1067.92 221.468 1068.89 222.067 1069.86 221.851C1070.19 221.776 1070.45 221.62 1070.69 221.428L1161.37 310.122L1099.37 304.435C1099.38 304.307 1099.37 304.156 1099.32 304.022C1099.11 303.024 1098.15 302.425 1097.17 302.641C1096.19 302.856 1095.58 303.827 1095.8 304.804C1095.98 305.616 1096.69 306.181 1097.5 306.206L1109.6 410.107C1109.58 410.117 1109.54 410.112 1109.52 410.132C1108.54 410.347 1107.93 411.318 1108.15 412.295C1108.36 413.272 1109.32 413.871 1110.3 413.656C1111.28 413.44 1111.9 412.481 1111.68 411.504C1111.67 411.438 1111.63 411.349 1111.61 411.292L1200.83 374.062L1201.14 373.93L1216.48 367.531C1216.68 367.97 1216.99 368.344 1217.37 368.618L1217.53 368.741C1217.69 368.843 1217.87 368.914 1218.05 368.996L1218.25 369.069C1218.68 369.186 1219.16 369.202 1219.63 369.108C1220.72 368.86 1221.51 368.036 1221.75 366.996L1230.37 367.854L1230.59 367.874L1273.21 372.089L1273.42 372.11L1282.36 372.987C1282.34 373.136 1282.36 373.299 1282.39 373.463C1282.45 373.727 1282.58 373.976 1282.74 374.174L1282.87 374.326C1282.94 374.408 1283.03 374.47 1283.1 374.531L1283.27 374.644C1283.63 374.852 1284.09 374.929 1284.54 374.833C1285.3 374.661 1285.83 374.047 1285.93 373.316L1359.36 379.534L1392.69 422.832C1392.2 423.256 1391.95 423.908 1392.1 424.589C1392.31 425.566 1393.28 426.165 1394.25 425.949C1395.2 425.741 1395.78 424.853 1395.64 423.927L1428.51 417.272L1442.75 434.35C1442.35 434.782 1442.15 435.396 1442.29 436.022C1442.48 436.901 1443.29 437.473 1444.17 437.41L1451.24 484.262C1450.32 484.527 1449.75 485.448 1449.96 486.392C1450.18 487.38 1451.15 487.991 1452.12 487.764C1453.1 487.548 1453.69 486.587 1453.5 485.612L1496.57 473.493L1501.01 484.249C1500.24 484.604 1499.79 485.44 1500 486.309C1500.21 487.286 1501.18 487.885 1502.15 487.669C1502.94 487.489 1503.48 486.833 1503.55 486.089L1562.64 489.084L1599.79 543.421C1598.93 544.055 1598.44 545.178 1598.69 546.299C1599.03 547.803 1600.53 548.745 1602.04 548.421C1602.72 548.273 1603.27 547.897 1603.67 547.399L1705.41 618.266C1705.17 618.64 1705.07 619.113 1705.17 619.596C1705.39 620.585 1706.34 621.193 1707.33 620.968C1708.31 620.753 1708.91 619.791 1708.69 618.814C1708.48 617.837 1707.52 617.238 1706.55 617.444C1706.35 617.489 1706.17 617.558 1706.01 617.671L1649.35 533.904L1691.53 523.437C1691.79 524.333 1692.71 524.874 1693.63 524.664C1694.62 524.439 1695.23 523.489 1695 522.5C1694.79 521.523 1693.82 520.924 1692.84 521.149C1692.32 521.26 1691.9 521.605 1691.65 522.021L1634 493.541L1668.87 437.595C1669.24 437.803 1669.68 437.889 1670.12 437.782C1671.11 437.557 1671.72 436.607 1671.49 435.619C1671.28 434.642 1670.31 434.042 1669.34 434.258C1668.53 434.436 1667.95 435.164 1667.93 435.978L1629.14 437.229L1647.86 369.141C1648.28 369.247 1648.72 369.257 1649.16 369.15C1650.66 368.815 1651.61 367.329 1651.28 365.825C1650.94 364.321 1649.45 363.358 1647.94 363.693C1646.83 363.939 1646.04 364.806 1645.81 365.836L1606.65 358.288L1613.32 297.362C1613.55 297.352 1613.77 297.342 1614 297.289C1615.51 296.953 1616.46 295.468 1616.11 293.952C1615.78 292.448 1614.28 291.485 1612.78 291.82C1612.01 291.981 1611.38 292.457 1610.99 293.095L1572.02 270.959C1572.31 270.386 1572.43 269.722 1572.28 269.062C1572.08 268.151 1571.47 267.458 1570.71 267.104L1605.59 181.636C1606.35 181.968 1607.23 182.054 1608.1 181.861C1610.3 181.368 1611.71 179.196 1611.2 176.988C1610.72 174.804 1608.52 173.418 1606.32 173.899C1604.13 174.383 1602.75 176.578 1603.23 178.762C1603.34 179.299 1603.57 179.794 1603.88 180.222L1558.09 215.229L1590.95 47.8225C1591.46 47.9152 1591.98 47.9131 1592.53 47.7951C1594.73 47.3018 1596.11 45.1286 1595.62 42.9322C1595.12 40.7243 1592.95 39.3521 1590.76 39.8453C1588.56 40.3386 1587.15 42.5097 1587.65 44.7061C1587.86 45.6501 1588.39 46.4436 1589.12 47.0197L1497.07 185.054L1452.51 109.768C1453.89 108.862 1454.67 107.167 1454.28 105.453C1453.8 103.268 1451.62 101.873 1449.42 102.366C1447.22 102.859 1445.84 105.032 1446.32 107.238C1446.54 108.194 1447.07 108.988 1447.77 109.55L1379.11 204.494L1342.13 167.594C1342.51 167.181 1342.68 166.596 1342.55 166.014C1342.33 165.025 1341.36 164.415 1340.4 164.632C1339.43 164.848 1338.81 165.819 1339.03 166.796C1339.11 167.125 1339.28 167.432 1339.53 167.661L1283.73 229.286L1243.52 175.208C1244.03 174.796 1244.29 174.112 1244.14 173.432C1243.91 172.443 1242.96 171.835 1241.99 172.05C1241.01 172.266 1240.4 173.237 1240.61 174.214C1240.74 174.774 1241.13 175.22 1241.61 175.45L1196.01 288.123L1071.11 220.846C1071.27 220.497 1071.33 220.095 1071.24 219.7C1071.02 218.711 1070.07 218.102 1069.09 218.318C1068.1 218.543 1067.48 219.502 1067.71 220.491ZM1071.27 221.689L1180.38 311.859L1161.69 310.132L1071.27 221.689ZM1524.59 238.833C1524.7 239.381 1524.93 239.865 1525.24 240.293L1498.26 260.359C1498.1 260.172 1497.9 260.024 1497.69 259.906L1516.13 217.576L1526.22 234.633C1524.9 235.545 1524.21 237.185 1524.59 238.833ZM1596.05 438.664C1596.06 438.73 1596.09 438.787 1596.1 438.853L1573.08 448.117L1571.19 435.473L1600.9 408.995L1597.91 436.473C1597.76 436.459 1597.58 436.463 1597.42 436.501C1596.44 436.716 1595.83 437.687 1596.05 438.664ZM1627.45 503.713L1612.62 499.423L1615.5 487.43C1615.89 487.522 1616.31 487.531 1616.73 487.455C1617.01 487.385 1617.27 487.292 1617.5 487.155L1628.04 502.752L1627.45 503.713ZM1628.18 502.937L1629 504.156L1627.64 503.765L1628.18 502.937ZM1612.43 499.34L1599.86 495.701L1599.56 487.069L1613.36 485.18C1613.38 485.224 1613.36 485.255 1613.38 485.3C1613.61 486.322 1614.36 487.093 1615.29 487.367L1612.43 499.34ZM1576.17 487.104L1555.42 470.129L1564.35 467.451L1576.38 471.499L1578.51 485.788C1578.45 485.803 1578.38 485.796 1578.32 485.811C1577.46 486.028 1576.73 486.493 1576.17 487.104ZM1545.3 462.112L1546.89 463.407L1545.73 463.99L1544.76 462.596C1544.95 462.454 1545.14 462.301 1545.3 462.112ZM1473.32 435.674L1447.8 420.153L1449.52 413.03L1467.66 409.355L1474.27 434.972C1473.87 435.084 1473.55 435.331 1473.32 435.674ZM1415.64 400.619C1415.81 400.303 1415.88 399.955 1415.85 399.587L1453.94 393.713L1453.21 396.714L1428.21 408.253L1415.64 400.619ZM1427.98 408.339L1423.19 410.553L1415.29 401.079C1415.39 401.002 1415.47 400.893 1415.55 400.771L1427.98 408.339ZM1206.77 363.98L1171.05 357.37C1171.09 357.042 1171.1 356.699 1171.02 356.358C1170.89 355.798 1170.61 355.308 1170.23 354.949L1187.59 335.764L1210.3 357.99L1206.77 363.98ZM1210.46 358.135L1216.95 364.463C1216.62 364.829 1216.4 365.268 1216.29 365.751L1206.98 364.044L1210.46 358.135ZM1372.98 282.851L1363.86 303.746C1363.23 303.513 1362.53 303.423 1361.84 303.526L1355.55 262.389L1366.89 260.945L1372.98 282.851ZM1367.1 260.923L1383.5 258.838L1373.13 282.554L1367.1 260.923ZM1492.74 300.994L1480.82 288.193C1481.32 287.802 1481.58 287.182 1481.5 286.541L1511.47 280.826L1492.74 300.994ZM1522.71 268.988L1542.73 274.647L1512.02 280.504L1522.71 268.988ZM1540.66 459.1L1513.42 447.782L1517 435.987L1550.17 418.483L1543.56 457.517C1543.24 457.464 1542.91 457.485 1542.58 457.56C1541.7 457.732 1541.01 458.34 1540.66 459.1ZM1500.14 402.575L1491.16 404.379L1485.03 357.597C1485.06 357.589 1485.1 357.582 1485.13 357.574C1485.21 357.55 1485.26 357.523 1485.34 357.52L1502.45 398.152C1500.8 398.903 1499.8 400.705 1500.14 402.575ZM1500.17 402.783C1500.37 403.639 1500.82 404.361 1501.44 404.915L1492.6 415.421L1491.18 404.596L1500.17 402.783ZM1490.99 404.631L1492.43 415.619L1479.36 431.144L1470.18 408.85L1490.99 404.631ZM1501.6 405.05C1502.26 405.586 1503.1 405.894 1503.98 405.937L1502.68 441.605C1502.55 441.614 1502.44 441.625 1502.31 441.655C1501.65 441.805 1501.16 442.305 1500.97 442.909L1496.03 441.705L1492.64 415.682L1501.6 405.05ZM1500.92 443.087C1500.88 443.319 1500.89 443.566 1500.94 443.818C1500.99 444.07 1501.1 444.307 1501.26 444.494L1496.89 448.158L1496.07 441.912L1500.92 443.087ZM1502.87 441.624L1504.18 405.947C1504.46 405.931 1504.75 405.906 1505.03 405.837C1507.23 405.343 1508.6 403.18 1508.13 400.985L1528.99 395.859L1523.79 413.004L1503.65 441.862C1503.42 441.721 1503.15 441.651 1502.87 441.624ZM1529.23 395.818L1537.14 393.878L1524.17 412.473L1529.23 395.818ZM1537.43 393.798L1555.09 389.464L1550.22 418.229L1517.09 435.716L1523.96 413.118L1537.43 393.798ZM1516.77 436.115L1513.24 447.679L1504.4 444.008C1504.5 443.685 1504.54 443.366 1504.46 443.015C1504.43 442.883 1504.4 442.773 1504.35 442.66L1516.77 436.115ZM1550.45 418.101L1555.31 389.421L1563.77 387.341L1567.07 409.337L1550.45 418.101ZM1555.34 389.199L1557.29 377.801L1562.26 377.204L1563.75 387.145L1555.34 389.199ZM1555.13 389.253L1537.61 393.536L1547.78 378.962L1557.06 377.811L1555.13 389.253ZM1537.3 393.614L1529.3 395.588L1533.31 382.354C1533.58 382.424 1533.86 382.429 1534.13 382.369C1535.02 382.167 1535.59 381.364 1535.54 380.489L1547.51 379.011L1537.3 393.614ZM1529.07 395.641L1508.07 400.776C1507.94 400.334 1507.76 399.918 1507.5 399.56L1532.32 381.72C1532.53 381.977 1532.8 382.186 1533.12 382.281L1529.07 395.641ZM1507.39 399.399C1507.03 398.934 1506.56 398.534 1506.04 398.257L1518.56 373.034L1532.07 379.87C1531.92 380.209 1531.87 380.602 1531.96 380.997C1532.01 381.195 1532.09 381.385 1532.21 381.558L1507.39 399.399ZM1505.86 398.175C1505.08 397.797 1504.16 397.686 1503.25 397.887C1503.03 397.93 1502.83 397.996 1502.65 398.086L1485.53 357.442C1485.86 357.27 1486.12 357.016 1486.31 356.724L1518.38 372.963L1505.86 398.175ZM1486.39 356.538C1486.45 356.372 1486.5 356.216 1486.52 356.057L1525.36 358.881L1518.48 372.768L1486.39 356.538ZM1484.85 357.611L1490.96 404.424L1470.1 408.648L1464.37 394.748C1465.62 394.248 1466.38 392.904 1466.07 391.532C1465.9 390.774 1465.45 390.149 1464.84 389.768L1483.92 357.392C1484.2 357.558 1484.51 357.632 1484.85 357.611ZM1391.74 371.703L1390.68 346.909C1390.74 346.894 1390.82 346.891 1390.9 346.866C1390.98 346.842 1391.05 346.817 1391.13 346.793L1407.53 384.809L1401.63 384.058L1391.74 371.703ZM1401.32 384.039L1392.21 382.855L1391.76 372.038L1401.32 384.039ZM1289.06 337.184L1255.95 320.252L1256.7 319.241L1300.6 324.925L1294.57 335.276L1290.12 337.116L1289.06 337.184ZM1289.54 337.338L1289.45 337.372L1289.4 337.335L1289.54 337.338ZM1285.92 283.081L1314.03 301.788L1307.92 312.304L1285.63 283.332C1285.74 283.267 1285.83 283.169 1285.92 283.081ZM1514.86 325.062L1507.7 332.35L1478.57 318.891C1478.68 318.623 1478.71 318.325 1478.68 318.021L1504.2 313.609L1514.86 325.062ZM1504.43 313.557L1530.66 309.032L1515.01 324.916L1504.43 313.557ZM1460.96 390.686L1455.69 387.269L1459.43 371.677L1483.25 356.864C1483.38 357.07 1483.54 357.193 1483.74 357.342L1464.67 389.708C1464.09 389.404 1463.42 389.274 1462.72 389.431C1461.97 389.582 1461.34 390.058 1460.96 390.686ZM1415.05 325.932L1420.64 325.235L1392.78 343.421L1415.05 325.932ZM1391.84 343.898C1391.76 343.815 1391.68 343.721 1391.58 343.647L1402.37 327.469L1414.66 325.958L1391.84 343.898ZM1421.11 325.184L1471.87 318.954L1471.69 319.773L1392.18 344.447C1392.13 344.346 1392.09 344.266 1392.03 344.153L1421.11 325.184ZM1471.63 319.993L1469.91 327.202L1450.89 351.852L1392.3 345.21C1392.3 345.049 1392.29 344.865 1392.26 344.712C1392.25 344.679 1392.24 344.647 1392.22 344.623L1471.63 319.993ZM1469.78 327.673L1463.63 353.306L1451.14 351.887L1469.78 327.673ZM1450.75 352.052L1434.31 373.39L1392.07 346.004C1392.17 345.821 1392.25 345.603 1392.29 345.413L1450.75 352.052ZM1450.99 352.087L1463.59 353.516L1459.26 371.543L1445.07 380.363L1434.49 373.504L1450.99 352.087ZM1463.8 353.537L1482.95 355.707C1482.94 355.867 1482.96 356.051 1483 356.216C1483.03 356.381 1483.1 356.538 1483.18 356.674L1459.52 371.386L1463.8 353.537ZM1459.19 371.815L1455.52 387.134L1445.26 380.479L1459.19 371.815ZM1484.48 354.042L1477.36 319.986C1477.87 319.842 1478.26 319.516 1478.48 319.086L1507.55 332.507L1485.94 354.464C1485.54 354.125 1485.01 353.954 1484.48 354.042ZM1514.99 325.204L1530.78 342.165C1530.61 342.342 1530.46 342.563 1530.34 342.798L1507.89 332.444L1514.99 325.204ZM1477.15 319.998L1484.27 354.054C1483.58 354.233 1483.08 354.817 1482.97 355.494L1463.85 353.317L1470.1 327.275L1475.91 319.747C1476.25 319.974 1476.69 320.082 1477.15 319.998ZM1470.2 326.823L1471.85 319.929L1475.21 318.894C1475.32 319.195 1475.5 319.438 1475.74 319.634L1470.2 326.823ZM1471.91 319.709L1472.1 318.922L1475.13 318.553C1475.13 318.565 1475.12 318.596 1475.13 318.629C1475.14 318.64 1475.15 318.673 1475.16 318.685L1471.91 319.709ZM1472.15 318.712L1472.33 317.914L1475.09 318.174C1475.08 318.216 1475.09 318.292 1475.08 318.355L1472.15 318.712ZM1471.94 318.745L1421.49 324.931L1437.22 314.651L1472.14 317.895L1471.94 318.745ZM1421.03 324.994L1415.36 325.683L1430.21 314.016L1436.89 314.629L1421.03 324.994ZM1414.98 325.742L1402.52 327.269L1412.46 312.36L1429.92 313.977L1414.98 325.742ZM1391.42 343.545C1391.38 343.52 1391.33 343.483 1391.27 343.467L1397.51 328.077L1402.12 327.519L1391.42 343.545ZM1391.08 343.394C1390.78 343.289 1390.45 343.267 1390.09 343.34C1390.07 343.338 1390.06 343.348 1390.05 343.357L1386.17 329.466L1397.25 328.115L1391.08 343.394ZM1389.86 343.414C1389.73 343.465 1389.61 343.54 1389.5 343.615L1379.53 330.286L1385.98 329.49L1389.86 343.414ZM1389.34 343.728C1389.15 343.902 1388.98 344.101 1388.87 344.326L1362.09 333.128C1362.18 332.9 1362.2 332.666 1362.19 332.418L1379.29 330.327L1389.34 343.728ZM1362.17 332.201C1362.17 332.18 1362.17 332.159 1362.16 332.147C1361.98 331.356 1361.34 330.81 1360.58 330.725L1362.11 311.618C1362.5 311.646 1362.91 311.622 1363.31 311.532C1363.85 311.414 1364.35 311.183 1364.77 310.88L1379.16 330.121L1362.17 332.201ZM1358.61 332.755C1358.62 332.766 1358.62 332.787 1358.61 332.797L1345.5 335.935L1344.08 333.701L1358.61 332.755ZM1343.97 333.519L1341.89 330.254L1358.61 332.422C1358.61 332.464 1358.6 332.528 1358.6 332.571L1343.97 333.519ZM1358.66 333.007C1358.7 333.117 1358.71 333.204 1358.76 333.296L1347.59 339.223L1345.62 336.13L1358.66 333.007ZM1341.74 330.025L1334.76 319.019L1337.97 317.712L1358.85 331.618C1358.74 331.79 1358.67 331.987 1358.63 332.197L1341.74 330.025ZM1294.9 335.147L1300.83 324.936L1315.26 326.793L1294.9 335.147ZM1294.42 335.562L1293.65 336.872L1290.76 337.061L1294.42 335.562ZM1300.93 324.753L1307.67 313.138L1308.25 313.067L1317.96 325.693L1315.61 326.644L1300.93 324.753ZM1334.45 318.935L1318.16 325.606L1308.5 313.059L1328.03 311.109L1330.54 312.795L1334.45 318.935ZM1330.96 313.061L1337.74 317.583L1334.63 318.867L1330.96 313.061ZM1318.09 325.857L1319.05 327.089L1316.03 326.707L1318.09 325.857ZM1318.28 325.779L1334.57 319.096L1341.48 329.967L1319.32 327.116L1318.28 325.779ZM1338.18 317.615L1346.62 314.168L1359.24 331.141C1359.14 331.227 1359.04 331.325 1358.96 331.456L1338.18 317.615ZM1346.67 313.905L1343.43 309.549L1358.36 308.061C1358.37 308.191 1358.39 308.311 1358.42 308.443C1358.47 308.64 1358.53 308.84 1358.6 309.019L1346.67 313.905ZM1346.48 314.005L1337.98 317.487L1330.69 312.637L1329.61 310.942L1343.2 309.58L1346.48 314.005ZM1330.27 312.36L1328.32 311.062L1329.37 310.962L1330.27 312.36ZM1328.07 310.898L1314.31 301.74L1318.7 294.138L1329.27 310.769L1328.07 310.898ZM1314.19 301.911L1327.75 310.942L1308.35 312.872L1308.06 312.501L1314.19 301.911ZM1308.1 312.88L1307.8 312.915L1307.94 312.682L1308.1 312.88ZM1307.43 313.158L1300.71 324.72L1256.83 319.072L1257.51 318.161L1307.43 313.158ZM1255.75 320.158L1254.9 319.72C1255 319.504 1255.07 319.286 1255.11 319.042L1256.46 319.207L1255.75 320.158ZM1256.6 319.028L1255.15 318.831C1255.17 318.683 1255.17 318.543 1255.15 318.381L1257.25 318.167L1256.6 319.028ZM1252.97 321.291C1253.79 321.104 1254.45 320.578 1254.83 319.896L1255.64 320.308L1241.67 338.977C1241.66 338.966 1241.63 338.952 1241.61 338.95L1251.1 321.065C1251.66 321.346 1252.31 321.441 1252.97 321.291ZM1255.82 320.39L1288.66 337.198L1242.47 340.258C1242.47 340.216 1242.46 340.15 1242.44 340.084C1242.35 339.688 1242.13 339.344 1241.83 339.1L1255.82 320.39ZM1290.17 337.304L1293.54 337.065L1292.47 338.904L1289.7 337.483L1290.17 337.304ZM1294.72 335.43L1315.64 326.852L1319.22 327.32L1324.96 334.79L1293.89 336.853L1294.72 335.43ZM1319.5 327.359L1341.62 330.206L1343.73 333.538L1325.2 334.77L1319.5 327.359ZM1343.86 333.744L1345.31 336.013L1329.14 339.882L1325.36 334.968L1343.86 333.744ZM1345.41 336.184L1347.41 339.334L1334.14 346.377L1329.29 340.058L1345.41 336.184ZM1347.51 339.505L1356.65 353.89L1342.72 357.54L1334.27 346.55L1347.51 339.505ZM1347.7 339.394L1358.87 333.467C1359.25 334.106 1360 334.47 1360.78 334.299L1365.55 351.531L1356.85 353.824L1347.7 339.394ZM1365.6 351.719L1372.84 377.893C1372.65 377.971 1372.47 378.039 1372.31 378.152L1356.97 353.997L1365.6 351.719ZM1365.74 351.486L1360.97 334.242C1361.13 334.193 1361.27 334.132 1361.4 334.027L1373.67 349.396L1365.74 351.486ZM1361.56 333.914C1361.75 333.739 1361.9 333.539 1362.02 333.325L1388.79 344.511C1388.68 344.791 1388.66 345.122 1388.72 345.428L1373.88 349.342L1361.56 333.914ZM1388.76 345.626C1388.91 346.092 1389.23 346.456 1389.64 346.689L1382.98 360.739L1374.01 349.505L1388.76 345.626ZM1389.82 346.793C1390.03 346.878 1390.25 346.91 1390.47 346.921L1391.51 371.435L1383.13 360.914L1389.82 346.793ZM1407.6 385.042L1413.25 398.14C1413.15 398.184 1413.06 398.239 1412.98 398.307L1401.79 384.278L1407.6 385.042ZM1407.75 384.863L1391.3 346.713C1391.56 346.577 1391.78 346.395 1391.94 346.164L1434.17 373.548L1423.84 386.937L1407.75 384.863ZM1434.35 373.652L1444.86 380.472L1432.64 388.068L1424.09 386.971L1434.35 373.652ZM1445.07 380.599L1455.47 387.333L1454.6 390.9L1432.96 388.099L1445.07 380.599ZM1455.64 387.468L1460.86 390.848C1460.71 391.102 1460.62 391.394 1460.57 391.69L1454.8 390.952L1455.64 387.468ZM1460.54 391.891C1460.52 392.082 1460.52 392.276 1460.55 392.472L1454.2 393.46L1454.75 391.129L1460.54 391.891ZM1460.59 392.669C1460.6 392.702 1460.61 392.735 1460.61 392.768C1460.64 392.921 1460.7 393.088 1460.76 393.234L1453.46 396.588L1454.16 393.67L1460.59 392.669ZM1460.84 393.403C1461.4 394.531 1462.67 395.171 1463.93 394.876L1467.61 409.145L1449.56 412.798L1453.4 396.839L1460.84 393.403ZM1464.14 394.822C1464.14 394.822 1464.16 394.824 1464.17 394.814L1469.89 408.703L1467.82 409.112L1464.14 394.822ZM1486.46 355.289C1486.38 355.023 1486.24 354.784 1486.07 354.595L1507.73 332.578L1530.25 342.972C1530.04 343.478 1529.97 344.062 1530.1 344.622L1486.46 355.289ZM1532.23 341.329C1531.71 341.44 1531.27 341.686 1530.91 342.017L1515.13 325.056L1530.98 308.967L1539.79 307.437L1533.17 341.282C1532.87 341.253 1532.54 341.264 1532.23 341.329ZM1531.25 308.725L1541.64 298.156L1539.87 307.24L1531.25 308.725ZM1530.9 308.776L1504.27 313.391L1498.39 307.078L1544.64 282.824L1541.71 297.809L1530.9 308.776ZM1504.02 313.42L1478.65 317.814C1478.62 317.715 1478.58 317.593 1478.54 317.492L1498.21 307.168L1504.02 313.42ZM1478.43 317.309C1478.34 317.183 1478.27 317.068 1478.17 316.972L1492.73 301.282L1498.06 307.014L1478.43 317.309ZM1478.04 316.842C1477.63 316.5 1477.06 316.337 1476.49 316.453C1475.74 316.616 1475.21 317.23 1475.1 317.949L1472.39 317.694L1479.39 288.546C1479.61 288.579 1479.86 288.592 1480.11 288.542C1480.31 288.497 1480.49 288.407 1480.66 288.306L1492.61 301.142L1478.04 316.842ZM1479.18 288.483L1472.18 317.706L1437.5 314.484L1478.28 287.857C1478.49 288.168 1478.83 288.384 1479.18 288.483ZM1437.18 314.453L1430.45 313.836L1471.48 281.563L1478.15 285.869C1477.93 286.244 1477.85 286.699 1477.96 287.16C1477.99 287.346 1478.07 287.515 1478.17 287.674L1437.18 314.453ZM1479.31 284.994C1478.86 285.09 1478.5 285.366 1478.24 285.695L1471.64 281.417L1477.95 276.451L1479.33 284.975C1479.33 284.996 1479.33 284.996 1479.31 284.994ZM1478.1 276.091L1475.32 258.989L1495.06 261.399C1495.04 261.569 1495.05 261.72 1495.09 261.906C1495.14 262.137 1495.24 262.35 1495.36 262.523L1478.1 276.091ZM1477.92 276.256L1471.47 281.304L1444.7 263.974L1450.07 255.921L1475.1 258.978L1477.92 276.256ZM1471.3 281.438L1430.15 313.807L1412.58 312.179L1444.59 264.157L1471.3 281.438ZM1402.26 327.286L1397.58 327.858L1404.18 311.59L1412.23 312.327L1402.26 327.286ZM1397.35 327.911L1386.13 329.269L1380.6 309.416L1403.96 311.569L1397.35 327.911ZM1385.92 329.302L1379.39 330.111L1364.93 310.767C1365.75 310.107 1366.3 309.151 1366.45 308.092L1380.38 309.384L1385.92 329.302ZM1366.49 307.902C1366.51 307.508 1366.49 307.097 1366.39 306.669C1366.26 306.054 1365.98 305.501 1365.62 305.036L1376.63 295.86L1380.33 309.186L1366.49 307.902ZM1361.9 311.588L1360.38 330.716C1360.25 330.724 1360.13 330.745 1360 330.775C1359.78 330.818 1359.58 330.927 1359.41 331.028L1346.8 314.079L1358.7 309.211C1359.28 310.514 1360.51 311.419 1361.9 311.588ZM1364.05 303.819L1373.08 283.161L1376.56 295.638L1365.5 304.863C1365.09 304.436 1364.59 304.065 1364.05 303.819ZM1361.65 303.562C1361.62 303.569 1361.58 303.577 1361.54 303.594C1361.09 303.689 1360.67 303.862 1360.29 304.094L1336.65 266.312C1337.16 265.954 1337.45 265.36 1337.41 264.711L1355.37 262.424L1361.65 303.562ZM1336 266.592C1336.17 266.554 1336.33 266.496 1336.48 266.413L1360.11 304.216C1358.93 305.013 1358.26 306.407 1358.36 307.867L1343.29 309.385L1324.53 284.131L1334.8 266.442C1335.15 266.626 1335.59 266.68 1336 266.592ZM1343.07 309.395L1329.49 310.748L1318.82 293.946L1324.42 284.303L1343.07 309.395ZM1314.13 301.615L1286.04 282.921C1286.32 282.518 1286.44 282.026 1286.32 281.52C1286.31 281.487 1286.3 281.454 1286.29 281.442L1306.36 274.723L1318.58 293.965L1314.13 301.615ZM1284.95 283.662C1285.13 283.627 1285.3 283.547 1285.46 283.455L1307.81 312.497L1307.55 312.944L1257.69 317.942L1283.52 283.383C1283.93 283.659 1284.43 283.773 1284.95 283.662ZM1257.39 317.967L1255.13 318.185C1255.11 318.119 1255.11 318.043 1255.09 317.966C1254.96 317.406 1254.65 316.893 1254.27 316.522L1282.94 283.787L1257.39 317.967ZM1250.92 320.973L1241.43 338.846C1241.24 338.763 1241.02 338.709 1240.8 338.698L1241.02 317.627L1249.56 318.412C1249.55 318.679 1249.57 318.939 1249.63 319.181C1249.79 319.949 1250.29 320.577 1250.92 320.973ZM1241.02 317.434L1241.07 312.617L1249.85 317.356C1249.72 317.622 1249.64 317.904 1249.59 318.211L1241.02 317.434ZM1240.81 317.403L1222.89 315.751L1224.55 303.725L1240.86 312.511L1240.81 317.403ZM1217.62 342.362L1197.02 325.338L1206.86 314.479L1222.67 315.934L1219.1 341.81C1218.92 341.781 1218.73 341.795 1218.56 341.821C1218.17 341.923 1217.86 342.106 1217.62 342.362ZM1222.7 315.733L1207.03 314.302L1219.21 300.838L1224.36 303.61L1222.7 315.733ZM1196.86 325.215L1185.14 315.516L1186.33 312.604L1206.61 314.454L1196.86 325.215ZM1196.73 325.384L1187.59 335.474L1180.06 328.098L1185.07 315.734L1196.73 325.384ZM1187.45 335.622L1170.07 354.826C1169.87 354.656 1169.64 354.515 1169.42 354.407L1179.97 328.314L1187.45 335.622ZM1187.72 335.616L1196.89 325.507L1217.49 342.522C1217.19 342.944 1217.06 343.467 1217.18 343.994C1217.27 344.444 1217.56 344.837 1217.91 345.076L1210.4 357.795L1187.72 335.616ZM1219.3 341.819L1222.86 315.953L1240.82 317.597L1240.61 338.679C1240.5 338.669 1240.4 338.691 1240.29 338.723C1239.31 338.939 1238.7 339.91 1238.91 340.875C1238.99 341.238 1239.19 341.547 1239.44 341.808L1232.79 349.736L1220.63 344.247C1220.76 343.927 1220.78 343.575 1220.7 343.213C1220.56 342.49 1219.98 341.949 1219.3 341.819ZM1239.6 341.931C1239.7 342.005 1239.81 342.07 1239.92 342.114L1236.47 351.408L1232.97 349.819L1239.6 341.931ZM1240.12 342.187C1240.41 342.301 1240.74 342.323 1241.08 342.259C1241.93 342.074 1242.51 341.304 1242.49 340.475L1289.02 337.394L1289.22 337.5L1245.41 355.464L1236.67 351.514L1240.12 342.187ZM1245.13 355.544L1233.36 360.371L1236.59 351.678L1245.13 355.544ZM1245.38 355.666L1251.62 358.48L1232.35 363.118L1233.26 360.63L1245.38 355.666ZM1245.64 355.551L1289.44 337.597L1292.36 339.087L1285.87 350.264L1251.95 358.405L1245.64 355.551ZM1292.56 339.181L1305.18 345.639L1286.17 350.196L1292.56 339.181ZM1292.65 339.008L1293.79 337.057L1325.11 334.976L1328.93 339.937L1305.46 345.56L1292.65 339.008ZM1329.06 340.11L1333.95 346.476L1320.86 353.45L1305.74 345.705L1329.06 340.11ZM1334.08 346.628L1342.52 357.594L1333.59 359.94L1321.08 353.547L1334.08 346.628ZM1342.65 357.779L1351.29 368.991L1333.86 360.085L1342.65 357.779ZM1342.87 357.715L1356.77 354.064L1372.16 378.277C1371.8 378.532 1371.53 378.871 1371.33 379.249L1351.72 369.226L1342.87 357.715ZM1365.79 351.684L1373.8 349.581L1382.89 360.955L1374.84 377.929C1374.34 377.739 1373.77 377.673 1373.19 377.799C1373.14 377.804 1373.08 377.831 1373.04 377.848L1365.79 351.684ZM1383.02 361.118L1391.54 371.77L1392.01 382.824L1376.58 380.827C1376.61 380.529 1376.61 380.217 1376.54 379.921C1376.35 379.043 1375.77 378.363 1375.03 378.011L1383.02 361.118ZM1392.01 383.039L1392.27 389.337L1376.29 381.765C1376.4 381.54 1376.49 381.291 1376.54 381.037L1392.01 383.039ZM1392.22 383.06L1401.5 384.261L1412.84 398.443C1412.68 398.568 1412.57 398.718 1412.48 398.891L1392.51 389.435L1392.22 383.06ZM1413.44 398.062L1407.84 385.076L1423.73 387.129L1415.13 398.303C1414.73 398.006 1414.21 397.88 1413.67 397.988C1413.59 398.023 1413.51 398.047 1413.44 398.062ZM1423.96 387.174L1432.38 388.258L1415.54 398.741C1415.47 398.626 1415.37 398.531 1415.28 398.447L1423.96 387.174ZM1432.7 388.289L1454.57 391.122L1453.99 393.493L1415.82 399.391C1415.81 399.38 1415.81 399.38 1415.81 399.38C1415.78 399.194 1415.7 399.046 1415.62 398.91L1432.7 388.289ZM1453.15 396.943L1449.33 412.85L1439.16 414.902L1428.39 408.357L1453.15 396.943ZM1449.28 413.07L1447.61 420.037L1439.43 415.057L1449.28 413.07ZM1467.86 409.31L1469.96 408.893L1479.19 431.321L1475.88 435.249C1475.48 434.952 1474.97 434.826 1474.44 434.925L1467.86 409.31ZM1479.28 431.523L1482.08 438.338L1476.58 437.004C1476.63 436.772 1476.62 436.524 1476.57 436.293C1476.48 435.931 1476.3 435.612 1476.03 435.36L1479.28 431.523ZM1479.43 431.355L1492.45 415.911L1495.82 441.662L1482.33 438.405L1479.43 431.355ZM1495.84 441.858L1496.69 448.299L1489.04 454.68L1482.43 438.619L1495.84 441.858ZM1503.81 441.985L1523.6 413.63L1516.85 435.833L1504.26 442.48C1504.13 442.295 1503.99 442.131 1503.81 441.985ZM1502.55 445.212L1501.96 471.767L1500.03 472.318L1496.9 448.384L1501.37 444.656C1501.69 444.977 1502.1 445.168 1502.55 445.212ZM1502.76 445.211C1502.87 445.201 1502.98 445.19 1503.1 445.169C1503.66 445.042 1504.1 444.665 1504.33 444.183L1513.19 447.878L1506.31 470.528L1502.17 471.691L1502.76 445.211ZM1513.37 447.96L1540.57 459.285C1540.39 459.783 1540.33 460.325 1540.46 460.885C1540.47 460.897 1540.48 460.909 1540.48 460.93L1506.52 470.485L1513.37 447.96ZM1543.76 457.526L1550.4 418.355L1567.08 409.542L1570.96 435.386L1545.21 458.333C1544.83 457.92 1544.31 457.644 1543.76 457.526ZM1571 435.626L1572.89 448.195L1545.75 459.117C1545.64 458.88 1545.51 458.674 1545.35 458.476L1571 435.626ZM1572.93 448.402L1573.22 450.386L1549.33 462.207L1545.89 461.063C1546.03 460.615 1546.04 460.134 1545.94 459.651C1545.92 459.531 1545.88 459.409 1545.83 459.308L1572.93 448.402ZM1564.35 467.257L1549.59 462.307L1573.25 450.603L1575.26 464.01L1564.35 467.257ZM1575.29 464.218L1576.35 471.27L1564.7 467.366L1575.29 464.218ZM1549.07 462.342L1547.09 463.319L1545.43 461.964C1545.59 461.754 1545.72 461.509 1545.83 461.262L1549.07 462.342ZM1547.07 463.553L1555 470.045L1550.73 471.301L1545.85 464.164L1547.07 463.553ZM1547.26 463.454L1549.34 462.433L1564.02 467.354L1555.22 469.981L1547.26 463.454ZM1576.6 471.574L1597.75 478.675L1582.67 487.635C1581.84 486.34 1580.33 485.568 1578.74 485.756L1576.6 471.574ZM1597.99 478.753L1599.09 479.118L1599.36 486.899L1583.24 489.108C1583.22 489.042 1583.22 488.966 1583.2 488.9C1583.11 488.505 1582.97 488.136 1582.77 487.784L1597.99 478.753ZM1598.23 478.615L1599.06 478.127L1599.1 478.915L1598.23 478.615ZM1599.36 487.092L1599.65 495.637L1583.16 490.851C1583.29 490.37 1583.33 489.848 1583.28 489.327L1599.36 487.092ZM1599.55 486.875L1599.3 479.203L1613.43 483.93C1613.33 484.264 1613.3 484.626 1613.34 484.963L1599.55 486.875ZM1615.51 481.965C1614.53 482.181 1613.81 482.872 1613.49 483.743L1599.3 478.988L1599.25 478.007L1621.33 464.88L1616.64 481.936C1616.27 481.868 1615.89 481.885 1615.51 481.965ZM1599.25 477.771L1598.56 457.297L1625.63 449.246L1621.4 464.608L1599.25 477.771ZM1599.05 477.88L1597.97 478.536L1576.57 471.367L1575.49 464.173L1598.36 457.363L1599.05 477.88ZM1575.46 463.965L1573.45 450.516L1596.27 439.202C1596.59 439.727 1597.16 440.062 1597.78 440.08L1598.35 457.137L1575.46 463.965ZM1573.41 450.297L1573.12 448.324L1596.12 439.058L1573.41 450.297ZM1571.16 435.244L1567.28 409.443L1602.93 390.625L1600.95 408.699L1571.16 435.244ZM1567.25 409.226L1563.96 387.284L1604.36 377.384L1602.93 390.389L1567.25 409.226ZM1563.93 387.077L1562.45 377.159L1604.98 371.903L1604.41 377.164L1563.93 387.077ZM1562.43 376.963L1560.36 363.078L1560.38 363.08C1561.16 362.909 1561.69 362.274 1561.78 361.52L1605.84 364.061L1604.99 371.7L1562.43 376.963ZM1560.14 363.099L1562.23 376.976L1557.32 377.579L1559.78 363.085C1559.88 363.117 1560.02 363.12 1560.14 363.099ZM1557.09 377.61L1547.92 378.75L1559.01 362.849C1559.18 362.93 1559.36 363.012 1559.56 363.064L1557.09 377.61ZM1547.66 378.789L1535.51 380.272C1535.5 380.26 1535.5 380.227 1535.5 380.206C1535.45 379.975 1535.37 379.785 1535.24 379.6L1558.57 362.43C1558.65 362.545 1558.75 362.64 1558.85 362.715L1547.66 378.789ZM1535.13 379.472C1534.72 378.969 1534.03 378.697 1533.35 378.845C1532.83 378.956 1532.43 379.282 1532.18 379.708L1518.66 372.872L1525.59 358.904L1558.18 361.285C1558.17 361.413 1558.19 361.554 1558.22 361.719C1558.27 361.938 1558.36 362.119 1558.48 362.313L1535.13 379.472ZM1559.57 359.553C1559.12 359.649 1558.76 359.913 1558.51 360.254L1535.26 345.472C1535.39 345.248 1535.5 345.001 1535.56 344.75L1568.08 351.023L1561.02 359.835C1560.62 359.559 1560.1 359.433 1559.57 359.553ZM1533.45 346.798C1534.16 346.642 1534.77 346.207 1535.14 345.643L1558.41 360.416C1558.3 360.62 1558.21 360.848 1558.19 361.082L1525.7 358.699L1531.7 346.615C1532.23 346.861 1532.84 346.931 1533.45 346.798ZM1525.47 358.676L1486.56 355.835C1486.56 355.717 1486.54 355.597 1486.53 355.488L1530.15 344.831C1530.36 345.582 1530.87 346.179 1531.5 346.521L1525.47 358.676ZM1533.37 341.312L1540.02 307.406L1551.82 305.363L1533.98 341.512C1533.79 341.418 1533.58 341.355 1533.37 341.312ZM1540.07 307.195L1541.89 297.912L1559.97 279.54L1564.01 280.687L1551.93 305.159L1540.07 307.195ZM1541.97 297.534L1544.89 282.698L1554.1 277.868L1559.76 279.476L1541.97 297.534ZM1544.93 282.445L1546.27 275.638L1553.81 277.775L1544.93 282.445ZM1544.7 282.562L1498.25 306.915L1492.88 301.136L1511.79 280.751L1543.16 274.765L1546.06 275.596L1544.7 282.562ZM1543.61 274.69L1546.34 274.185L1546.11 275.397L1543.61 274.69ZM1546.61 273.932L1547.9 267.314L1566.78 269.435C1566.75 269.648 1566.77 269.853 1566.8 270.082L1546.61 273.932ZM1546.39 273.953L1543.18 274.573L1522.86 268.83L1526.47 264.922L1547.69 267.293L1546.39 273.953ZM1526.65 264.735L1553.98 235.273L1547.74 267.094L1526.65 264.735ZM1522.65 268.767L1498.6 261.951C1498.62 261.92 1498.63 261.868 1498.65 261.815L1526.23 264.887L1522.65 268.767ZM1497.25 263.278C1497.86 263.145 1498.34 262.719 1498.54 262.159L1522.48 268.922L1511.68 280.568L1481.47 286.334C1481.24 285.463 1480.43 284.9 1479.55 284.975L1478.14 276.331L1495.48 262.675C1495.91 263.168 1496.57 263.426 1497.25 263.278ZM1497.47 259.81C1497.17 259.705 1496.81 259.669 1496.46 259.742C1496.46 259.742 1496.45 259.752 1496.43 259.75L1481.25 209.149L1497.07 185.42L1515.97 217.334L1497.47 259.81ZM1496.25 259.818C1495.62 260.058 1495.18 260.573 1495.07 261.196L1475.28 258.791L1469.96 226.115L1481.13 209.372L1496.25 259.818ZM1475.08 258.761L1450.21 255.751L1469.8 226.379L1475.08 258.761ZM1444.54 263.872L1430.1 254.541C1430.29 254.248 1430.42 253.906 1430.47 253.556L1449.84 255.898L1444.54 263.872ZM1428.32 255.848C1429.04 255.692 1429.61 255.277 1430 254.703L1444.43 264.034L1412.36 312.146L1404.25 311.393L1426.76 255.726C1427.24 255.914 1427.77 255.966 1428.32 255.848ZM1404.04 311.373L1380.56 309.197L1376.79 295.704L1425.63 254.971C1425.89 255.265 1426.22 255.502 1426.57 255.665L1404.04 311.373ZM1376.72 295.492L1373.2 282.872L1383.72 258.817L1424.94 253.583C1424.95 253.627 1424.96 253.681 1424.96 253.736C1425.05 254.152 1425.24 254.504 1425.48 254.839L1376.72 295.492ZM1383.82 258.601L1398.78 224.382L1425.66 251.205C1425.13 251.776 1424.86 252.566 1424.94 253.379L1383.82 258.601ZM1383.59 258.632L1367.02 260.733L1359.15 232.445L1379.15 204.789L1398.62 224.226L1383.59 258.632ZM1352.36 241.477L1341.35 169.236L1358.94 232.403L1352.36 241.477ZM1359.02 232.647L1366.85 260.759L1355.55 262.195L1352.43 241.774L1359.02 232.647ZM1355.33 262.217L1337.39 264.494C1337.38 264.461 1337.37 264.45 1337.37 264.428C1337.29 264.012 1337.05 263.656 1336.74 263.421L1352.24 241.991L1355.33 262.217ZM1334.62 266.338L1324.4 283.947L1315.31 271.714L1333.94 265.488C1334.08 265.845 1334.31 266.146 1334.62 266.338ZM1324.27 284.128L1318.68 293.749L1306.54 274.655L1315.09 271.799L1324.27 284.128ZM1306.44 274.462L1280.33 233.355L1283.72 229.586L1314.98 271.628L1306.44 274.462ZM1306.25 274.54L1286.24 281.233C1285.92 280.418 1285.04 279.924 1284.16 280.138C1284.07 280.161 1283.96 280.204 1283.88 280.238L1270.04 244.697L1280.17 233.523L1306.25 274.54ZM1283.7 280.307C1283 280.701 1282.62 281.468 1282.8 282.292C1282.87 282.61 1283.03 282.905 1283.27 283.143L1254.13 316.401C1253.62 315.985 1252.96 315.739 1252.28 315.769L1248.99 267.987L1269.93 244.868L1283.7 280.307ZM1241.44 275.988L1242.44 176.369L1248.76 267.889L1241.44 275.988ZM1248.78 268.181L1252.06 315.779C1251.96 315.801 1251.85 315.812 1251.75 315.834C1250.96 316.014 1250.31 316.509 1249.93 317.17L1241.07 312.381L1241.44 276.3L1248.78 268.181ZM1240.87 312.275L1224.58 303.491L1225.97 293.35L1241.22 276.503L1240.87 312.275ZM1224.39 303.409L1219.35 300.702L1225.74 293.639L1224.39 303.409ZM1206.78 314.277L1186.4 312.407L1196.12 288.391L1219.04 300.746L1206.78 314.277ZM1184.98 315.393L1181.01 312.103L1186.12 312.583L1184.98 315.393ZM1184.9 315.599L1179.91 327.954L1161.92 310.37L1180.66 312.079L1184.9 315.599ZM1099.36 304.638L1161.6 310.339L1179.82 328.16L1169.23 354.325C1168.73 354.147 1168.2 354.095 1167.66 354.224C1167.01 354.365 1166.47 354.731 1166.08 355.208L1099.07 305.404C1099.22 305.162 1099.32 304.903 1099.36 304.638ZM1109.8 410.074L1097.7 306.194C1097.79 306.181 1097.88 306.168 1097.96 306.155C1098.36 306.065 1098.69 305.851 1098.95 305.564L1165.96 355.368C1165.53 355.992 1165.35 356.768 1165.54 357.571C1165.64 358.032 1165.86 358.462 1166.16 358.802L1111.15 410.571C1110.8 410.236 1110.32 410.039 1109.8 410.074ZM1111.53 411.081C1111.48 410.947 1111.38 410.83 1111.29 410.713L1166.31 358.935C1166.95 359.578 1167.92 359.899 1168.89 359.693C1169.97 359.445 1170.78 358.59 1171.01 357.56L1206.66 364.152L1200.99 373.734L1111.53 411.081ZM1201.3 373.635L1206.87 364.215L1216.25 365.941C1216.2 366.27 1216.19 366.612 1216.29 366.965C1216.31 367.085 1216.36 367.198 1216.4 367.32L1201.3 373.635ZM1218.41 363.618C1217.89 363.729 1217.45 363.997 1217.09 364.327L1210.57 357.93L1218.1 345.17C1218.46 345.366 1218.91 345.443 1219.35 345.336C1219.89 345.227 1220.33 344.863 1220.56 344.402L1232.68 349.865L1220.74 364.148C1220.1 363.634 1219.25 363.433 1218.41 363.618ZM1221.56 365.195C1221.4 364.836 1221.17 364.523 1220.89 364.281L1232.86 349.99L1236.42 351.607L1233.13 360.488L1221.56 365.195ZM1221.64 365.385L1233.02 360.714L1232.12 363.138L1221.72 365.63C1221.7 365.552 1221.66 365.463 1221.64 365.385ZM1221.77 366.784C1221.81 366.476 1221.82 366.155 1221.77 365.849L1232.04 363.377L1230.46 367.647L1221.77 366.784ZM1230.65 367.666L1232.27 363.303L1251.92 358.606L1274.98 369.009L1275.17 369.092L1282.48 372.398C1282.43 372.511 1282.4 372.637 1282.39 372.765L1230.65 367.666ZM1283.77 371.3C1283.23 371.408 1282.81 371.775 1282.56 372.234L1252.23 358.529L1305.42 345.77L1320.64 353.557L1285.7 372.134C1285.32 371.495 1284.55 371.129 1283.77 371.3ZM1285.87 372.505C1285.85 372.427 1285.84 372.373 1285.8 372.294L1320.86 353.665L1333.3 360.019L1285.87 372.505ZM1285.96 373.115C1285.97 372.976 1285.96 372.846 1285.93 372.714L1333.55 360.162L1351.56 369.372L1359.2 379.293L1285.96 373.115ZM1359.5 379.323L1351.99 369.586L1371.23 379.432C1371.11 379.7 1371.04 379.994 1371.01 380.313L1359.5 379.323ZM1392.86 422.688L1359.66 379.542L1371.02 380.485C1371.02 380.7 1371.03 380.926 1371.08 381.136C1371.42 382.64 1372.91 383.582 1374.43 383.258C1374.56 383.228 1374.67 383.196 1374.77 383.152L1393.04 422.586C1392.98 422.634 1392.92 422.661 1392.86 422.688ZM1393.48 422.415C1393.39 422.428 1393.31 422.463 1393.21 422.518L1374.95 383.083C1375.5 382.847 1375.93 382.438 1376.22 381.941L1392.3 389.565L1393.7 422.394C1393.62 422.397 1393.55 422.4 1393.48 422.415ZM1393.89 422.37L1392.5 389.66L1412.38 399.075C1412.25 399.416 1412.21 399.778 1412.29 400.162C1412.51 401.139 1413.47 401.738 1414.44 401.522C1414.7 401.472 1414.92 401.344 1415.14 401.204L1423 410.631L1395.47 423.33C1395.17 422.753 1394.56 422.392 1393.89 422.37ZM1395.63 423.722C1395.6 423.665 1395.58 423.588 1395.57 423.534L1423.15 410.807L1428.4 417.111L1395.63 423.722ZM1428.6 417.045L1423.32 410.705L1428.19 408.466L1438.88 414.96L1428.6 417.045ZM1443.67 433.849C1443.39 433.907 1443.15 434.045 1442.93 434.206L1428.77 417.222L1439.14 415.115L1447.58 420.239L1444.32 433.806C1444.1 433.794 1443.88 433.795 1443.67 433.849ZM1445.86 435.653C1445.86 435.514 1445.86 435.363 1445.83 435.231C1445.67 434.539 1445.15 434.026 1444.5 433.876L1447.74 420.362L1473.21 435.845C1473.1 436.071 1473.02 436.289 1473 436.544L1445.86 435.653ZM1451.44 484.217L1444.38 437.398C1444.4 437.4 1444.42 437.381 1444.44 437.383C1445.2 437.21 1445.73 436.597 1445.84 435.866L1472.99 436.726C1472.99 436.844 1473.01 436.964 1473.03 437.085C1473.15 437.612 1473.5 438.032 1473.93 438.279L1452.33 484.305C1452.06 484.193 1451.74 484.161 1451.44 484.217ZM1452.54 484.39L1474.14 438.364C1474.47 438.504 1474.84 438.53 1475.21 438.447C1475.86 438.297 1476.35 437.797 1476.54 437.193L1482.2 438.553L1488.89 454.804L1453.03 484.728C1452.88 484.595 1452.71 484.482 1452.54 484.39ZM1453.43 485.433C1453.37 485.234 1453.28 485.053 1453.16 484.892L1488.96 455.026L1496.5 473.303L1453.43 485.433ZM1496.69 473.258L1489.12 454.87L1496.73 448.528L1499.84 472.354L1496.69 473.258ZM1501.36 484.134C1501.32 484.151 1501.25 484.166 1501.19 484.192L1496.77 473.448L1499.87 472.582L1501.39 484.147C1501.37 484.124 1501.36 484.134 1501.36 484.134ZM1501.57 484.1L1500.05 472.514L1501.95 471.97L1501.69 484.101C1501.65 484.109 1501.61 484.104 1501.57 484.1ZM1501.9 484.101L1502.17 471.927L1506.24 470.78L1502.18 484.149C1502.07 484.117 1501.99 484.109 1501.9 484.101ZM1502.36 484.21L1506.47 470.706L1540.54 461.13C1540.98 462.493 1542.39 463.33 1543.81 463.007C1544.09 462.949 1544.35 462.835 1544.59 462.697L1545.54 464.09L1503.31 485.001C1503.09 484.614 1502.76 484.335 1502.36 484.21ZM1503.4 485.16L1545.65 464.251L1550.51 471.366L1503.47 485.372C1503.45 485.294 1503.43 485.228 1503.4 485.16ZM1503.55 485.874C1503.55 485.777 1503.54 485.669 1503.52 485.57L1550.63 471.56L1562.48 488.864L1503.55 485.874ZM1562.74 488.868L1550.85 471.496L1555.19 470.203L1576.05 487.264C1575.54 487.901 1575.22 488.686 1575.15 489.506L1562.74 488.868ZM1599.94 543.296L1562.88 489.086L1575.15 489.721C1575.14 490.043 1575.16 490.377 1575.24 490.707C1575.73 492.903 1577.91 494.287 1580.1 493.794C1580.29 493.759 1580.45 493.7 1580.62 493.641L1600.25 543.144C1600.15 543.187 1600.05 543.231 1599.94 543.296ZM1600.81 542.941C1600.69 542.961 1600.56 543.003 1600.44 543.044L1580.81 493.542C1581.92 493.06 1582.74 492.152 1583.09 491.027L1599.65 495.831L1601.24 542.876C1601.1 542.894 1600.96 542.913 1600.81 542.941ZM1601.45 542.885L1599.86 495.915L1612.37 499.549L1601.97 542.947C1601.79 542.897 1601.63 542.892 1601.45 542.885ZM1602.17 542.977L1612.57 499.6L1627.33 503.885L1602.8 543.243C1602.61 543.139 1602.4 543.043 1602.17 542.977ZM1602.98 543.347L1627.54 503.948L1629.18 504.421L1649.02 533.764L1604.1 544.907C1603.92 544.256 1603.5 543.72 1602.98 543.347ZM1705.84 617.772C1705.72 617.856 1705.61 617.964 1705.5 618.093L1603.74 547.223C1604.14 546.618 1604.3 545.861 1604.14 545.093L1649.13 533.947L1705.84 617.772ZM1691.48 523.218L1649.24 533.7L1629.5 504.494L1691.5 522.479C1691.43 522.718 1691.43 522.966 1691.48 523.218ZM1691.6 522.187C1691.59 522.23 1691.58 522.261 1691.55 522.301L1629.29 504.249L1628.29 502.744L1633.92 493.705L1691.6 522.187ZM1628.15 502.547L1617.66 487.03C1618.02 486.787 1618.31 486.471 1618.53 486.095L1633.72 493.611L1628.15 502.547ZM1668.73 437.474L1633.85 493.43L1618.64 485.912C1618.89 485.368 1619 484.734 1618.86 484.087C1618.75 483.626 1618.55 483.208 1618.26 482.879L1668.5 437.291C1668.58 437.363 1668.65 437.402 1668.73 437.474ZM1668.34 437.146L1618.11 482.725C1617.74 482.366 1617.31 482.109 1616.84 481.988L1621.57 464.743L1668.25 437.008C1668.28 437.065 1668.32 437.09 1668.34 437.146ZM1668.15 436.837L1621.67 464.451L1625.86 449.172L1668.06 436.614C1668.09 436.692 1668.11 436.769 1668.15 436.837ZM1667.97 436.164C1667.97 436.24 1667.96 436.325 1667.99 436.403C1668 436.414 1668 436.414 1668 436.435L1625.94 448.933L1629.11 437.43L1667.97 436.164ZM1625.68 449.005L1598.55 457.092L1597.97 440.078C1598.04 440.063 1598.12 440.05 1598.2 440.046C1599.01 439.868 1599.56 439.181 1599.61 438.38L1628.88 437.419L1625.68 449.005ZM1647.69 369.082L1628.93 437.22L1599.62 438.177C1599.62 438.08 1599.59 437.982 1599.58 437.894C1599.41 437.136 1598.82 436.606 1598.12 436.494L1601.16 408.805L1646.55 368.357C1646.85 368.677 1647.26 368.931 1647.69 369.082ZM1646.4 368.203L1601.17 408.505L1603.12 390.526L1646.11 367.82C1646.2 367.958 1646.3 368.075 1646.4 368.203ZM1646.04 367.642L1603.17 390.273L1604.57 377.329L1645.86 367.205C1645.94 367.352 1645.97 367.484 1646.04 367.642ZM1645.81 367.007L1604.59 377.116L1605.17 371.889L1645.79 366.866C1645.81 366.91 1645.81 366.953 1645.81 367.007ZM1645.77 366.649L1605.19 371.655L1606.02 364.047L1645.77 366.337C1645.76 366.443 1645.77 366.552 1645.77 366.649ZM1645.79 366.028C1645.79 366.07 1645.78 366.113 1645.77 366.165L1606.05 363.867L1606.63 358.48L1645.79 366.028ZM1605.85 363.858L1561.79 361.317C1561.78 361.187 1561.76 361.046 1561.74 360.926C1561.66 360.542 1561.44 360.209 1561.18 359.958L1568.3 351.056L1606.46 358.43L1605.85 363.858ZM1613.14 297.333L1606.48 358.217L1568.45 350.877L1611.74 296.777C1612.15 297.107 1612.63 297.283 1613.14 297.333ZM1611.58 296.654L1568.22 350.833L1535.6 344.528C1535.66 344.18 1535.66 343.814 1535.57 343.451C1535.52 343.166 1535.4 342.908 1535.27 342.681L1611.07 296.099C1611.22 296.307 1611.38 296.506 1611.58 296.654ZM1610.97 295.928L1535.17 342.51C1534.91 342.119 1534.57 341.807 1534.18 341.607L1552.07 305.313L1610.68 295.169C1610.75 295.444 1610.83 295.689 1610.97 295.928ZM1610.64 294.983L1552.17 305.097L1564.2 280.727L1610.69 293.871C1610.61 294.228 1610.58 294.601 1610.64 294.983ZM1570.17 272.378C1570.95 272.208 1571.55 271.73 1571.94 271.102L1610.93 293.261C1610.86 293.394 1610.8 293.527 1610.75 293.683L1564.3 280.544L1568.43 272.207C1568.95 272.441 1569.56 272.511 1570.17 272.378ZM1568.24 272.103L1564.11 280.483L1560.14 279.363L1567.68 271.704C1567.85 271.86 1568.04 271.997 1568.24 272.103ZM1567.54 271.562L1559.92 279.309L1554.36 277.732L1567.13 271.038C1567.25 271.233 1567.38 271.406 1567.54 271.562ZM1567.04 270.858L1554.07 277.639L1546.3 275.437L1546.57 274.121L1566.84 270.258C1566.89 270.477 1566.95 270.677 1567.04 270.858ZM1605.42 181.522L1570.53 267C1570.04 266.834 1569.5 266.77 1568.96 266.9C1567.79 267.151 1566.96 268.111 1566.8 269.223L1547.93 267.113L1554.23 234.986L1604.46 180.848C1604.76 181.125 1605.08 181.349 1605.42 181.522ZM1604.02 180.364C1604.1 180.491 1604.21 180.598 1604.32 180.705L1554.31 234.629L1558.05 215.515L1604.02 180.364ZM1557.82 215.707L1554.04 234.904L1526.4 264.71L1498.65 261.601C1498.66 261.452 1498.66 261.279 1498.61 261.124C1498.56 260.893 1498.48 260.703 1498.37 260.521L1525.35 240.454C1526.3 241.653 1527.86 242.268 1529.43 241.917C1531.62 241.424 1533.02 239.263 1532.51 237.055C1532.39 236.494 1532.17 235.99 1531.84 235.538L1557.82 215.707ZM1590.77 47.7728L1557.88 215.401L1531.73 235.388C1531.27 234.795 1530.63 234.357 1529.91 234.092L1590.5 47.7031C1590.58 47.7328 1590.68 47.7528 1590.77 47.7728ZM1590.31 47.6418L1529.72 234.052C1529.07 233.86 1528.37 233.824 1527.67 233.97C1527.19 234.073 1526.76 234.267 1526.38 234.52L1516.21 217.327L1590.14 47.5708C1590.19 47.608 1590.25 47.6143 1590.31 47.6418ZM1589.3 47.1236C1589.51 47.2626 1589.72 47.3897 1589.95 47.4882L1516.08 217.12L1497.22 185.241L1589.3 47.1236ZM1452.36 109.871L1496.96 185.237L1481.19 208.906L1451.59 110.204C1451.87 110.135 1452.12 110.009 1452.36 109.871ZM1451.23 110.308C1451.29 110.293 1451.35 110.267 1451.42 110.252L1481.05 209.118L1469.91 225.82L1451.1 110.338C1451.13 110.331 1451.18 110.325 1451.23 110.308ZM1450.88 110.36L1469.74 226.061L1449.98 255.707L1430.51 253.346C1430.54 253.069 1430.51 252.777 1430.44 252.501C1430.19 251.381 1429.3 250.564 1428.24 250.362L1449.82 110.374C1450.17 110.419 1450.53 110.433 1450.88 110.36ZM1449.61 110.343L1428.03 250.32C1427.72 250.279 1427.4 250.291 1427.09 250.368C1426.59 250.48 1426.14 250.715 1425.8 251.057L1398.86 224.164L1448.75 110.076C1449.04 110.211 1449.32 110.293 1449.61 110.343ZM1447.95 109.633C1448.15 109.769 1448.35 109.897 1448.56 109.993L1398.7 224.019L1379.26 204.617L1447.95 109.633ZM1342.01 167.711L1379.01 204.646L1359.1 232.193L1341.26 168.132C1341.54 168.041 1341.8 167.905 1342.01 167.711ZM1340.98 168.168L1352.19 241.718L1336.59 263.31C1336.36 263.148 1336.08 263.066 1335.81 263.029L1340.83 168.175C1340.87 168.179 1340.92 168.174 1340.98 168.168ZM1339.68 167.784C1339.95 167.993 1340.27 168.142 1340.62 168.166L1335.61 263.02C1335.48 263.008 1335.36 263.028 1335.22 263.046C1334.25 263.262 1333.63 264.233 1333.85 265.21C1333.86 265.222 1333.87 265.255 1333.87 265.288L1315.19 271.541L1283.87 229.407L1339.68 167.784ZM1283.59 229.423L1280.19 233.171L1243.92 176.074L1283.59 229.423ZM1243.25 175.396L1280.07 233.33L1269.98 244.475L1243.12 175.459C1243.17 175.442 1243.2 175.413 1243.25 175.396ZM1242.76 175.584C1242.82 175.569 1242.88 175.542 1242.92 175.525L1269.81 244.631L1248.95 267.693L1242.59 175.6C1242.66 175.585 1242.7 175.589 1242.76 175.584ZM1242.25 175.609L1241.23 276.225L1226.02 293.012L1242.22 175.617C1242.23 175.607 1242.25 175.609 1242.25 175.609ZM1241.79 175.521C1241.87 175.55 1241.94 175.568 1242.03 175.598L1225.79 293.279L1219.17 300.598L1196.2 288.227L1241.79 175.521ZM1195.93 288.308L1186.2 312.398L1180.73 311.883L1070.93 221.151C1070.96 221.089 1070.99 221.082 1071.02 221.02L1195.93 288.308Z" fill="#111111"/>
</g>
</g>
</svg>
