<svg width="24" height="24" viewBox="0 0 24 24" fill="none" xmlns="http://www.w3.org/2000/svg">
<g id="fluent:checkbox-checked-24-filled">
<path id="Vector" d="M6.25 3C5.38805 3 4.5614 3.34241 3.9519 3.9519C3.34241 4.5614 3 5.38805 3 6.25V17.75C3 18.612 3.34241 19.4386 3.9519 20.0481C4.5614 20.6576 5.38805 21 6.25 21H17.75C18.612 21 19.4386 20.6576 20.0481 20.0481C20.6576 19.4386 21 18.612 21 17.75V6.25C21 5.38805 20.6576 4.5614 20.0481 3.9519C19.4386 3.34241 18.612 3 17.75 3H6.25ZM17.28 9.28L10.526 16.027C10.3854 16.1675 10.1948 16.2463 9.996 16.2463C9.79725 16.2463 9.60663 16.1675 9.466 16.027L6.72 13.28C6.58752 13.1378 6.5154 12.9498 6.51883 12.7555C6.52225 12.5612 6.60097 12.3758 6.73838 12.2384C6.87579 12.101 7.06118 12.0223 7.25548 12.0188C7.44978 12.0154 7.63783 12.0875 7.78 12.22L9.997 14.436L16.22 8.219C16.2897 8.1494 16.3725 8.09421 16.4635 8.0566C16.5546 8.01898 16.6522 7.99967 16.7507 7.99976C16.8492 7.99985 16.9468 8.01935 17.0378 8.05714C17.1287 8.09493 17.2114 8.15027 17.281 8.22C17.3506 8.28973 17.4058 8.37249 17.4434 8.46355C17.481 8.55461 17.5003 8.65218 17.5002 8.75071C17.5001 8.84923 17.4807 8.94677 17.4429 9.03776C17.4051 9.12875 17.3497 9.2114 17.28 9.281V9.28Z" fill="#F48221"/>
</g>
</svg>
