<svg width="366" height="60" viewBox="0 0 366 60" fill="none" xmlns="http://www.w3.org/2000/svg">
<g clip-path="url(#clip0_11_5502)">
<path d="M21.9966 0H22.3114C22.2821 0.674452 21.8809 1.24526 21.6584 1.86423C21.1929 2.92993 21.2368 4.11387 21.2295 5.25109C21.2426 6.06131 21.2295 6.89051 21.471 7.67299C22.3553 10.1547 24.2263 12.3168 26.6638 13.3781C27.51 13.7577 28.4324 13.9109 29.3459 14.0365C29.3532 15.8759 29.3649 17.7153 29.3181 19.5533C29.2771 19.9664 29.2917 20.4321 29.0311 20.7796C28.7442 21.0409 28.3138 20.9489 27.9653 21.0467C25.5761 21.7328 23.4547 23.3431 22.2133 25.5007C21.6145 26.4876 21.31 27.6131 21.0509 28.7285C18.8153 28.7401 16.5798 28.7226 14.3443 28.7372C14.0295 27.5781 13.7001 26.4029 13.0604 25.3723C11.5158 22.7533 8.61857 20.9474 5.55735 20.8555C3.60145 20.7737 1.71142 21.4555 0.0102539 22.3606C0.44799 20.5358 1.139 18.7825 1.89296 17.0657C5.62323 8.78686 13.2126 2.36204 21.9966 0Z" fill="#F48221"/>
<path d="M38.0991 0H38.4388C41.8279 0.938686 45.0341 2.49343 47.9284 4.48175C51.6441 7.04526 54.8868 10.365 57.0667 14.3314C58.4648 16.8701 59.7239 19.5241 60.3841 22.3577C59.2437 21.7971 58.0886 21.2175 56.8222 21.0044C54.25 20.5022 51.4874 21.2365 49.4788 22.9066C47.8186 24.2453 46.7074 26.1679 46.1702 28.2131C46.0765 28.3854 46.1145 28.7693 45.8276 28.7285C43.6711 28.7387 41.5161 28.727 39.3611 28.7328C39.1605 28.0234 38.9922 27.3022 38.7184 26.6175C37.8502 24.4248 36.0993 22.6073 33.956 21.6204C32.962 21.1445 31.8727 20.927 30.7982 20.7139C30.8391 18.5328 30.8699 16.3518 30.9372 14.1737C31.5507 13.9358 32.2256 13.8876 32.8492 13.6701C34.6719 13.1299 36.2721 11.9533 37.4315 10.4628C38.3758 9.21022 39.1576 7.73431 39.1517 6.12847C39.1561 4.82482 39.2747 3.48029 38.875 2.21898C38.6569 1.46423 38.1284 0.80146 38.0991 0Z" fill="#F48221"/>
<path d="M173.916 11.1957C176.261 11.1942 178.605 11.1957 180.95 11.1957C182.515 11.2117 184.089 11.1197 185.643 11.3665C187.95 11.6993 190.178 12.6205 192.002 14.0759C194.4 15.9562 196.157 18.6555 196.808 21.6365C197.47 24.4044 197.205 27.3635 196.132 29.9927C195.017 32.7008 192.958 34.9971 190.424 36.4628C188.313 37.6818 185.864 38.2467 183.435 38.2613C180.262 38.2613 177.088 38.2628 173.916 38.2613C173.916 29.2395 173.916 20.2176 173.916 11.1957ZM177.946 15.2497C177.951 21.5708 177.938 27.8905 177.954 34.2117C179.637 34.2059 181.321 34.2088 183.004 34.2103C184.133 34.2292 185.271 34.1154 186.358 33.8044C189.557 32.9124 192.157 30.1679 192.853 26.927C193.608 23.7738 192.651 20.2395 190.297 17.9796C188.588 16.238 186.164 15.3022 183.738 15.257C181.807 15.2395 179.877 15.2526 177.946 15.2497Z" fill="#F48221"/>
<path d="M297.694 12.654C299.106 12.0584 300.88 13.0613 301.092 14.5723C301.391 16.0774 300.026 17.5971 298.498 17.5007C297.157 17.473 296.028 16.2175 296.097 14.892C296.122 13.9153 296.778 12.9971 297.694 12.654Z" fill="#F48221"/>
<path d="M197.647 19.7883C198.877 19.2861 200.086 18.7357 201.306 18.2073C203.593 23.2598 205.794 28.3518 208.103 33.3941C210.533 28.3007 212.975 23.2102 215.447 18.1357C216.659 18.7547 217.906 19.3065 219.114 19.9357C215.836 26.6598 212.604 33.4044 209.342 40.1372C208.753 41.3284 208.241 42.5766 207.406 43.6248C206.629 44.6306 205.544 45.4175 204.31 45.7547C202.809 46.1547 201.152 45.7956 199.895 44.9036C198.72 44.1343 197.927 42.9606 197.185 41.8014C198.319 41.1051 199.433 40.3766 200.567 39.6788C201.199 40.4598 201.675 41.4949 202.691 41.8452C203.221 42.0511 203.726 41.6627 204.052 41.2817C204.716 40.4759 205.096 39.4919 205.585 38.581C205.658 38.3898 205.855 38.1781 205.701 37.9708C203.212 32.3795 200.726 26.7868 198.24 21.1941C198.04 20.7255 197.803 20.273 197.647 19.7883Z" fill="#F48221"/>
<path d="M224.721 21.1417C226.772 19.2263 229.674 18.2701 232.464 18.6453C234.527 18.8614 236.572 19.8526 237.767 21.5855C238.632 22.822 238.988 24.349 238.979 25.8409C238.978 29.9811 238.979 34.1212 238.978 38.2614C237.623 38.2628 236.268 38.2628 234.913 38.2614C234.911 34.0672 234.916 29.8745 234.912 25.6803C234.911 24.7942 234.632 23.8263 233.865 23.3022C232.801 22.5548 231.398 22.4818 230.154 22.6979C227.74 23.1066 225.807 25.1212 225.179 27.4336C224.756 28.8614 224.897 30.3636 224.873 31.8307C224.873 33.9738 224.875 36.1183 224.873 38.2614C223.525 38.2438 222.175 38.3008 220.83 38.2307C220.861 31.7855 220.834 25.3387 220.843 18.892C222.112 18.8906 223.382 18.8906 224.652 18.8935C224.674 19.6424 224.698 20.3913 224.721 21.1417Z" fill="#F48221"/>
<path d="M246.469 19.3271C248.974 18.4789 251.761 18.2789 254.311 19.0584C255.72 19.5037 257.054 20.2672 258.048 21.3709C258.963 22.3869 259.488 23.7387 259.5 25.1052C259.513 29.4803 259.484 33.857 259.516 38.2322C258.25 38.3008 256.98 38.2424 255.714 38.2628C255.685 37.7475 255.666 37.2336 255.645 36.7183C253.468 38.2993 250.66 38.8687 248.018 38.4526C245.851 38.1855 243.693 37.1606 242.45 35.3183C241.203 33.5227 241.008 31.0365 242.042 29.0979C243.023 27.2409 244.939 26.0088 246.953 25.5271C248.299 25.184 249.697 25.2716 251.073 25.2614C252.546 25.2614 254.019 25.2628 255.491 25.2614C255.49 24.2073 254.549 23.4979 253.676 23.1008C251.95 22.3752 249.975 22.4891 248.208 22.9986C247.075 23.3022 246.103 23.965 245.101 24.5431C244.381 23.4059 243.658 22.2716 242.938 21.1373C244.074 20.4599 245.201 19.7402 246.469 19.3271ZM246.347 30.1855C245.839 30.5796 245.419 31.1636 245.437 31.8307C245.426 32.8716 246.243 33.7402 247.176 34.0949C249.703 35.019 252.9 34.4774 254.617 32.2949C255.339 31.4818 255.566 30.3723 255.474 29.3139C253.423 29.3139 251.372 29.3125 249.322 29.3139C248.28 29.3198 247.18 29.5212 246.347 30.1855Z" fill="#F48221"/>
<path d="M269.339 19.3825C271.393 18.4044 273.841 18.3168 275.982 19.0701C277.314 19.5358 278.432 20.4993 279.156 21.7008C280.603 20.0307 282.652 18.8365 284.875 18.6219C286.713 18.4467 288.677 18.7387 290.223 19.8015C291.478 20.6599 292.324 22.0292 292.659 23.4964C292.984 24.7898 292.897 26.13 292.908 27.4497C292.91 31.0497 292.904 34.6511 292.911 38.2511C291.554 38.2745 290.198 38.257 288.843 38.2613C288.84 34.0248 288.847 29.7883 288.84 25.5518C288.83 24.6175 288.601 23.5256 287.74 23.0059C286.7 22.4774 285.445 22.4949 284.344 22.8132C282.432 23.3971 281.057 25.1197 280.466 26.9694C279.924 28.5825 280.078 30.3008 280.057 31.9708C280.056 34.0686 280.057 36.165 280.056 38.2613C278.71 38.2482 277.364 38.2905 276.02 38.2394C276.042 34.1095 276.021 29.9781 276.03 25.8482C276.034 25.0219 275.951 24.13 275.43 23.4511C275.081 22.9752 274.491 22.7694 273.933 22.6701C272.581 22.4248 271.131 22.746 270.027 23.5664C268.726 24.5387 267.836 26.0102 267.485 27.5854C267.171 28.8307 267.255 30.1212 267.244 31.3913C267.244 33.6818 267.244 35.9708 267.244 38.2613C265.9 38.2628 264.557 38.2628 263.214 38.2613C263.229 31.8015 263.183 25.3416 263.237 18.8818C264.517 18.9168 265.799 18.857 267.08 18.9139C267.073 19.5664 267.104 20.2175 267.113 20.8686C267.796 20.2949 268.522 19.7591 269.339 19.3825Z" fill="#F48221"/>
<path d="M311.093 18.8569C313.249 18.3182 315.586 18.5503 317.583 19.5284C319.104 20.3051 320.325 21.5284 321.518 22.7226C320.518 23.6496 319.549 24.6117 318.555 25.546C317.701 24.6934 316.909 23.7372 315.811 23.1854C313.476 21.9226 310.369 22.7781 308.78 24.8335C307.042 26.9036 307.02 30.1781 308.753 32.2584C310.334 34.3124 313.403 35.1737 315.756 33.981C316.884 33.4438 317.69 32.4686 318.562 31.6087C319.546 32.5606 320.544 33.4963 321.521 34.4569C320.363 35.5489 319.243 36.7226 317.83 37.4949C314.904 39.0759 311.188 38.87 308.346 37.2C306.01 35.816 304.232 33.4759 303.654 30.816C303.086 28.4511 303.459 25.8876 304.626 23.7576C305.975 21.3255 308.362 19.4642 311.093 18.8569Z" fill="#F48221"/>
<path d="M296.615 18.8833C297.955 18.9067 299.294 18.8745 300.634 18.9008C300.621 25.3548 300.632 31.8074 300.628 38.2614C299.284 38.2629 297.94 38.2629 296.598 38.2614C296.609 31.803 296.574 25.3417 296.615 18.8833Z" fill="#F48221"/>
<path d="M14.3765 30.1839C16.5974 30.1854 18.8197 30.1737 21.0421 30.1897C21.1402 31.0423 21.2046 31.9109 21.4871 32.7299C22.1576 34.7051 23.5162 36.4335 25.2438 37.6029C26.4311 38.4102 27.8555 38.7153 29.2273 39.0598C29.2785 41.3386 29.321 43.6189 29.3635 45.8978C27.4808 45.762 25.7649 46.7854 24.3785 47.9532C22.6452 49.4204 21.2529 51.5211 21.2441 53.8554C21.2368 54.9795 21.1665 56.124 21.4022 57.2321C21.5955 58.1868 22.2572 58.9941 22.326 59.9781C17.9369 58.7211 13.7572 56.6467 10.2539 53.7065C5.22941 49.5532 1.57527 43.7824 0.00146484 37.4656C0.945745 37.9503 1.89295 38.4671 2.93825 38.7051C5.04495 39.2087 7.35075 39.0277 9.28762 38.0292C11.4719 36.8642 13.1921 34.8365 13.9578 32.4861C14.2111 31.743 14.2652 30.9547 14.3765 30.1839Z" fill="#F48221"/>
<path d="M37.5443 35.3957C38.5588 33.8468 39.3435 32.0541 39.3157 30.1724C41.5483 30.1928 43.7824 30.1797 46.0164 30.1797C46.1438 33.222 47.9518 36.0439 50.4714 37.7008C52.6015 38.9621 55.2528 39.3023 57.6435 38.6629C58.6171 38.4147 59.4984 37.9213 60.3871 37.4687C58.1457 46.4935 51.5782 54.3432 43.0504 58.1154C41.4151 58.8191 39.771 59.5592 38.0347 59.968C38.1928 58.9913 38.796 58.1651 39.0053 57.203C39.1796 56.3943 39.1635 55.5607 39.1693 54.7373C39.1605 53.8395 39.1693 52.9213 38.8838 52.06C37.7463 48.6731 34.5153 46.0848 30.9358 45.7738C30.8743 43.5636 30.8377 41.3505 30.7967 39.1388C33.3514 38.6512 35.9793 37.5621 37.5443 35.3957Z" fill="#F48221"/>
<path d="M77.6842 12.2087C80.6576 10.6525 84.2122 10.5795 87.411 11.4146C88.834 11.7766 90.1355 12.4861 91.3726 13.2569C92.2173 13.7708 92.9054 14.4876 93.6184 15.162C92.7327 16.1854 91.8718 17.2306 90.9715 18.2408C90.361 17.6671 89.8061 17.0146 89.0771 16.5825C88.1445 16.0146 87.1622 15.4919 86.0861 15.2598C83.9619 14.781 81.6238 14.762 79.6372 15.7489C78.813 16.2058 77.9302 16.8408 77.7208 17.8146C77.6183 18.7912 78.3723 19.6116 79.1936 20.0262C81.1993 21.0233 83.3455 21.7022 85.4947 22.3138C87.1519 22.8029 88.7667 23.4481 90.2805 24.2803C90.9539 24.6569 91.6274 25.0496 92.1998 25.5722C94.04 27.1971 94.832 29.9197 94.1074 32.2671C93.6521 33.8759 92.5541 35.2467 91.2057 36.2131C88.8985 37.8919 85.9953 38.6043 83.1669 38.5766C80.7952 38.4876 78.3694 38.0905 76.2671 36.9372C74.9202 36.2043 73.5792 35.3898 72.5631 34.2248C72.3421 33.9547 72.0171 33.7474 71.8824 33.4233C72.7857 32.4803 73.7153 31.5576 74.6581 30.654C74.9875 30.8467 75.2042 31.1854 75.4809 31.4452C76.2129 32.2627 77.185 32.8058 78.1351 33.3299C79.6694 34.1737 81.4423 34.4394 83.1698 34.5211C85.0335 34.5299 86.9806 34.1825 88.5456 33.1168C89.386 32.546 90.1824 31.727 90.3039 30.6744C90.3932 29.5679 89.6802 28.5343 88.7286 28.0189C86.8811 27.0058 84.8768 26.3138 82.8521 25.746C81.0236 25.2321 79.2346 24.5635 77.5495 23.6832C76.393 23.1109 75.3125 22.3124 74.6215 21.2073C73.7241 19.7854 73.4137 17.9708 73.9393 16.3591C74.4795 14.4934 75.9874 13.0686 77.6842 12.2087Z" fill="black"/>
<path d="M154.273 11.1971C155.616 11.1928 156.958 11.1928 158.302 11.1971C158.302 16.4205 158.31 21.6453 158.298 26.8687C161.342 23.8862 164.334 20.8541 167.362 17.8555C168.315 18.8015 169.265 19.7504 170.215 20.7008C167.9 23.0088 165.611 25.3431 163.28 27.6351C165.081 29.6964 166.928 31.7198 168.77 33.746C169.332 34.4774 170.325 34.1344 171.112 34.2059C171.121 35.5548 171.111 36.9037 171.118 38.2526C170.095 38.2453 169.036 38.3679 168.053 38.0234C166.927 37.6395 166.054 36.7811 165.277 35.9168C163.659 34.1256 162.014 32.3592 160.415 30.5519C159.678 31.203 159.017 31.9329 158.307 32.6117C158.298 34.4949 158.308 36.3782 158.302 38.2599C156.96 38.2628 155.616 38.2628 154.275 38.2614C154.272 29.2395 154.272 20.219 154.273 11.1971Z" fill="black"/>
<path d="M104.535 18.8875C106.563 18.3226 108.766 18.5664 110.684 19.4014C113.366 20.5941 115.419 23.0685 116.158 25.8948C116.6 27.5401 116.634 29.2875 116.239 30.9459C115.596 33.8175 113.598 36.3649 110.935 37.6408C108.957 38.5707 106.647 38.8525 104.528 38.2656C103.287 37.9474 102.152 37.3196 101.135 36.5547C101.116 39.6773 101.138 42.7999 101.124 45.9226C99.7833 45.9211 98.4438 45.9167 97.1042 45.9255C97.0896 36.9138 97.0954 27.9007 97.1013 18.889C98.3588 18.8904 99.6179 18.8992 100.877 18.8846C100.941 19.4977 100.937 20.1153 100.959 20.7313C102.038 19.9255 103.212 19.2116 104.535 18.8875ZM105.638 22.7313C104.02 23.07 102.648 24.2175 101.868 25.6481C101.152 26.9897 100.947 28.597 101.321 30.0715C101.657 31.5386 102.6 32.8437 103.862 33.6627C105.134 34.4729 106.75 34.7372 108.21 34.3357C109.851 33.9226 111.211 32.6744 111.904 31.1532C112.454 29.908 112.602 28.4831 112.286 27.1561C111.956 25.6467 111.003 24.2919 109.709 23.4467C108.519 22.6861 107.017 22.4043 105.638 22.7313Z" fill="black"/>
<path d="M123.257 19.2643C125.61 18.5051 128.194 18.3154 130.596 18.9635C132.312 19.4468 133.962 20.3884 135.028 21.8409C135.716 22.7825 136.09 23.9402 136.104 25.1022C136.112 29.4832 136.095 33.8628 136.112 38.2438C134.848 38.2847 133.581 38.2526 132.315 38.2614C132.288 37.7679 132.272 37.2745 132.259 36.7811C131.801 36.9416 131.436 37.276 130.999 37.4789C128.782 38.6438 126.147 38.8278 123.724 38.2906C122.114 37.9489 120.575 37.1519 119.498 35.892C118.012 34.2176 117.552 31.6993 118.404 29.6219C119.004 28.1022 120.273 26.9285 121.714 26.1986C123.004 25.5431 124.459 25.2599 125.901 25.2613C127.965 25.2613 130.03 25.2643 132.095 25.2599C132.091 24.1592 131.079 23.4424 130.164 23.0497C128.35 22.3475 126.296 22.5051 124.478 23.1066C123.472 23.419 122.611 24.038 121.699 24.5402C120.989 23.4044 120.26 22.2774 119.547 21.1431C120.724 20.4117 121.923 19.6803 123.257 19.2643ZM123.035 30.1212C122.493 30.5183 122.03 31.1168 122.042 31.8146C122.023 32.7796 122.727 33.6132 123.57 34.0044C126.189 35.0935 129.627 34.4949 131.35 32.1285C131.99 31.3387 132.149 30.3022 132.078 29.3168C130.019 29.311 127.962 29.3124 125.905 29.3139C124.903 29.3227 123.853 29.511 123.035 30.1212Z" fill="black"/>
<path d="M147.131 19.1227C148.592 18.5431 150.181 18.5621 151.727 18.5154C151.59 19.8541 151.439 21.1913 151.281 22.5285C150.343 22.6176 149.379 22.6074 148.483 22.9271C146.851 23.4789 145.592 24.8132 144.817 26.3125C144.112 27.6949 143.837 29.2614 143.847 30.803C143.854 33.2818 143.838 35.7606 143.856 38.2395C142.51 38.2876 141.163 38.2511 139.818 38.2599C139.827 31.8001 139.799 25.3402 139.832 18.8818C141.09 18.8979 142.348 18.8993 143.605 18.8803C143.678 19.692 143.668 20.5066 143.69 21.3198C144.716 20.4219 145.825 19.5782 147.131 19.1227Z" fill="black"/>
<path d="M349.492 38.2073C349.508 33.8044 349.449 29.3985 349.521 24.9971C349.748 25.0058 349.978 25.016 350.214 25.0263C350.209 26.6365 350.221 28.2482 350.206 29.8584C351.465 29.7912 352.76 29.5941 354 29.9241C355.282 30.2671 356.201 31.4482 356.442 32.7197C356.642 33.8452 356.554 35.0423 356.087 36.0934C355.516 37.3679 354.237 38.3591 352.814 38.4073C351.701 38.4306 350.593 38.3241 349.492 38.2073ZM350.22 30.5693C350.214 32.908 350.199 35.2467 350.227 37.5854C350.993 37.6204 351.757 37.7036 352.527 37.7212C353.702 37.7693 354.859 37.0248 355.335 35.9577C355.903 34.6934 355.992 33.1723 355.366 31.9139C354.947 31.0628 354.052 30.4847 353.107 30.4379C352.142 30.3956 351.178 30.4993 350.22 30.5693Z" fill="black"/>
<path d="M325.296 27.7299C326.829 26.308 329.087 26.5547 331.006 26.7022C331.005 26.9357 331.007 27.1679 331.012 27.4014C329.649 27.3387 328.217 27.073 326.908 27.5854C325.933 28.0394 325.105 28.8774 324.791 29.9182C324.266 31.5854 324.276 33.416 324.825 35.0759C325.147 36.0555 325.946 36.8219 326.853 37.2803C328.139 37.8131 329.57 37.5737 330.924 37.5474C330.959 36.054 330.918 34.5606 330.946 33.0671C329.971 33.0321 328.996 33.0613 328.022 33.0511C328.015 32.8146 328.012 32.5781 328.012 32.343C329.236 32.3168 330.46 32.3387 331.685 32.3314C331.691 34.289 331.684 36.2482 331.69 38.2073C330.308 38.3036 328.907 38.3883 327.529 38.2044C326.227 38.035 325.065 37.2044 324.386 36.1022C323.739 34.8861 323.622 33.4657 323.632 32.1124C323.705 30.543 323.976 28.7664 325.296 27.7299Z" fill="black"/>
<path d="M358.743 26.7299C358.982 26.7212 359.22 26.7139 359.471 26.7109C359.485 28.3051 359.444 29.9007 359.487 31.4934C359.793 31.6628 360.223 31.5343 360.582 31.5708C362.151 31.5664 363.721 31.5723 365.291 31.5679C365.293 29.9518 365.294 28.3358 365.29 26.7197C365.523 26.7168 365.758 26.7139 366 26.7124V38.1971C365.757 38.1927 365.52 38.1883 365.287 38.181C365.294 36.2175 365.297 34.254 365.287 32.2905C363.344 32.2993 361.403 32.273 359.463 32.3036C359.487 34.2598 359.453 36.2175 359.482 38.1737C359.233 38.1781 358.989 38.1869 358.749 38.2C358.747 34.3766 358.759 30.5533 358.743 26.7299Z" fill="black"/>
<path d="M335.206 30.7415C335.691 30.2962 336.219 29.8597 336.874 29.6918C338.33 29.2889 340.174 29.9035 340.726 31.4013C341.374 30.3751 342.482 29.5561 343.74 29.5678C344.696 29.6042 345.759 29.8802 346.349 30.6918C346.864 31.4466 346.975 32.3926 347.018 33.2831C347.049 34.9152 347.003 36.5488 347.041 38.1823C346.782 38.1984 346.526 38.2072 346.276 38.213C346.256 36.5225 346.308 34.8291 346.249 33.14C346.167 32.1575 345.921 30.9532 344.918 30.5108C343.223 29.7444 341.068 31.1517 341.027 32.9867C341.043 34.7181 341.014 36.4524 341.045 38.1838C340.787 38.1984 340.531 38.2057 340.28 38.2115C340.272 36.5707 340.301 34.9298 340.266 33.2904C340.193 32.324 340.02 31.1648 339.118 30.613C337.713 29.8057 335.783 30.6568 335.225 32.1167C335.161 34.1415 335.218 36.1721 335.197 38.1999C334.949 38.1926 334.707 38.1838 334.465 38.1736C334.484 35.4057 334.474 32.6378 334.47 29.8699C334.708 29.8641 334.947 29.8568 335.195 29.8495C335.195 30.1459 335.196 30.4437 335.206 30.7415Z" fill="black"/>
<path opacity="0.76" d="M212.249 43.1665C214.155 41.9913 216.747 42.1548 218.604 43.349C218.427 43.6015 218.247 43.8497 218.08 44.1066C216.896 43.3052 215.381 43.0132 213.986 43.3285C213.229 43.5198 212.432 43.9285 212.125 44.6891C211.795 45.4847 211.895 46.5665 212.634 47.1052C213.183 47.4731 213.827 47.6731 214.469 47.8161C215.707 48.0424 216.982 48.3066 218.064 48.9796C219.467 50.0993 219.356 52.6001 217.872 53.6117C217.012 54.2103 215.953 54.492 214.911 54.4906C213.322 54.5081 211.658 54.0453 210.495 52.9212C210.668 52.6482 210.861 52.3884 211.074 52.1446C211.927 53.1037 213.221 53.5563 214.48 53.622C215.423 53.6833 216.426 53.5227 217.202 52.9519C218.331 52.1052 218.284 49.9709 216.924 49.3796C215.29 48.6366 213.337 48.803 211.844 47.7256C210.412 46.6001 210.702 44.0672 212.249 43.1665Z" fill="#BFBFBF"/>
<path opacity="0.76" d="M234.742 42.562C236.083 42.2292 237.568 42.3664 238.775 43.0598C240.093 43.8277 240.888 45.2657 241.185 46.727C241.449 48.1285 241.412 49.6058 240.97 50.9679C240.535 52.3051 239.601 53.5445 238.267 54.0832C236.331 54.8701 233.829 54.5445 232.431 52.9022C231.237 51.5387 230.861 49.6496 230.967 47.8861C231.035 46.5255 231.453 45.1504 232.324 44.0847C232.927 43.3226 233.799 42.7941 234.742 42.562ZM235.345 43.3182C234.385 43.4744 233.493 44.0277 232.952 44.8365C232.177 45.9285 231.944 47.3051 231.964 48.6175C231.999 49.9241 232.308 51.2934 233.177 52.3095C234.637 54.0963 237.774 54.0744 239.197 52.254C240.048 51.1941 240.321 49.8 240.341 48.4715C240.332 47.108 240.046 45.6774 239.162 44.5985C238.275 43.4817 236.717 43.0496 235.345 43.3182Z" fill="#BFBFBF"/>
<path opacity="0.76" d="M253.923 42.5854C256.011 42.5825 258.1 42.584 260.188 42.5854C260.185 42.8657 260.185 43.1475 260.186 43.4292C258.437 43.4321 256.686 43.4292 254.937 43.4307C254.925 44.9606 254.944 46.4891 254.926 48.019C256.526 48.0409 258.127 48.0234 259.728 48.0292C259.722 48.3124 259.721 48.5956 259.719 48.8789C258.122 48.8905 256.524 48.8511 254.928 48.8993C254.938 50.7008 254.935 52.5037 254.929 54.3051C254.594 54.3051 254.26 54.3051 253.931 54.3051C253.912 50.3986 253.926 46.492 253.923 42.5854Z" fill="#BFBFBF"/>
<path opacity="0.76" d="M271.636 43.4394C271.606 43.1504 271.604 42.8599 271.641 42.5723C274.5 42.6 277.358 42.5752 280.217 42.5839C280.214 42.8657 280.213 43.1474 280.217 43.4292C278.953 43.4292 277.69 43.4336 276.428 43.4277C276.411 47.054 276.428 50.6803 276.419 54.3066C276.081 54.3051 275.746 54.3051 275.414 54.2949C275.412 50.6788 275.405 47.0628 275.416 43.4482C274.156 43.4117 272.895 43.4307 271.636 43.4394Z" fill="#BFBFBF"/>
<path opacity="0.76" d="M291.422 42.5854C291.78 42.584 292.14 42.5825 292.503 42.5854C293.49 45.8862 294.444 49.1971 295.432 52.4964C296.343 49.3591 297.233 46.2161 298.126 43.0745C298.189 42.9168 298.182 42.711 298.321 42.5942C298.666 42.5752 299.015 42.5869 299.366 42.5971C300.307 45.9051 301.225 49.2205 302.212 52.5139C303.145 49.1956 304.155 45.8993 305.117 42.5883C305.477 42.5825 305.838 42.584 306.204 42.584C305.043 46.4745 303.865 50.3606 302.686 54.2467C302.364 54.3854 301.976 54.2774 301.634 54.2862C300.717 51.0278 299.761 47.7796 298.827 44.5256C297.822 47.7635 296.936 51.0424 295.98 54.2964C295.639 54.3037 295.301 54.3066 294.965 54.3124C293.765 50.4088 292.591 46.4978 291.422 42.5854Z" fill="#BFBFBF"/>
<path opacity="0.76" d="M321.654 42.5854C322 42.584 322.346 42.584 322.698 42.5811C324.124 46.4847 325.547 50.3898 326.949 54.3022C326.599 54.3051 326.254 54.3051 325.911 54.3037C325.516 53.2292 325.143 52.146 324.745 51.0716C323.03 51.0759 321.316 51.0657 319.603 51.0774C319.215 52.1533 318.834 53.2322 318.441 54.3051C318.091 54.3066 317.744 54.3051 317.4 54.2935C318.815 50.3898 320.228 46.4862 321.654 42.5854ZM322.149 43.8964C321.423 46.0132 320.639 48.1124 319.881 50.219C321.41 50.2176 322.936 50.2219 324.466 50.2161C323.689 48.111 322.983 45.9781 322.149 43.8964Z" fill="#BFBFBF"/>
<path opacity="0.76" d="M339.064 42.5854C340.575 42.5869 342.086 42.5606 343.596 42.5985C344.809 42.6102 345.94 43.416 346.352 44.5518C346.836 45.9007 346.775 47.5358 345.912 48.7212C345.484 49.3197 344.79 49.6204 344.109 49.8277C345.094 51.3036 346.05 52.8 347 54.2993C346.608 54.3124 346.22 54.308 345.835 54.2861C344.951 52.819 344 51.3912 343.115 49.9255C342.105 49.8847 341.096 49.9168 340.087 49.908C340.084 51.3708 340.09 52.835 340.086 54.2993C339.745 54.3051 339.406 54.3051 339.073 54.3007C339.052 50.3956 339.068 46.4905 339.064 42.5854ZM340.1 43.4029C340.071 45.289 340.093 47.1737 340.087 49.0598C341.21 49.054 342.333 49.073 343.456 49.0525C344.331 49.0482 345.134 48.435 345.412 47.6146C345.747 46.6438 345.734 45.527 345.281 44.5942C344.956 43.9139 344.246 43.4686 343.498 43.4292C342.365 43.3825 341.232 43.435 340.1 43.4029Z" fill="#BFBFBF"/>
<path opacity="0.76" d="M359.493 42.5854C361.661 42.5825 363.83 42.5854 366 42.584V43.4307C364.167 43.4322 362.336 43.4278 360.504 43.4322C360.5 44.8979 360.501 46.3635 360.503 47.8292C362.188 47.8365 363.871 47.8249 365.556 47.8351C365.553 48.1154 365.553 48.3942 365.556 48.676C363.871 48.6876 362.188 48.6745 360.504 48.6833C360.492 50.2599 360.519 51.8365 360.49 53.4146C362.325 53.4672 364.163 53.4234 366 53.438V54.3051C363.832 54.3051 361.665 54.3051 359.498 54.3051C359.484 50.3986 359.494 46.492 359.493 42.5854Z" fill="#BFBFBF"/>
</g>
<defs>
<clipPath id="clip0_11_5502">
<rect width="366" height="60" fill="white"/>
</clipPath>
</defs>
</svg>
