<svg width="168" height="40" viewBox="0 0 168 40" fill="none" xmlns="http://www.w3.org/2000/svg">
<g opacity="0.5">
<path d="M26.9918 14.688H23.8801C23.6676 14.688 23.4866 14.8427 23.4534 15.0528L22.195 23.0309C22.17 23.1883 22.2919 23.3302 22.4507 23.3302H24.0475C24.1958 23.3302 24.3227 23.2219 24.3459 23.0745L24.703 20.8131C24.7358 20.6025 24.9173 20.4478 25.1298 20.4478H26.1142C28.1641 20.4478 29.3465 19.4561 29.6558 17.4908C29.7955 16.631 29.6613 15.9554 29.2587 15.4823C28.8169 14.9628 28.0331 14.688 26.9918 14.688ZM27.3507 17.6018C27.181 18.7182 26.328 18.7182 25.5028 18.7182H25.0338L25.3636 16.6332C25.3832 16.5072 25.4914 16.4144 25.6193 16.4144H25.8344C26.3958 16.4144 26.9263 16.4144 27.2001 16.7347C27.3634 16.9258 27.413 17.2096 27.3507 17.6018Z" fill="#179BD7"/>
<path d="M36.2913 17.5659H34.8023C34.6745 17.5659 34.5658 17.6587 34.5466 17.7847L34.4807 18.2014L34.3761 18.0504C34.0535 17.5823 33.3347 17.4258 32.6169 17.4258C30.9705 17.4258 29.5648 18.6727 29.2909 20.4219C29.149 21.2945 29.3505 22.1288 29.8455 22.7106C30.3004 23.2456 30.9491 23.4685 31.722 23.4685C33.0486 23.4685 33.7842 22.6156 33.7842 22.6156L33.7178 23.0295C33.6928 23.1879 33.8147 23.3298 33.9744 23.3298H35.3159C35.5284 23.3298 35.7094 23.1751 35.7426 22.9645L36.5483 17.8652C36.5729 17.7083 36.451 17.5659 36.2913 17.5659ZM34.2146 20.4656C34.0717 21.3168 33.3952 21.8881 32.5336 21.8881C32.1019 21.8881 31.7552 21.7494 31.5332 21.4864C31.313 21.2253 31.2302 20.8536 31.2994 20.4397C31.4345 19.5958 32.1205 19.0057 32.969 19.0057C33.392 19.0057 33.736 19.1463 33.9625 19.4115C34.1904 19.6795 34.2805 20.0534 34.2146 20.4656Z" fill="#179BD7"/>
<path d="M38.0478 14.9068L36.7708 23.0308C36.7458 23.1882 36.8677 23.3302 37.0265 23.3302H38.3103C38.5237 23.3302 38.7047 23.1755 38.7375 22.9649L39.9967 14.9873C40.0217 14.8299 39.8998 14.6875 39.741 14.6875H38.3035C38.1766 14.688 38.0674 14.7808 38.0478 14.9068Z" fill="#179BD7"/>
<path d="M4.79999 14.688H1.68876C1.47586 14.688 1.2948 14.8427 1.26159 15.0528L0.00326619 23.0309C-0.0217547 23.1883 0.100165 23.3302 0.259843 23.3302H1.74517C1.95808 23.3302 2.13914 23.1755 2.17235 22.9649L2.51172 20.8131C2.54448 20.6025 2.72599 20.4478 2.93844 20.4478H3.92335C5.97279 20.4478 7.15559 19.4561 7.46449 17.4908C7.60369 16.631 7.4704 15.9554 7.06779 15.4823C6.6256 14.9628 5.84131 14.688 4.79999 14.688ZM5.15893 17.6018C4.98879 18.7182 4.1358 18.7182 3.31102 18.7182H2.84154L3.17091 16.6332C3.19047 16.5072 3.29965 16.4144 3.42703 16.4144H3.64221C4.20404 16.4144 4.73403 16.4144 5.00789 16.7347C5.17121 16.9258 5.22125 17.2096 5.15893 17.6018Z" fill="#253B80"/>
<path d="M14.1001 17.5659H12.6102C12.4833 17.5659 12.3737 17.6587 12.3541 17.7847L12.2882 18.2014L12.184 18.0504C11.8614 17.5823 11.1422 17.4258 10.4243 17.4258C8.77795 17.4258 7.37178 18.6727 7.09791 20.4219C6.95552 21.2945 7.15796 22.1288 7.65292 22.7106C8.10694 23.2456 8.75657 23.4685 9.52949 23.4685C10.856 23.4685 11.5917 22.6156 11.5917 22.6156L11.5252 23.0295C11.5002 23.1879 11.6221 23.3298 11.7809 23.3298H13.1229C13.3363 23.3298 13.5164 23.1751 13.5501 22.9645L14.3553 17.8652C14.3808 17.7083 14.2593 17.5659 14.1001 17.5659ZM12.0234 20.4656C11.8796 21.3168 11.2041 21.8881 10.3424 21.8881C9.9098 21.8881 9.56406 21.7494 9.34206 21.4864C9.12187 21.2253 9.03817 20.8536 9.10823 20.4397C9.24243 19.5958 9.92937 19.0057 10.7778 19.0057C11.2009 19.0057 11.5448 19.1463 11.7714 19.4115C11.9984 19.6795 12.0884 20.0534 12.0234 20.4656Z" fill="#253B80"/>
<path d="M22.0349 17.5659H20.5378C20.3949 17.5659 20.2607 17.6369 20.1797 17.7556L18.1148 20.7972L17.2395 17.8744C17.1845 17.6915 17.0157 17.5659 16.8247 17.5659H15.3534C15.1746 17.5659 15.0504 17.7406 15.1073 17.9089L16.7564 22.7484L15.206 24.9371C15.0841 25.1095 15.2069 25.3465 15.4176 25.3465H16.9129C17.0548 25.3465 17.1877 25.2773 17.2682 25.1609L22.2478 17.9731C22.367 17.8011 22.2446 17.5659 22.0349 17.5659Z" fill="#253B80"/>
<path d="M89.4085 10.2983H78.5923V29.7353H89.4085V10.2983Z" fill="#FF5F00"/>
<path d="M79.279 20.0176C79.2772 18.1456 79.7014 16.2979 80.5194 14.6141C81.3374 12.9304 82.5277 11.4548 84.0002 10.2991C82.1767 8.86575 79.9867 7.97437 77.6805 7.72685C75.3743 7.47932 73.045 7.88564 70.9588 8.89935C68.8726 9.91307 67.1137 11.4933 65.8831 13.4594C64.6526 15.4255 64 17.6981 64 20.0176C64 22.337 64.6526 24.6097 65.8831 26.5758C67.1137 28.5418 68.8726 30.1221 70.9588 31.1358C73.045 32.1495 75.3743 32.5558 77.6805 32.3083C79.9867 32.0608 82.1767 31.1694 84.0002 29.736C82.5277 28.5803 81.3374 27.1047 80.5194 25.421C79.7014 23.7372 79.2773 21.8895 79.279 20.0176Z" fill="#EB001B"/>
<path d="M104 20.0176C104 22.337 103.348 24.6096 102.117 26.5757C100.887 28.5418 99.1278 30.122 97.0416 31.1357C94.9555 32.1495 92.6262 32.5558 90.32 32.3083C88.0139 32.0608 85.8239 31.1694 84.0004 29.736C85.4716 28.5791 86.661 27.1033 87.4788 25.4198C88.2967 23.7364 88.7216 21.8892 88.7216 20.0176C88.7216 18.1459 88.2967 16.2988 87.4788 14.6153C86.661 12.9318 85.4716 11.456 84.0004 10.2991C85.8239 8.86575 88.0139 7.97437 90.32 7.72685C92.6262 7.47932 94.9555 7.88565 97.0416 8.89937C99.1278 9.9131 100.887 11.4933 102.117 13.4594C103.348 15.4255 104 17.6981 104 20.0176Z" fill="#F79E1B"/>
<path d="M102.821 27.6771V27.2791H102.981V27.1981H102.573V27.2791H102.733V27.6771H102.821ZM103.614 27.6771V27.1973H103.489L103.345 27.5273L103.201 27.1973H103.075V27.6771H103.164V27.3152L103.299 27.6272H103.391L103.526 27.3144V27.6771H103.614Z" fill="#F79E1B"/>
<path d="M147.805 13.7438L145.133 26.2375H141.901L144.573 13.7438H147.805ZM161.404 21.8111L163.105 17.1195L164.084 21.8111H161.404ZM165.011 26.2375H168L165.389 13.7438H162.632C162.011 13.7438 161.487 14.104 161.255 14.6596L156.405 26.2375H159.8L160.474 24.3716H164.62L165.011 26.2375ZM156.574 22.1587C156.588 18.8614 152.015 18.6788 152.046 17.2055C152.056 16.7578 152.483 16.281 153.416 16.159C153.879 16.0995 155.156 16.0511 156.604 16.7182L157.17 14.0678C156.393 13.7865 155.392 13.5156 154.147 13.5156C150.952 13.5156 148.704 15.2129 148.686 17.6453C148.666 19.444 150.292 20.4469 151.514 21.046C152.775 21.6583 153.197 22.0508 153.191 22.5979C153.182 23.4362 152.186 23.8074 151.258 23.8214C149.632 23.8467 148.69 23.3819 147.939 23.0318L147.352 25.7707C148.108 26.1169 149.502 26.4182 150.945 26.4336C154.342 26.4336 156.563 24.7563 156.574 22.1587ZM143.187 13.7438L137.95 26.2375H134.534L131.956 16.2666C131.8 15.6535 131.664 15.4281 131.189 15.169C130.411 14.747 129.128 14.3522 128 14.1066L128.076 13.7438H133.576C134.277 13.7438 134.907 14.21 135.068 15.017L136.429 22.2472L139.791 13.7438H143.187Z" fill="#1434CB"/>
</g>
</svg>
