<svg width="294" height="40" viewBox="0 0 294 40" fill="none" xmlns="http://www.w3.org/2000/svg">
<g clip-path="url(#clip0_202_4778)">
<path d="M21.81 18.2842L11.08 18L14.81 22.1474L21.81 21.9579V18.2842Z" fill="#CC0000"/>
<path d="M20.17 28.1263L21.81 27.9263V24.4L17.08 24.6737L20.17 28.1263Z" fill="#CC0000"/>
<path d="M0 30.3368L17.39 28.4211L14.04 24.8737L0 25.7263V30.3368Z" fill="#CC0000"/>
<path d="M7.51 17.9053L0 17.7053V22.5368L11.57 22.2421L7.51 17.9053Z" fill="#CC0000"/>
<path d="M8.41002 15.0316L21.81 15.8421V12.2948L4.21002 10.3579L8.41002 15.0316Z" fill="#CC0000"/>
<path d="M0 9.90526V14.5158L4.59 14.7895L0 9.90526Z" fill="#CC0000"/>
<path d="M22.75 30.5263C23.0414 30.4269 23.2917 30.2254 23.4591 29.9553C23.6265 29.6852 23.7009 29.3629 23.67 29.0421V11.1474C23.7009 10.8265 23.6265 10.5043 23.4591 10.2342C23.2917 9.96412 23.0414 9.76258 22.75 9.66316L0 6.31579V3.28421C2.58 1.34737 8 0 14.34 0C20.68 0 26.1 1.34737 28.67 3.28421V36.9684C26.09 38.9053 20.67 40.2526 14.33 40.2526C7.99 40.2526 2.58 38.9474 0 36.9579V33.9474L22.75 30.5263Z" fill="#CC0000"/>
<path d="M39.51 26.5579V22.4737C39.51 19.4632 39.59 14.6737 40.83 11.6632C43.8874 10.0071 47.3474 9.35793 50.76 9.79999C50.9928 11.1387 50.7508 12.5208 50.08 13.6842C48.2068 13.3633 46.2854 13.6229 44.55 14.4316C43.9794 16.9327 43.7272 19.5026 43.8 22.0737V30.4316C42.5166 30.6703 41.2034 30.6703 39.92 30.4316C39.5745 29.1744 39.4358 27.8643 39.51 26.5579Z" fill="black"/>
<path d="M61.79 22.6737C59.7822 22.6991 57.7758 22.5547 55.79 22.2421V23.9895C55.79 27.0842 58.65 27.2421 61.06 27.2421C63.1195 27.223 65.1638 26.8679 67.12 26.1895C67.4239 26.593 67.6442 27.059 67.7665 27.5576C67.8888 28.0562 67.9104 28.5763 67.83 29.0842C65.5253 30.4196 62.9305 31.1015 60.3 31.0632C55.63 31.0632 51.49 29.8737 51.49 24.0947V21.4105C51.4834 18.1003 52.0318 14.8149 53.11 11.7053C55.3155 10.389 57.7954 9.66588 60.33 9.60001C65.22 9.60001 68.72 11.1895 68.72 16.5684C68.69 18.4928 68.3866 20.4017 67.82 22.2316C65.8192 22.4957 63.8062 22.6433 61.79 22.6737ZM60.32 13.4421C59.0136 13.4671 57.733 13.8285 56.59 14.4947C56.1863 15.8973 55.9479 17.3468 55.88 18.8105C57.3582 19.1903 58.8797 19.3497 60.4 19.2842C61.711 19.3189 63.0218 19.206 64.31 18.9474C64.5201 18.2174 64.6214 17.4574 64.61 16.6947C64.61 13.9579 62.5 13.4526 60.32 13.4526V13.4421Z" fill="black"/>
<path d="M153 22.6737C150.992 22.6991 148.986 22.5547 147 22.2421V23.9895C147 27.0842 149.86 27.2421 152.27 27.2421C154.33 27.223 156.374 26.8679 158.33 26.1895C158.634 26.593 158.854 27.059 158.977 27.5576C159.099 28.0562 159.12 28.5763 159.04 29.0842C156.735 30.4196 154.141 31.1015 151.51 31.0632C146.84 31.0632 142.7 29.8737 142.7 24.0947V21.4105C142.693 18.1003 143.242 14.8149 144.32 11.7053C146.526 10.389 149.005 9.66588 151.54 9.60001C156.43 9.60001 159.93 11.1895 159.93 16.5684C159.9 18.4928 159.597 20.4017 159.03 22.2316C157.029 22.4957 155.016 22.6433 153 22.6737ZM151.53 13.4421C150.224 13.4671 148.943 13.8285 147.8 14.4947C147.396 15.8973 147.158 17.3468 147.09 18.8105C148.568 19.1903 150.09 19.3497 151.61 19.2842C152.922 19.312 154.233 19.192 155.52 18.9263C155.73 18.1963 155.831 17.4364 155.82 16.6737C155.86 13.9579 153.75 13.4526 151.57 13.4526L151.53 13.4421Z" fill="black"/>
<path d="M141.11 27.5053C140.32 27.5895 140.04 27.6 139.77 27.6C137.59 27.6 135.33 27.4632 135.33 24.2737V14.3158H140.22C140.599 13.0662 140.599 11.7233 140.22 10.4737H135.33V5.41052C134.075 5.03373 132.745 5.03373 131.49 5.41052C131.149 7.34313 131.012 9.30938 131.08 11.2737V24.5368C131.08 29.8 134.81 30.9579 136.95 31.0105C138.55 31.1183 140.152 30.8336 141.63 30.1789C141.728 29.7109 141.728 29.2259 141.63 28.7579C141.613 28.2863 141.427 27.839 141.11 27.5053Z" fill="black"/>
<path d="M99.77 9.56842C97.1787 9.65815 94.6423 10.3787 92.36 11.6737C91.16 14.6316 91 19.3895 91 22.4V24.1053C91 29.8842 95 31.0737 99.54 31.0737C101.12 31.0644 102.677 30.6718 104.09 29.9263C104.097 31.5032 103.908 33.0743 103.53 34.6C102.238 35.1962 100.84 35.4942 99.43 35.4737C97.2394 35.5238 95.062 35.1048 93.03 34.2421C92.3026 35.234 91.8369 36.4105 91.68 37.6526C94.1202 38.8315 96.7863 39.4007 99.47 39.3158C102.191 39.4008 104.878 38.6707 107.22 37.2105C108.037 34.0084 108.441 30.705 108.42 27.3895V16.5368C108.47 10.9158 104.63 9.56842 99.77 9.56842ZM104.21 26.0632C102.843 26.8045 101.328 27.1913 99.79 27.1913C98.2523 27.1913 96.7369 26.8045 95.37 26.0632V14.4842C96.7369 13.7428 98.2523 13.356 99.79 13.356C101.328 13.356 102.843 13.7428 104.21 14.4842V26.0632Z" fill="black"/>
<path d="M119.79 9.56842C117.199 9.65815 114.662 10.3787 112.38 11.6737C111.18 14.6842 111.06 19.4421 111.06 22.4526V24C111.06 29.7474 115.69 30.8947 118.13 30.8947C120.451 30.9552 122.705 30.0689 124.42 28.4211L124.76 30.3579C125.882 30.6555 127.058 30.6555 128.18 30.3579C128.381 28.5305 128.481 26.6923 128.48 24.8526V16.5368C128.49 10.9158 124.65 9.56842 119.79 9.56842ZM124.19 25.0947C122.935 26.1642 121.384 26.7772 119.77 26.8421C118.223 26.943 116.682 26.5505 115.35 25.7158V14.5158C116.717 13.7744 118.232 13.3876 119.77 13.3876C121.308 13.3876 122.823 13.7744 124.19 14.5158V25.0947Z" fill="black"/>
<path d="M88 1.16842C86.722 0.871472 85.3979 0.871472 84.12 1.16842V10.6421C82.7981 9.80125 81.2601 9.41492 79.72 9.53684C77.1374 9.62104 74.6096 10.3421 72.34 11.6421C71.29 14.2526 71.06 18.3789 71.02 21.1895V24.1053C71.02 29.8842 75.02 31.0737 79.71 31.0737C82.333 31.1322 84.9175 30.4019 87.16 28.9684C88.36 25.8105 88.4 19.7789 88.4 18.5158V5.68421C88.4724 4.16656 88.3377 2.64582 88 1.16842ZM84.27 26.0632C82.9377 26.8978 81.3974 27.2904 79.85 27.1895C78.3024 27.293 76.7613 26.9003 75.43 26.0632V14.4842C76.7622 13.6495 78.3026 13.257 79.85 13.3579C81.3976 13.2544 82.9387 13.6471 84.27 14.4842V26.0632Z" fill="black"/>
</g>
<defs>
<clipPath id="clip0_202_4778">
<rect width="294" height="40" fill="white"/>
</clipPath>
</defs>
</svg>
