<svg width="294" height="40" viewBox="0 0 294 40" fill="none" xmlns="http://www.w3.org/2000/svg">
<path d="M29.7222 0.18765C31.0901 0.183947 32.4593 0.183947 33.8272 0.186416C33.8272 3.05679 33.8259 5.92592 33.8272 8.79629C39.3938 8.79629 44.9593 8.79753 50.5247 8.79629C50.5272 6.97407 50.521 5.15061 50.5272 3.32839C50.5321 2.0395 51.4012 0.823453 52.6099 0.383947C53.2605 0.120984 53.9728 0.192589 54.658 0.183947C54.6642 7.40617 54.658 14.6284 54.6605 21.8506C53.2815 21.8518 51.9037 21.8518 50.5247 21.8506C50.5222 18.5679 50.5309 15.2864 50.5197 12.0037C44.9568 12.0086 39.3926 12.0049 33.8284 12.0062C33.8259 15.2877 33.8284 18.5691 33.8272 21.8518C32.4593 21.8518 31.0901 21.8518 29.7222 21.8518C29.7222 14.6296 29.7234 7.40864 29.7222 0.18765Z" fill="#ED1A33"/>
<path d="M184.537 0.187653C185.472 0.148146 186.484 0.175307 187.27 0.754319C188.242 1.39012 188.712 2.5679 188.706 3.70123C188.694 8.67654 188.719 13.6519 188.693 18.6272C194.015 18.663 199.338 18.6309 204.66 18.6432C204.659 19.7222 204.659 20.8025 204.66 21.8815C197.953 21.8839 191.246 21.8827 184.538 21.8815C184.536 14.6506 184.538 7.41852 184.537 0.187653Z" fill="#ED1A33"/>
<path d="M1.39629 1.14568C1.99629 0.529628 2.84814 0.190122 3.7037 0.186418C6.74937 0.187652 9.79629 0.177776 12.842 0.191356C14.5 0.202467 15.9593 1.68025 15.9531 3.33704C15.9617 9.51852 15.9543 15.7 15.9555 21.8815C14.5778 21.8827 13.2 21.8827 11.8222 21.8815C11.821 15.7309 11.821 9.57901 11.821 3.42716C8.03209 3.41605 4.24073 3.44074 0.451843 3.41481C0.493819 2.57778 0.795053 1.74197 1.39629 1.14568Z" fill="#ED1A33"/>
<path d="M18.4259 3.42592C18.4271 2.34444 18.4222 1.26419 18.4296 0.182709C20.8148 0.187647 23.2 0.182709 25.5864 0.186412C25.5864 1.26542 25.5876 2.34567 25.5852 3.42592C23.1988 3.42468 20.8123 3.42592 18.4259 3.42592Z" fill="#ED1A33"/>
<path d="M60.5753 0.186423C68.0062 0.183954 75.4383 0.185189 82.8704 0.186423C82.8704 1.25556 82.8704 2.32469 82.8704 3.39383C76.4383 3.3963 70.0062 3.39383 63.5753 3.39507C61.9235 3.34815 60.5593 1.81852 60.5753 0.186423Z" fill="#ED1A33"/>
<path d="M92.1679 0.333332C92.9951 0.13827 93.8494 0.241974 94.6901 0.216048C98.3938 0.156789 102.1 0.196295 105.804 0.185184C107.407 0.165431 109.01 0.241974 110.614 0.214813C113.07 0.140739 115.388 2.03457 115.88 4.43086C116.001 4.96173 115.994 5.50864 115.988 6.04938C115.988 9.58765 115.988 13.1272 115.988 16.6654C115.957 18.9444 114.306 21.1198 112.085 21.6864C111.326 21.9173 110.53 21.8259 109.751 21.8827C104.565 21.8815 99.3815 21.8864 94.1963 21.879C93.558 21.8247 92.9086 21.9074 92.2802 21.7568C89.8877 21.2802 87.9691 19.0086 88.0543 16.5432C88.0568 12.8358 88.0568 9.12963 88.0543 5.42222C88.0741 3.06296 89.8444 0.820986 92.1679 0.333332ZM93.6346 3.53704C92.9852 3.77778 92.4481 4.33333 92.2667 5.00617C92.1716 5.34444 92.1901 5.69753 92.1901 6.04444C92.1951 9.54444 92.1864 13.0444 92.1938 16.5444C92.1877 17.6741 93.1938 18.679 94.3247 18.6704C99.4642 18.6765 104.605 18.6741 109.746 18.6704C110.86 18.6926 111.875 17.7309 111.907 16.6148C111.922 15.358 111.91 14.0988 111.912 12.8407C112.002 10.8247 111.877 8.80864 111.914 6.79136C111.88 6.0679 112.035 5.28642 111.68 4.61852C111.348 3.93951 110.637 3.44074 109.874 3.42592C104.853 3.42469 99.8321 3.42716 94.8123 3.42469C94.4173 3.42716 94.0086 3.38889 93.6346 3.53704Z" fill="#ED1A33"/>
<path d="M121.883 6.81975C121.884 4.60864 121.88 2.39629 121.885 0.183945C126.36 0.186414 130.836 0.186414 135.311 0.183945C136.711 0.245673 138.114 0.203698 139.515 0.216043C140.136 0.230858 140.764 0.166661 141.379 0.291352C143.285 0.650611 144.946 2.09259 145.558 3.9358C145.917 4.96913 145.84 6.08148 145.816 7.15678C145.712 8.41111 145.074 9.79259 143.819 10.2457C144.784 10.5049 145.665 11.0951 146.191 11.9568C146.686 12.7309 146.932 13.658 146.884 14.5778C146.84 15.6074 146.99 16.6555 146.753 17.6691C146.332 19.463 144.967 21.0235 143.206 21.6C142.456 21.8691 141.652 21.8691 140.867 21.8518C136.914 21.9111 132.959 21.8716 129.006 21.8827C126.63 21.8765 124.253 21.8938 121.877 21.8741C121.895 18.6963 121.87 15.5173 121.889 12.3395C121.888 11.6432 122.07 10.9383 122.485 10.3716C123.06 9.54074 124.048 9.02592 125.058 9.01481C129.835 9.00987 134.612 9.01357 139.39 9.01234C140.304 9.04444 141.201 8.46049 141.526 7.6037C141.767 6.98641 141.631 6.31481 141.669 5.67036C141.714 4.67036 140.959 3.71728 139.989 3.49629C139.544 3.40123 139.088 3.42839 138.637 3.42469C134.433 3.42592 130.228 3.42469 126.023 3.42592C126.112 4.80493 125.231 6.18641 123.92 6.64073C123.272 6.9074 122.563 6.80246 121.883 6.81975ZM126.02 12.2531C126.017 14.3827 126.019 16.5123 126.019 18.642C130.846 18.642 135.673 18.6432 140.5 18.6407C141.29 18.6543 142.056 18.2136 142.449 17.5284C142.928 16.7086 142.686 15.7197 142.749 14.8197C142.817 13.9951 142.496 13.121 141.79 12.6531C141.174 12.1864 140.362 12.2593 139.635 12.2531C135.096 12.2531 130.558 12.2531 126.02 12.2531Z" fill="#ED1A33"/>
<path d="M149.363 21.8815C154.174 14.6494 158.98 7.41481 163.79 0.182709C164.789 0.187647 165.788 0.185178 166.786 0.183943C171.569 7.41357 176.347 14.6444 181.116 21.8827C180.127 21.8815 179.138 21.8864 178.149 21.8815C177.099 21.8679 176.086 21.2913 175.521 20.4086C174.752 19.2284 174.001 18.0358 173.236 16.8531C171.169 16.8506 169.102 16.8531 167.037 16.8518C166.295 16.842 165.53 16.9185 164.817 16.6642C163.552 16.2407 162.63 14.9518 162.681 13.6111C165.506 13.6111 168.332 13.6136 171.157 13.6099C169.212 10.5568 167.253 7.51234 165.307 4.46049C161.526 10.2667 157.748 16.0765 153.967 21.8827C152.432 21.8827 150.898 21.8839 149.363 21.8815Z" fill="#ED1A33"/>
<path d="M208.951 0.185191C215.719 0.18766 222.485 0.179018 229.252 0.190129C230.531 0.303709 231.852 0.0407464 233.098 0.440746C235.141 1.06667 236.665 3.05186 236.786 5.18025C236.809 6.78766 236.756 8.3963 236.822 10.0037C236.827 12.2259 236.765 14.4457 236.791 16.6679C236.804 19.2815 234.559 21.6161 231.982 21.8407C229.225 21.9136 226.467 21.8716 223.71 21.8827C218.788 21.8827 213.865 21.884 208.944 21.8827C208.904 20.6531 209.669 19.4519 210.786 18.9457C211.273 18.7198 211.811 18.6296 212.347 18.6395C218.352 18.6457 224.357 18.6383 230.362 18.6445C231.517 18.7852 232.641 17.8321 232.709 16.6765C232.754 12.884 232.767 9.08889 232.7 5.2963C232.601 4.35433 231.799 3.54445 230.862 3.4247C224.927 3.42717 218.99 3.4247 213.056 3.42593C213.054 6.35926 213.054 9.2926 213.056 12.2247C213.077 12.7975 213.047 13.3877 212.807 13.9173C212.419 14.8395 211.575 15.5568 210.599 15.7778C210.058 15.9124 209.499 15.8531 208.951 15.863C208.951 10.637 208.951 5.41112 208.951 0.185191Z" fill="#ED1A33"/>
<path d="M60.5876 5.58765C61.4457 5.5642 62.3617 5.54815 63.1185 6.02099C64.1012 6.57901 64.7062 7.67407 64.7309 8.79629C70.4691 8.79629 76.2062 8.79629 81.9444 8.79629C81.9346 9.86913 81.963 10.9432 81.9296 12.016C76.1938 11.9938 70.458 12.0123 64.7222 12.0062C64.7222 14.2074 64.7222 16.4099 64.7222 18.6111C70.7716 18.6123 76.821 18.6099 82.8704 18.6123C82.8704 19.6914 82.8704 20.7716 82.8704 21.8519C75.442 21.8519 68.0148 21.8519 60.5864 21.8519C60.5864 16.4296 60.5852 11.0086 60.5876 5.58765Z" fill="#ED1A33"/>
<path d="M72.6 28.4852C74.4321 28.2272 76.3864 28.6901 77.8123 29.8963C77.4778 30.5259 77.1049 31.137 76.7309 31.7444C75.9 30.9395 74.737 30.5049 73.5877 30.4913C72.9346 30.4951 72.1494 30.7099 71.8901 31.3802C71.6951 31.7654 71.9321 32.2383 72.3284 32.3704C73.7086 32.8975 75.2284 32.9444 76.5926 33.5234C77.3741 33.8617 78 34.5518 78.2222 35.379C78.5284 36.5333 78.1753 37.8444 77.3235 38.6852C76.6617 39.3531 75.7198 39.6543 74.8062 39.7704C72.8111 40.0037 70.7556 39.3827 69.1802 38.1469C69.5222 37.4889 69.8852 36.8432 70.2309 36.1889C71.158 37.0185 72.3321 37.6074 73.5877 37.6852C74.2407 37.7321 74.9395 37.7086 75.5284 37.3876C76.0309 37.116 76.3407 36.4346 76.0691 35.9025C75.9259 35.5951 75.6062 35.4309 75.2975 35.342C73.9321 34.9247 72.4679 34.8555 71.1593 34.2543C70.5704 33.9926 70.0519 33.5309 69.8185 32.9197C69.5173 32.0753 69.5778 31.1099 69.9617 30.3025C70.4593 29.2975 71.5123 28.6543 72.6 28.4852Z" fill="black"/>
<path d="M86.0753 28.437C87.7815 28.3259 89.5407 29.0148 90.6556 30.3247C92.4296 32.437 92.4235 35.8197 90.642 37.9259C89.4704 39.295 87.5889 39.9765 85.8086 39.7741C84.4901 39.6407 83.2148 39.0346 82.3123 38.0605C80.3062 35.8457 80.3716 32.0506 82.5259 29.958C83.479 29.0494 84.7617 28.5086 86.0753 28.437ZM85.3568 30.6839C84.2222 30.9605 83.3222 31.9383 83.0975 33.0778C82.842 34.3185 82.9938 35.7666 83.9136 36.7111C84.6679 37.5185 85.8469 37.7802 86.9148 37.6543C87.7272 37.5741 88.5247 37.2099 89.0519 36.5728C89.7827 35.7259 89.9407 34.5346 89.8099 33.4568C89.7123 32.637 89.3346 31.837 88.6926 31.3062C87.7839 30.537 86.4802 30.4086 85.3568 30.6839Z" fill="black"/>
<path d="M95.4025 28.5494C97.8877 28.5457 100.373 28.5568 102.859 28.5444C102.884 29.2123 102.862 29.8802 102.873 30.5494C101.093 30.5654 99.3111 30.5506 97.5321 30.5568C97.5309 31.3889 97.5296 32.2222 97.5321 33.0555C99.116 33.0555 100.699 33.0543 102.283 33.0568C102.285 33.7037 102.284 34.3518 102.283 35C100.701 34.9988 99.1198 35.0037 97.5383 34.9963C97.521 36.5617 97.5358 38.1259 97.5309 39.6913C96.821 39.6913 96.1111 39.6926 95.4012 39.6901C95.4012 35.9765 95.4 32.263 95.4025 28.5494Z" fill="black"/>
<path d="M105.62 28.5481C108.489 28.5518 111.358 28.5481 114.227 28.5494C114.23 29.1975 114.228 29.8457 114.228 30.4926C113.148 30.495 112.068 30.4926 110.988 30.4938C110.986 33.5592 110.989 36.6259 110.988 39.6913C110.278 39.6913 109.568 39.6926 108.858 39.6901C108.857 36.6259 108.857 33.5605 108.858 30.495C107.778 30.4913 106.698 30.4963 105.617 30.4926C105.617 29.8444 105.614 29.1963 105.62 28.5481Z" fill="black"/>
<path d="M116.806 28.5506C117.585 28.5444 118.365 28.558 119.146 28.5432C120.023 30.9889 120.854 33.4543 121.707 35.9099C122.549 33.4568 123.391 31.0025 124.235 28.5506C124.88 28.5482 125.526 28.5494 126.173 28.5494C127.028 30.9975 127.859 33.4531 128.704 35.9049C129.563 33.4568 130.405 31 131.253 28.5469C132.037 28.5531 132.822 28.5469 133.607 28.5506C132.296 32.2654 130.991 35.9815 129.672 39.6926C129.033 39.6901 128.396 39.6926 127.759 39.6914C126.911 37.2728 126.069 34.8531 125.221 32.4358C124.323 34.8333 123.519 37.2679 122.667 39.6827C122.023 39.7 121.38 39.6889 120.738 39.6901C119.431 35.9753 118.121 32.2617 116.806 28.5506Z" fill="black"/>
<path d="M138.951 28.5506C139.579 28.5494 140.209 28.5482 140.838 28.5506C142.362 32.2691 143.909 35.9778 145.441 39.6926C144.665 39.6914 143.889 39.6901 143.114 39.6926C142.717 38.7482 142.336 37.7988 141.943 36.8519C140.583 36.8482 139.222 36.8605 137.862 36.8457C137.448 37.7864 137.074 38.7432 136.679 39.6914C135.9 39.6926 135.123 39.6901 134.346 39.6926C135.872 35.9753 137.412 32.263 138.951 28.5506ZM138.67 34.8457C139.486 34.8457 140.302 34.8469 141.12 34.8444C140.711 33.763 140.296 32.6827 139.898 31.5975C139.484 32.679 139.078 33.763 138.67 34.8457Z" fill="black"/>
<path d="M148.365 28.5494C149.777 28.5518 151.189 28.5457 152.601 28.5518C153.683 28.5642 154.805 28.9518 155.516 29.7987C156.2 30.5889 156.357 31.7086 156.173 32.7099C155.969 33.6901 155.269 34.5222 154.385 34.9716C155.17 36.5432 155.956 38.1136 156.727 39.6901C155.935 39.6852 155.142 39.7074 154.351 39.679C153.658 38.2494 152.949 36.8271 152.249 35.4012C151.674 35.4012 151.099 35.3987 150.525 35.4024C150.525 36.8321 150.526 38.2605 150.525 39.6901C149.804 39.6926 149.084 39.6926 148.365 39.6901C148.364 35.9765 148.363 32.2629 148.365 28.5494ZM150.526 30.6481C150.523 31.5333 150.523 32.4173 150.525 33.3024C151.175 33.3012 151.825 33.3037 152.475 33.3037C152.928 33.3049 153.41 33.1913 153.749 32.874C154.238 32.4444 154.272 31.595 153.81 31.1358C153.468 30.7778 152.953 30.6407 152.473 30.6457C151.823 30.6494 151.174 30.6481 150.526 30.6481Z" fill="black"/>
<path d="M160.619 28.5481C163.109 28.5518 165.598 28.5469 168.086 28.5506C168.086 29.2185 168.086 29.8864 168.086 30.5555C166.305 30.5592 164.525 30.5494 162.744 30.5605C162.749 31.3913 162.744 32.2234 162.747 33.0555C164.332 33.058 165.916 33.0506 167.5 33.058C167.499 33.7049 167.5 34.3531 167.499 35C165.914 35.0037 164.328 34.9926 162.744 35.0061C162.749 35.8876 162.746 36.7703 162.747 37.6531C164.526 37.6568 166.306 37.6531 168.086 37.6543C168.086 38.3333 168.086 39.0123 168.086 39.6901C165.596 39.6926 163.107 39.6913 160.617 39.6913C160.619 35.9765 160.615 32.2629 160.619 28.5481Z" fill="black"/>
</svg>
