<svg width="294" height="40" viewBox="0 0 294 40" fill="none" xmlns="http://www.w3.org/2000/svg">
<g clip-path="url(#clip0_202_4839)">
<path d="M37.1294 4.74266C36.6711 4.49325 36.0462 4.2854 35.5462 4.20226C35.2129 4.20226 13.9224 0.128498 12.7975 0.0453605C12.2558 0.00379146 11.6725 0.0453605 11.1309 0.128498C1.25644 1.58341 -1.24341 13.5969 6.9228 18.6267C8.83937 19.7906 11.1309 20.2063 13.3391 19.7075C17.2139 18.8761 34.6296 14.5945 35.7545 14.3451C40.5876 13.3059 41.6292 7.11211 37.1294 4.74266Z" fill="url(#paint0_linear_202_4839)"/>
<path d="M37.3378 23.2408C36.5045 22.2847 21.422 5.19984 18.2138 2.41471C17.5889 1.87432 16.8389 1.37549 16.0057 0.918234C14.5057 0.128422 12.7975 -0.16256 11.1309 0.0868533C2.21474 1.45863 -0.701762 11.3936 4.83959 17.0054C5.4229 17.629 22.0053 36.0025 22.1719 36.2103C22.9219 37.1248 23.8385 37.9978 25.0051 38.7045C26.9217 39.9099 29.2549 40.2841 31.5047 39.7853C39.671 37.9562 42.2958 28.7694 37.3378 23.2408Z" fill="url(#paint1_linear_202_4839)"/>
<path d="M34.1713 20.8298C33.838 20.6635 33.5047 20.4972 33.1297 20.3725C32.8381 20.2894 10.4226 13.2226 9.92268 13.098C9.08937 12.8901 8.2144 12.8485 7.38114 12.9732C-0.618418 14.1372 -2.65997 23.9059 3.96466 28.0212C5.50624 28.9773 25.9634 39.2033 26.5051 39.4111C28.0883 39.9931 29.7966 40.1178 31.4631 39.7437C41.0459 37.6652 43.0041 25.444 34.1713 20.8298Z" fill="url(#paint2_linear_202_4839)"/>
<path d="M37.1295 4.74259C36.3796 4.3269 35.5046 4.20219 34.6296 4.3269C34.1713 4.41003 33.7547 4.49317 33.3381 4.65945C31.3798 5.44926 5.71458 13.3058 5.00629 13.6383C-0.951714 16.2157 -1.90999 24.3631 3.96467 28.0213C5.50626 28.9773 7.38115 29.3099 9.21441 28.8942C9.92269 28.7279 10.631 28.5201 11.2143 28.2291C14.3807 26.7326 36.9212 14.0125 37.3795 13.7631C40.7543 11.8093 41.046 6.82103 37.1295 4.74259Z" fill="url(#paint3_linear_202_4839)"/>
<path d="M32 8H8V32H32V8Z" fill="black"/>
<path d="M19.6667 27.8H10.6667V29.3334H19.6667V27.8Z" fill="white"/>
<path d="M20.5715 10.9314H22.5474V18.203H26.4599V19.8629H20.5715V10.9314Z" fill="white"/>
<path d="M10.6686 10.9314H14.1464C16.9522 10.9314 18.8887 12.8679 18.8887 15.3576V15.3971C18.8887 17.9264 16.9522 19.8629 14.1464 19.8629H10.6686V10.9314ZM12.6446 12.7098V18.0845H14.1464C15.7666 18.0845 16.8337 17.0174 16.8337 15.4367V15.3971C16.8337 13.8163 15.7666 12.7098 14.1464 12.7098H12.6446Z" fill="white"/>
</g>
<path d="M70.3636 27H65.4347V12.4545H70.4631C71.9072 12.4545 73.1477 12.7457 74.1847 13.3281C75.2263 13.9058 76.0265 14.7367 76.5852 15.821C77.1439 16.9053 77.4233 18.2027 77.4233 19.7131C77.4233 21.2282 77.1416 22.5303 76.5781 23.6193C76.0194 24.7083 75.2121 25.544 74.1562 26.1264C73.1051 26.7088 71.8409 27 70.3636 27ZM68.0696 24.7202H70.2358C71.2491 24.7202 72.0942 24.5355 72.7713 24.1662C73.4484 23.7921 73.9574 23.2358 74.2983 22.4972C74.6392 21.7538 74.8097 20.8258 74.8097 19.7131C74.8097 18.6004 74.6392 17.6771 74.2983 16.9432C73.9574 16.2045 73.4531 15.6529 72.7855 15.2884C72.1226 14.919 71.2988 14.7344 70.3139 14.7344H68.0696V24.7202ZM82.9524 27.2202C82.2611 27.2202 81.6385 27.0971 81.0845 26.8509C80.5353 26.5999 80.0997 26.2306 79.7777 25.7429C79.4605 25.2552 79.3018 24.6539 79.3018 23.9389C79.3018 23.3234 79.4155 22.8144 79.6428 22.4119C79.87 22.0095 80.1802 21.6875 80.5732 21.446C80.9661 21.2045 81.4089 21.0223 81.9013 20.8991C82.3984 20.7713 82.9122 20.679 83.4425 20.6222C84.0817 20.5559 84.6001 20.4967 84.9979 20.4446C85.3956 20.3878 85.6844 20.3026 85.8643 20.1889C86.049 20.0705 86.1413 19.8883 86.1413 19.642V19.5994C86.1413 19.0644 85.9827 18.6501 85.6655 18.3565C85.3482 18.063 84.8913 17.9162 84.2947 17.9162C83.665 17.9162 83.1655 18.0535 82.7962 18.3281C82.4316 18.6027 82.1854 18.9271 82.0575 19.3011L79.657 18.9602C79.8464 18.2973 80.1589 17.7434 80.5945 17.2983C81.0301 16.8485 81.5627 16.5123 82.1925 16.2898C82.8222 16.0625 83.5182 15.9489 84.2805 15.9489C84.8061 15.9489 85.3293 16.0104 85.8501 16.1335C86.371 16.2566 86.8468 16.4602 87.2777 16.7443C87.7086 17.0237 88.0542 17.4048 88.3146 17.8878C88.5798 18.3707 88.7124 18.9744 88.7124 19.6989V27H86.2408V25.5014H86.1555C85.9993 25.8045 85.7791 26.0885 85.495 26.3537C85.2157 26.6141 84.8629 26.8248 84.4368 26.9858C84.0154 27.142 83.5206 27.2202 82.9524 27.2202ZM83.62 25.331C84.1361 25.331 84.5836 25.2292 84.9624 25.0256C85.3411 24.8172 85.6323 24.5426 85.8359 24.2017C86.0443 23.8608 86.1484 23.4891 86.1484 23.0866V21.8011C86.0679 21.8674 85.9306 21.929 85.7365 21.9858C85.5471 22.0426 85.334 22.0923 85.0973 22.1349C84.8606 22.1776 84.6262 22.2154 84.3942 22.2486C84.1622 22.2817 83.9609 22.3101 83.7905 22.3338C83.407 22.3859 83.0637 22.4711 82.7607 22.5895C82.4576 22.7079 82.2185 22.8736 82.0433 23.0866C81.8681 23.295 81.7805 23.5649 81.7805 23.8963C81.7805 24.3698 81.9534 24.7273 82.299 24.9688C82.6446 25.2102 83.085 25.331 83.62 25.331ZM96.745 16.0909V18.0795H90.4737V16.0909H96.745ZM92.022 13.4773H94.593V23.7188C94.593 24.0644 94.6451 24.3295 94.7493 24.5142C94.8582 24.6941 95.0002 24.8172 95.1754 24.8835C95.3506 24.9498 95.5447 24.983 95.7578 24.983C95.9188 24.983 96.0656 24.9711 96.1982 24.9474C96.3355 24.9238 96.4396 24.9025 96.5107 24.8835L96.9439 26.8935C96.8066 26.9408 96.6101 26.9929 96.3544 27.0497C96.1035 27.1065 95.7957 27.1397 95.4311 27.1491C94.7872 27.1681 94.2071 27.071 93.6911 26.858C93.175 26.6402 92.7654 26.304 92.4624 25.8494C92.1641 25.3949 92.0173 24.8267 92.022 24.1449V13.4773ZM102.034 27.2202C101.343 27.2202 100.721 27.0971 100.167 26.8509C99.6173 26.5999 99.1817 26.2306 98.8597 25.7429C98.5425 25.2552 98.3839 24.6539 98.3839 23.9389C98.3839 23.3234 98.4975 22.8144 98.7248 22.4119C98.9521 22.0095 99.2622 21.6875 99.6552 21.446C100.048 21.2045 100.491 21.0223 100.983 20.8991C101.48 20.7713 101.994 20.679 102.525 20.6222C103.164 20.5559 103.682 20.4967 104.08 20.4446C104.478 20.3878 104.766 20.3026 104.946 20.1889C105.131 20.0705 105.223 19.8883 105.223 19.642V19.5994C105.223 19.0644 105.065 18.6501 104.748 18.3565C104.43 18.063 103.973 17.9162 103.377 17.9162C102.747 17.9162 102.248 18.0535 101.878 18.3281C101.514 18.6027 101.267 18.9271 101.14 19.3011L98.739 18.9602C98.9284 18.2973 99.2409 17.7434 99.6765 17.2983C100.112 16.8485 100.645 16.5123 101.275 16.2898C101.904 16.0625 102.6 15.9489 103.363 15.9489C103.888 15.9489 104.411 16.0104 104.932 16.1335C105.453 16.2566 105.929 16.4602 106.36 16.7443C106.791 17.0237 107.136 17.4048 107.397 17.8878C107.662 18.3707 107.794 18.9744 107.794 19.6989V27H105.323V25.5014H105.238C105.081 25.8045 104.861 26.0885 104.577 26.3537C104.298 26.6141 103.945 26.8248 103.519 26.9858C103.097 27.142 102.603 27.2202 102.034 27.2202ZM102.702 25.331C103.218 25.331 103.666 25.2292 104.044 25.0256C104.423 24.8172 104.714 24.5426 104.918 24.2017C105.126 23.8608 105.23 23.4891 105.23 23.0866V21.8011C105.15 21.8674 105.013 21.929 104.819 21.9858C104.629 22.0426 104.416 22.0923 104.179 22.1349C103.943 22.1776 103.708 22.2154 103.476 22.2486C103.244 22.2817 103.043 22.3101 102.873 22.3338C102.489 22.3859 102.146 22.4711 101.843 22.5895C101.54 22.7079 101.301 22.8736 101.125 23.0866C100.95 23.295 100.863 23.5649 100.863 23.8963C100.863 24.3698 101.035 24.7273 101.381 24.9688C101.727 25.2102 102.167 25.331 102.702 25.331ZM112.951 12.4545V27H110.38V12.4545H112.951ZM120.353 27.2131C119.288 27.2131 118.364 26.9787 117.583 26.5099C116.802 26.0412 116.196 25.3854 115.765 24.5426C115.339 23.6998 115.126 22.715 115.126 21.5881C115.126 20.4612 115.339 19.474 115.765 18.6264C116.196 17.7789 116.802 17.1207 117.583 16.652C118.364 16.1832 119.288 15.9489 120.353 15.9489C121.418 15.9489 122.342 16.1832 123.123 16.652C123.904 17.1207 124.508 17.7789 124.934 18.6264C125.365 19.474 125.58 20.4612 125.58 21.5881C125.58 22.715 125.365 23.6998 124.934 24.5426C124.508 25.3854 123.904 26.0412 123.123 26.5099C122.342 26.9787 121.418 27.2131 120.353 27.2131ZM120.367 25.1534C120.945 25.1534 121.428 24.9948 121.816 24.6776C122.204 24.3556 122.493 23.9247 122.683 23.3849C122.877 22.8452 122.974 22.2438 122.974 21.581C122.974 20.9134 122.877 20.3097 122.683 19.7699C122.493 19.2254 122.204 18.7921 121.816 18.4702C121.428 18.1482 120.945 17.9872 120.367 17.9872C119.775 17.9872 119.283 18.1482 118.89 18.4702C118.502 18.7921 118.21 19.2254 118.016 19.7699C117.827 20.3097 117.732 20.9134 117.732 21.581C117.732 22.2438 117.827 22.8452 118.016 23.3849C118.21 23.9247 118.502 24.3556 118.89 24.6776C119.283 24.9948 119.775 25.1534 120.367 25.1534ZM127.762 27V16.0909H130.255V17.9091H130.369C130.568 17.2794 130.909 16.794 131.392 16.4531C131.879 16.1075 132.436 15.9347 133.061 15.9347C133.203 15.9347 133.361 15.9418 133.537 15.956C133.717 15.9654 133.866 15.982 133.984 16.0057V18.3707C133.875 18.3329 133.702 18.2997 133.466 18.2713C133.234 18.2382 133.009 18.2216 132.791 18.2216C132.322 18.2216 131.901 18.3234 131.527 18.527C131.157 18.7259 130.866 19.0028 130.653 19.358C130.44 19.7131 130.333 20.1226 130.333 20.5866V27H127.762ZM140.072 27.2131C138.979 27.2131 138.034 26.9858 137.239 26.5312C136.448 26.072 135.839 25.4233 135.413 24.5852C134.987 23.7424 134.774 22.7505 134.774 21.6094C134.774 20.4872 134.987 19.5024 135.413 18.6548C135.844 17.8026 136.446 17.1397 137.217 16.6662C137.989 16.188 138.896 15.9489 139.938 15.9489C140.61 15.9489 141.244 16.0578 141.841 16.2756C142.442 16.4886 142.973 16.8201 143.432 17.2699C143.896 17.7197 144.26 18.2926 144.526 18.9886C144.791 19.6799 144.923 20.5038 144.923 21.4602V22.2486H135.982V20.5156H142.459C142.454 20.0232 142.348 19.5852 142.139 19.2017C141.931 18.8134 141.64 18.508 141.266 18.2855C140.896 18.063 140.465 17.9517 139.973 17.9517C139.447 17.9517 138.986 18.0795 138.588 18.3352C138.19 18.5862 137.88 18.9176 137.658 19.3295C137.44 19.7367 137.329 20.1842 137.324 20.6719V22.1847C137.324 22.8191 137.44 23.3636 137.672 23.8182C137.904 24.268 138.228 24.6136 138.645 24.8551C139.062 25.0919 139.549 25.2102 140.108 25.2102C140.482 25.2102 140.821 25.1581 141.124 25.054C141.427 24.9451 141.689 24.7865 141.912 24.5781C142.134 24.3698 142.303 24.1117 142.416 23.804L144.817 24.0739C144.665 24.7083 144.376 25.2623 143.95 25.7358C143.529 26.2045 142.989 26.5691 142.331 26.8295C141.673 27.0852 140.92 27.2131 140.072 27.2131Z" fill="#111111"/>
<defs>
<linearGradient id="paint0_linear_202_4839" x1="12.2343" y1="9.92" x2="36.504" y2="14.768" gradientUnits="userSpaceOnUse">
<stop offset="0.242" stop-color="#3BEA62"/>
<stop offset="0.857" stop-color="#FCF84A"/>
</linearGradient>
<linearGradient id="paint1_linear_202_4839" x1="9.63543" y1="2.80686" x2="32.8674" y2="38.2234" gradientUnits="userSpaceOnUse">
<stop offset="0.018" stop-color="#3BEA62"/>
<stop offset="0.786" stop-color="#087CFA"/>
</linearGradient>
<linearGradient id="paint2_linear_202_4839" x1="9.31143" y1="22.4857" x2="38.8149" y2="33.1663" gradientUnits="userSpaceOnUse">
<stop offset="0.121" stop-color="#1FAEB5"/>
<stop offset="0.975" stop-color="#087CFA"/>
</linearGradient>
<linearGradient id="paint3_linear_202_4839" x1="0.820006" y1="24.144" x2="38.92" y2="7.21885" gradientUnits="userSpaceOnUse">
<stop offset="0.121" stop-color="#1FAEB5"/>
<stop offset="0.856" stop-color="#FCF84A"/>
</linearGradient>
<clipPath id="clip0_202_4839">
<rect width="40" height="40" fill="white"/>
</clipPath>
</defs>
</svg>
