<svg width="1600" height="1158" viewBox="0 0 1600 1158" fill="none" xmlns="http://www.w3.org/2000/svg">
<mask id="mask0_4_2517" style="mask-type:alpha" maskUnits="userSpaceOnUse" x="0" y="0" width="1600" height="1158">
<rect width="1600" height="1158" fill="#F7F8FB"/>
</mask>
<g mask="url(#mask0_4_2517)">
<g opacity="0.3">
<path d="M1172.59 814.99C1173.29 814.27 1174.42 814.264 1175.14 814.959C1175.38 815.195 1175.52 815.466 1175.62 815.752L1299.32 787.683L1243.52 760.058C1243.47 760.174 1243.38 760.299 1243.27 760.386C1242.56 761.125 1241.43 761.131 1240.71 760.436C1239.99 759.741 1239.98 758.594 1240.68 757.874C1241.25 757.276 1242.16 757.171 1242.86 757.57L1307.58 675.393C1307.57 675.379 1307.53 675.36 1307.52 675.331C1306.81 674.636 1306.79 673.489 1307.49 672.77C1308.18 672.05 1309.32 672.043 1310.04 672.739C1310.76 673.434 1310.78 674.576 1310.09 675.296C1310.04 675.344 1309.96 675.402 1309.91 675.436L1366.43 753.881L1366.61 754.152L1376.33 767.637C1376.74 767.37 1377.19 767.213 1377.66 767.179L1377.86 767.158C1378.05 767.156 1378.24 767.187 1378.44 767.214L1378.65 767.255C1379.07 767.38 1379.49 767.619 1379.84 767.945C1380.64 768.726 1380.88 769.842 1380.54 770.854L1388.34 774.641L1388.53 774.735L1427.05 793.464L1427.24 793.558L1435.31 797.491C1435.38 797.356 1435.48 797.226 1435.59 797.105C1435.78 796.912 1436.02 796.766 1436.26 796.682L1436.45 796.618C1436.55 796.584 1436.66 796.578 1436.75 796.563L1436.96 796.556C1437.38 796.571 1437.8 796.743 1438.14 797.06C1438.69 797.604 1438.83 798.406 1438.53 799.083L1504.34 832.241L1555.41 812.81C1555.21 812.191 1555.34 811.506 1555.83 811.004C1556.52 810.284 1557.65 810.278 1558.37 810.973C1559.07 811.644 1559.1 812.705 1558.5 813.424L1583.02 836.308L1604.09 829.217C1603.97 828.635 1604.12 828.008 1604.57 827.549C1605.2 826.902 1606.18 826.835 1606.9 827.353L1637.46 791.14C1636.82 790.434 1636.81 789.349 1637.48 788.654C1638.19 787.929 1639.34 787.918 1640.04 788.618C1640.76 789.313 1640.77 790.446 1640.09 791.175L1670.44 824.057L1679.85 817.215C1679.38 816.512 1679.44 815.565 1680.07 814.933C1680.76 814.213 1681.9 814.206 1682.62 814.902C1683.2 815.469 1683.31 816.309 1682.98 816.982L1734.89 845.374L1794.99 818.541C1794.59 817.547 1794.76 816.335 1795.56 815.514C1796.64 814.409 1798.41 814.391 1799.53 815.459C1800.03 815.942 1800.3 816.551 1800.38 817.181L1924.16 810.092C1924.15 809.647 1924.32 809.191 1924.66 808.834C1925.37 808.11 1926.49 808.089 1927.22 808.798C1927.94 809.493 1927.94 810.626 1927.25 811.346C1926.55 812.065 1925.42 812.072 1924.71 811.391C1924.56 811.249 1924.45 811.097 1924.37 810.916L1832.22 852.6L1862.68 883.607C1863.37 882.983 1864.43 883.001 1865.11 883.663C1865.83 884.373 1865.85 885.501 1865.15 886.225C1864.45 886.944 1863.32 886.951 1862.59 886.242C1862.21 885.878 1862.03 885.363 1862.04 884.88L1798.01 878.946L1798.42 944.87C1798.84 944.885 1799.26 945.044 1799.58 945.365C1800.31 946.075 1800.33 947.203 1799.62 947.927C1798.92 948.646 1797.79 948.653 1797.07 947.958C1796.47 947.381 1796.36 946.46 1796.77 945.757L1764.38 924.374L1744.67 992.183C1745.08 992.312 1745.46 992.533 1745.78 992.855C1746.89 993.929 1746.92 995.692 1745.84 996.798C1744.77 997.904 1742.99 997.941 1741.89 996.867C1741.07 996.077 1740.85 994.923 1741.19 993.925L1703.88 979.848L1677.65 1035.24C1677.84 1035.37 1678.03 1035.5 1678.2 1035.66C1679.3 1036.74 1679.34 1038.5 1678.25 1039.61C1677.17 1040.72 1675.4 1040.75 1674.29 1039.68C1673.72 1039.14 1673.44 1038.41 1673.43 1037.66L1628.64 1036.11C1628.59 1036.75 1628.34 1037.37 1627.87 1037.86C1627.22 1038.53 1626.34 1038.8 1625.51 1038.7L1610.46 1129.78C1611.29 1129.9 1612.08 1130.28 1612.72 1130.91C1614.34 1132.48 1614.4 1135.06 1612.81 1136.68C1611.25 1138.29 1608.66 1138.32 1607.03 1136.75C1605.42 1135.2 1605.39 1132.6 1606.95 1130.99C1607.32 1130.59 1607.78 1130.29 1608.27 1130.09L1587.59 1076.29L1527.91 1236.11C1528.39 1236.3 1528.84 1236.57 1529.25 1236.96C1530.86 1238.53 1530.9 1241.11 1529.33 1242.72C1527.74 1244.34 1525.18 1244.38 1523.57 1242.8C1521.96 1241.23 1521.9 1238.65 1523.47 1237.04C1524.14 1236.34 1525.01 1235.94 1525.93 1235.83L1519.8 1070.03L1442.41 1110.84C1443.12 1112.33 1442.9 1114.19 1441.67 1115.44C1440.11 1117.05 1437.52 1117.1 1435.91 1115.52C1434.3 1113.95 1434.25 1111.38 1435.82 1109.75C1436.51 1109.05 1437.38 1108.65 1438.26 1108.54L1429.49 991.698L1378.67 1003.77C1378.78 1004.32 1378.61 1004.91 1378.2 1005.34C1377.49 1006.06 1376.35 1006.07 1375.65 1005.39C1374.93 1004.69 1374.91 1003.54 1375.61 1002.83C1375.85 1002.58 1376.15 1002.41 1376.48 1002.35L1361.23 920.629L1298.65 945.642C1298.87 946.256 1298.73 946.975 1298.25 947.477C1297.54 948.201 1296.41 948.222 1295.69 947.527C1294.97 946.832 1294.96 945.685 1295.65 944.965C1296.06 944.555 1296.62 944.377 1297.15 944.434L1317.31 824.569L1175.67 816.469C1175.63 816.851 1175.47 817.226 1175.19 817.516C1174.48 818.24 1173.35 818.261 1172.63 817.566C1171.91 816.856 1171.88 815.714 1172.59 814.99ZM1176.26 815.836L1316.42 796.16L1299.6 787.843L1176.26 815.836ZM1571.41 1038.63C1571.8 1038.23 1572.24 1037.93 1572.73 1037.73L1560.25 1006.51C1560.02 1006.59 1559.78 1006.61 1559.53 1006.59L1553.07 1052.31L1570.61 1043.07C1569.95 1041.6 1570.23 1039.84 1571.41 1038.63ZM1736.94 905.822C1736.99 905.774 1737.04 905.74 1737.09 905.691L1722.33 885.742L1714.09 895.521L1725.54 933.64L1737.38 908.662C1737.24 908.596 1737.1 908.502 1736.98 908.384C1736.26 907.688 1736.25 906.541 1736.94 905.822ZM1797.76 866.85L1782.88 862.739L1779.05 874.466C1779.43 874.591 1779.79 874.803 1780.12 875.091C1780.31 875.295 1780.48 875.508 1780.61 875.75L1797.76 867.983L1797.76 866.85ZM1797.97 867.895L1799.31 867.288L1797.95 866.91L1797.97 867.895ZM1782.67 862.713L1770.06 859.228L1765.28 866.424L1776.05 875.262C1776.09 875.233 1776.09 875.199 1776.13 875.17C1776.86 874.422 1777.91 874.158 1778.84 874.411L1782.67 862.713ZM1745.38 854.147L1718.81 857.743L1725.02 864.701L1737.38 867.552L1746.68 856.495C1746.63 856.448 1746.58 856.42 1746.53 856.373C1745.91 855.739 1745.53 854.958 1745.38 854.147ZM1705.99 859.27L1708.02 859.001L1707.34 857.894L1705.78 858.574C1705.87 858.798 1705.95 859.027 1705.99 859.27ZM1630.82 844.096L1600.95 843.954L1598.69 850.922L1612.22 863.556L1631.26 845.191C1630.98 844.888 1630.84 844.507 1630.82 844.096ZM1563.33 843.752C1563.31 844.111 1563.18 844.442 1562.96 844.741L1592.34 869.693L1593.29 866.757L1578.03 843.831L1563.33 843.752ZM1577.89 843.641L1574.96 839.244L1563.27 843.179C1563.31 843.293 1563.33 843.432 1563.33 843.575L1577.89 843.641ZM1366.21 765.581L1332.31 752.501C1332.17 752.804 1332.01 753.102 1331.75 753.348C1331.35 753.759 1330.85 754.027 1330.35 754.137L1335.09 779.572L1366.08 772.532L1366.21 765.581ZM1366.29 772.492L1375.13 770.499C1375.04 770.017 1375.08 769.524 1375.24 769.054L1366.42 765.636L1366.29 772.492ZM1465.31 921.74L1468.48 899.159C1467.83 899.032 1467.18 898.742 1466.64 898.289L1439.75 930.043L1448.65 937.208L1465.31 921.74ZM1448.82 937.34L1461.7 947.705L1465.28 922.07L1448.82 937.34ZM1576.84 969.003L1559.98 973.664C1560.2 974.26 1560.09 974.92 1559.69 975.426L1582.22 995.989L1576.84 969.003ZM1585.61 1011.96L1605.63 1017.63L1582.53 996.554L1585.61 1011.96ZM1700.46 859.404L1671.33 854.784L1668.2 866.705L1687.29 898.99L1702.1 862.274C1701.8 862.153 1701.53 861.96 1701.29 861.723C1700.63 861.118 1700.36 860.236 1700.46 859.404ZM1636.34 886.339L1629.63 880.098L1599.91 916.743C1599.93 916.766 1599.96 916.79 1599.98 916.814C1600.04 916.875 1600.07 916.927 1600.13 916.97L1635.99 891.319C1634.98 889.814 1635.07 887.753 1636.34 886.339ZM1636.47 886.18C1637.09 885.552 1637.86 885.176 1638.67 885.025L1636.64 871.446L1629.76 879.925L1636.47 886.18ZM1629.62 879.797L1636.6 871.188L1633.6 851.118L1614.1 865.305L1629.62 879.797ZM1638.88 884.998C1639.72 884.885 1640.6 885.062 1641.37 885.484L1658.94 854.419C1658.83 854.344 1658.75 854.278 1658.65 854.183C1658.17 853.71 1658.01 853.028 1658.17 852.414L1653.33 850.853L1636.81 871.243L1638.88 884.998ZM1658.22 852.237C1658.3 852.016 1658.44 851.809 1658.62 851.621C1658.79 851.433 1659.01 851.292 1659.24 851.213L1657.44 845.806L1653.47 850.694L1658.22 852.237ZM1659.11 854.503L1641.55 885.583C1641.78 885.743 1642.01 885.918 1642.21 886.121C1643.82 887.691 1643.86 890.253 1642.31 891.875L1657.4 907.17L1661.94 889.838L1659.9 854.71C1659.63 854.708 1659.36 854.625 1659.11 854.503ZM1657.58 907.331L1663.31 913.127L1661.99 890.492L1657.58 907.331ZM1663.51 913.345L1676.29 926.288L1687.2 899.23L1668.13 866.983L1662.15 889.831L1663.51 913.345ZM1668.07 866.476L1671.12 854.777L1661.66 853.272C1661.59 853.603 1661.44 853.891 1661.2 854.152C1661.1 854.249 1661.02 854.326 1660.91 854.394L1668.07 866.476ZM1687.32 899.458L1676.45 926.439L1682.57 932.643L1696.9 915.631L1687.32 899.458ZM1676.36 926.646L1672.05 937.374L1675.97 940.483L1682.45 932.797L1676.36 926.646ZM1676.21 926.489L1663.52 913.661L1664.55 931.404L1671.86 937.246L1676.21 926.489ZM1663.3 913.433L1657.52 907.561L1654.01 920.938C1654.28 921.022 1654.52 921.162 1654.71 921.352C1655.36 921.99 1655.43 922.974 1654.92 923.692L1664.35 931.219L1663.3 913.433ZM1657.35 907.395L1642.15 892.025C1641.81 892.335 1641.44 892.592 1641.03 892.763L1652.83 920.96C1653.15 920.851 1653.48 920.815 1653.8 920.897L1657.35 907.395ZM1640.85 892.842C1640.3 893.048 1639.69 893.145 1639.1 893.108L1636.56 921.151L1651.65 922.406C1651.7 922.037 1651.86 921.677 1652.15 921.388C1652.29 921.243 1652.46 921.122 1652.65 921.038L1640.85 892.842ZM1638.9 893.082C1638.04 892.995 1637.21 892.611 1636.53 891.963C1636.37 891.812 1636.23 891.651 1636.13 891.48L1600.25 917.136C1600.44 917.454 1600.53 917.807 1600.54 918.156L1636.37 921.12L1638.9 893.082ZM1600.51 918.357C1600.48 918.529 1600.44 918.688 1600.38 918.836L1634.94 936.77L1636.35 921.335L1600.51 918.357ZM1599.76 916.634L1629.48 879.956L1613.92 865.432L1601.77 874.275C1602.57 875.357 1602.51 876.897 1601.53 877.906C1600.99 878.461 1600.27 878.756 1599.56 878.763L1598.86 916.338C1599.18 916.339 1599.49 916.441 1599.76 916.634ZM1527.82 855.867L1513.93 876.435C1513.98 876.483 1514.05 876.525 1514.1 876.587C1514.15 876.648 1514.21 876.71 1514.26 876.771L1548.14 852.972L1542.72 850.522L1527.82 855.867ZM1542.44 850.377L1534.06 846.615L1528.01 855.592L1542.44 850.377ZM1422.27 831.502L1385.2 828.584L1385.31 829.84L1425.69 847.992L1425.97 836.014L1423.14 832.114L1422.27 831.502ZM1422.76 831.621L1422.7 831.545L1422.64 831.551L1422.76 831.621ZM1391.26 875.946L1425.01 874.734L1425.31 862.575L1391.15 875.584C1391.21 875.694 1391.24 875.827 1391.26 875.946ZM1608.28 960.08L1606 950.122L1574.14 946.334C1574.09 946.621 1573.96 946.89 1573.77 947.131L1593.2 964.255L1608.28 960.08ZM1593.37 964.421L1613.35 982.012L1608.34 960.285L1593.37 964.421ZM1596.73 875.948L1590.45 876.098L1585.48 891.341L1598.01 916.437C1598.23 916.33 1598.43 916.308 1598.68 916.287L1599.39 878.726C1598.73 878.681 1598.09 878.439 1597.58 877.942C1597.02 877.417 1596.73 876.684 1596.73 875.948ZM1523.71 907.071L1528.11 910.592L1513.9 880.508L1523.71 907.071ZM1513.35 879.611C1513.23 879.636 1513.12 879.675 1512.99 879.686L1513.71 899.12L1523.4 906.845L1513.35 879.611ZM1528.48 910.88L1568.47 942.774L1568.73 941.977L1513.92 879.318C1513.83 879.381 1513.75 879.425 1513.65 879.493L1528.48 910.88ZM1568.8 941.762L1571.11 934.716L1567.82 903.76L1514.42 878.73C1514.34 878.869 1514.23 879.018 1514.13 879.134C1514.11 879.158 1514.08 879.182 1514.05 879.192L1568.8 941.762ZM1571.25 934.251L1579.43 909.19L1568.05 903.858L1571.25 934.251ZM1567.8 903.511L1564.98 876.728L1514.64 877.934C1514.64 878.144 1514.59 878.369 1514.52 878.552L1567.8 903.511ZM1568.02 903.609L1579.5 908.989L1585.26 891.367L1577.79 876.42L1565.18 876.721L1568.02 903.609ZM1579.7 909.082L1597.15 917.263C1597.23 917.124 1597.34 916.975 1597.45 916.854C1597.57 916.733 1597.71 916.636 1597.85 916.558L1585.4 891.638L1579.7 909.082ZM1585.34 891.098L1590.24 876.124L1578.01 876.422L1585.34 891.098ZM1597.58 919.482L1573.68 944.766C1574.04 945.154 1574.2 945.64 1574.16 946.119L1605.96 949.912L1599.04 919.887C1598.53 919.969 1597.99 919.836 1597.58 919.482ZM1608.47 960.03L1630.8 953.849C1630.75 953.611 1630.74 953.343 1630.76 953.08L1606.21 950.144L1608.47 960.03ZM1573.51 944.648L1597.41 919.364C1596.91 918.848 1596.79 918.089 1597.05 917.456L1579.63 909.298L1571.31 934.757L1572.32 944.211C1572.73 944.197 1573.16 944.336 1573.51 944.648ZM1571.16 935.193L1568.96 941.932L1571.28 944.571C1571.53 944.372 1571.81 944.259 1572.11 944.218L1571.16 935.193ZM1568.89 942.148L1568.64 942.92L1571.02 944.817C1571.04 944.812 1571.04 944.779 1571.07 944.755C1571.08 944.75 1571.11 944.726 1571.12 944.721L1568.89 942.148ZM1568.57 943.122L1568.31 943.899L1570.79 945.121C1570.81 945.082 1570.85 945.02 1570.88 944.962L1568.57 943.122ZM1568.41 942.985L1528.67 911.294L1536.69 928.291L1568.14 943.814L1568.41 942.985ZM1528.32 911.001L1523.84 907.443L1530.38 925.158L1536.4 928.136L1528.32 911.001ZM1523.55 907.193L1513.74 899.368L1514.39 917.272L1530.12 925.041L1523.55 907.193ZM1512.8 879.688C1512.75 879.688 1512.69 879.694 1512.64 879.68L1509.89 896.056L1513.53 898.945L1512.8 879.688ZM1512.43 879.639C1512.12 879.571 1511.83 879.416 1511.57 879.17C1511.55 879.161 1511.54 879.146 1511.54 879.132L1500.96 888.935L1509.69 895.886L1512.43 879.639ZM1511.41 878.985C1511.32 878.871 1511.26 878.748 1511.2 878.624L1495.73 884.758L1500.81 888.812L1511.41 878.985ZM1511.13 878.443C1511.06 878.195 1511.02 877.938 1511.04 877.689L1482.36 873.203C1482.32 873.443 1482.21 873.654 1482.08 873.861L1495.55 884.598L1511.13 878.443ZM1481.95 874.035C1481.94 874.054 1481.93 874.073 1481.91 874.078C1481.34 874.657 1480.51 874.785 1479.82 874.463L1471.11 891.536C1471.46 891.719 1471.8 891.955 1472.09 892.238C1472.49 892.626 1472.8 893.082 1472.99 893.558L1495.33 884.705L1481.95 874.035ZM1479.21 871.701C1479.22 871.696 1479.23 871.677 1479.22 871.663L1469.7 862.124L1467.32 863.281L1479.21 871.701ZM1467.13 863.379L1463.65 865.073L1479.03 871.985C1479.05 871.947 1479.08 871.889 1479.1 871.851L1467.13 863.379ZM1479.38 871.513C1479.47 871.436 1479.52 871.368 1479.62 871.319L1473.21 860.42L1469.9 862.021L1479.38 871.513ZM1463.4 865.191L1451.69 870.908L1453.74 873.703L1478.82 872.795C1478.81 872.59 1478.85 872.384 1478.92 872.182L1463.4 865.191ZM1426.18 836.294L1425.88 848.1L1439.15 854.077L1426.18 836.294ZM1425.99 835.689L1426.02 834.174L1423.65 832.496L1425.99 835.689ZM1425.88 848.31L1425.53 861.732L1425.99 862.1L1440.87 856.426L1439.37 854.386L1425.88 848.31ZM1451.39 870.821L1441 856.606L1426.2 862.236L1441.81 874.122L1444.84 874.005L1451.39 870.821ZM1445.33 873.995L1453.48 873.696L1451.5 870.973L1445.33 873.995ZM1441.07 856.357L1442.53 855.806L1439.77 854.554L1441.07 856.357ZM1441.2 856.523L1451.57 870.742L1463.15 865.102L1442.78 855.928L1441.2 856.523ZM1453.87 873.898L1459.25 881.252L1478.9 873.406C1478.85 873.278 1478.82 873.144 1478.82 872.986L1453.87 873.898ZM1459.16 881.506L1454.12 883.518L1466.06 892.606C1466.14 892.5 1466.22 892.409 1466.31 892.312C1466.45 892.167 1466.61 892.032 1466.77 891.915L1459.16 881.506ZM1459.05 881.321L1453.63 873.9L1444.88 874.215L1443.07 875.094L1453.94 883.371L1459.05 881.321ZM1444.37 874.229L1442.04 874.316L1442.88 874.952L1444.37 874.229ZM1441.74 874.323L1425.22 874.919L1424.98 883.697L1442.7 875.064L1441.74 874.323ZM1425.21 874.713L1441.49 874.12L1425.97 862.315L1425.53 862.482L1425.21 874.713ZM1425.77 862.179L1425.53 861.99L1425.52 862.262L1425.77 862.179ZM1425.34 861.59L1425.67 848.221L1385.33 830.055L1385.44 831.187L1425.34 861.59ZM1384.98 828.563L1384.03 828.491C1384 828.726 1383.95 828.951 1383.85 829.177L1385.08 829.742L1384.98 828.563ZM1385.11 829.972L1383.77 829.378C1383.71 829.513 1383.64 829.633 1383.54 829.763L1385.21 831.041L1385.11 829.972ZM1383.2 826.138C1383.8 826.73 1384.09 827.525 1384.06 828.304L1384.96 828.376L1382.84 805.157C1382.83 805.162 1382.79 805.157 1382.77 805.148L1381.49 825.353C1382.12 825.409 1382.72 825.665 1383.2 826.138ZM1385.17 828.403L1421.94 831.28L1384.19 804.483C1384.17 804.522 1384.13 804.57 1384.08 804.618C1383.8 804.908 1383.42 805.084 1383.04 805.136L1385.17 828.403ZM1423.29 831.984L1426.03 833.949L1426.08 831.821L1422.97 831.581L1423.29 831.984ZM1426.18 835.96L1439.51 854.227L1442.8 855.698L1451.6 852.343L1426.22 834.315L1426.18 835.96ZM1443.06 855.815L1463.39 864.971L1466.93 863.237L1451.79 852.485L1443.06 855.815ZM1467.15 863.13L1469.58 861.958L1457.83 850.195L1452.04 852.401L1467.15 863.13ZM1469.75 861.865L1473.11 860.229L1465.49 847.282L1458.05 850.121L1469.75 861.865ZM1473.28 860.137L1488.6 852.666L1478.65 842.266L1465.69 847.198L1473.28 860.137ZM1473.38 860.327L1479.79 871.227C1480.46 870.885 1481.29 870.968 1481.86 871.521L1494.94 859.336L1488.74 852.827L1473.38 860.327ZM1495.09 859.205L1514.96 840.698C1514.84 840.531 1514.73 840.38 1514.65 840.199L1488.93 852.743L1495.09 859.205ZM1495.09 859.478L1481.99 871.668C1482.1 871.791 1482.19 871.919 1482.25 872.076L1500.75 865.409L1495.09 859.478ZM1482.32 872.257C1482.39 872.505 1482.41 872.753 1482.4 872.997L1511.07 877.488C1511.13 877.195 1511.28 876.902 1511.49 876.671L1500.9 865.565L1482.32 872.257ZM1511.63 876.526C1512 876.207 1512.46 876.063 1512.93 876.078L1514.62 860.625L1501.1 865.496L1511.63 876.526ZM1513.14 876.085C1513.36 876.121 1513.57 876.21 1513.77 876.317L1527.49 855.98L1514.84 860.551L1513.14 876.085ZM1548.32 852.812L1559.99 844.613C1559.93 844.523 1559.88 844.428 1559.85 844.328L1542.97 850.419L1548.32 852.812ZM1548.35 853.041L1514.36 876.928C1514.51 877.18 1514.61 877.451 1514.62 877.733L1564.94 876.518L1563.15 859.706L1548.35 853.041ZM1565.15 876.526L1577.67 876.22L1571.23 863.346L1563.38 859.804L1565.15 876.526ZM1577.91 876.218L1590.3 875.928L1591.43 872.436L1571.52 863.487L1577.91 876.218ZM1590.51 875.902L1596.73 875.757C1596.74 875.465 1596.82 875.168 1596.93 874.889L1591.63 872.496L1590.51 875.902ZM1597.01 874.702C1597.09 874.529 1597.19 874.366 1597.32 874.211L1592.43 870.045L1591.68 872.319L1597.01 874.702ZM1597.46 874.066C1597.48 874.042 1597.51 874.018 1597.53 873.994C1597.63 873.878 1597.77 873.767 1597.9 873.675L1593.44 866.995L1592.5 869.844L1597.46 874.066ZM1598.06 873.573C1599.12 872.902 1600.54 873.021 1601.46 873.935L1612.07 863.706L1598.6 851.143L1593.51 866.745L1598.06 873.573ZM1601.61 874.091C1601.61 874.091 1601.63 874.1 1601.63 874.114L1613.77 865.275L1612.22 863.843L1601.61 874.091ZM1599.92 919.458C1599.71 919.641 1599.47 919.773 1599.22 919.843L1606.14 949.944L1630.77 952.884C1630.86 952.343 1631.11 951.81 1631.51 951.399L1599.92 919.458ZM1631.6 955.318C1631.22 954.954 1630.97 954.512 1630.84 954.045L1608.51 960.226L1613.58 982.234L1620.3 988.155L1632.37 955.85C1632.1 955.719 1631.83 955.54 1631.6 955.318ZM1613.69 982.582L1617.01 997.027L1620.25 988.361L1613.69 982.582ZM1613.42 982.355L1593.15 964.48L1584.83 966.774L1611.53 1011.66L1616.88 997.358L1613.42 982.355ZM1592.96 964.324L1573.64 947.29C1573.57 947.363 1573.47 947.445 1573.38 947.508L1584.72 966.603L1592.96 964.324ZM1573.19 947.606C1573.05 947.669 1572.92 947.728 1572.79 947.758L1576.97 968.748L1584.52 966.658L1573.19 947.606ZM1572.61 947.803C1572.08 947.875 1571.51 947.719 1571.09 947.321C1570.54 946.792 1570.41 945.99 1570.69 945.318L1568.24 944.114L1558.94 972.614C1559.15 972.703 1559.37 972.82 1559.56 972.995C1559.7 973.137 1559.81 973.308 1559.9 973.484L1576.8 968.807L1572.61 947.803ZM1558.73 972.559L1568.07 943.997L1536.84 928.576L1557.63 972.618C1557.98 972.466 1558.38 972.457 1558.73 972.559ZM1536.55 928.436L1530.5 925.439L1548.55 974.422L1556.48 974.245C1556.49 973.81 1556.67 973.383 1557 973.045C1557.13 972.905 1557.28 972.803 1557.44 972.715L1536.55 928.436ZM1557.01 975.597C1556.68 975.281 1556.52 974.857 1556.47 974.441L1548.61 974.627L1551.38 982.161L1557.02 975.626C1557.03 975.607 1557.03 975.607 1557.01 975.597ZM1551.32 982.549L1540 995.663L1558.08 1003.95C1558.15 1003.79 1558.24 1003.67 1558.36 1003.53C1558.53 1003.36 1558.72 1003.23 1558.92 1003.15L1551.32 982.549ZM1551.26 982.315L1548.4 974.634L1516.52 975.378L1516.88 985.054L1539.8 995.555L1551.26 982.315ZM1548.33 974.434L1530.23 925.308L1514.4 917.492L1516.53 975.167L1548.33 974.434ZM1513.52 899.217L1509.84 896.282L1506.94 913.592L1514.19 917.184L1513.52 899.217ZM1509.67 896.116L1500.82 889.08L1485.71 903.098L1506.74 913.498L1509.67 896.116ZM1500.66 888.943L1495.52 884.832L1473.07 893.739C1473.43 894.734 1473.39 895.834 1472.96 896.814L1485.51 903.009L1500.66 888.943ZM1472.9 896.996C1472.72 897.347 1472.48 897.684 1472.17 897.998C1471.74 898.451 1471.21 898.777 1470.66 898.984L1475.23 912.565L1485.37 903.154L1472.9 896.996ZM1470.92 891.457L1479.64 874.364C1479.54 874.289 1479.45 874.208 1479.35 874.114C1479.19 873.962 1479.07 873.763 1478.98 873.587L1459.36 881.423L1466.95 891.804C1468.13 890.998 1469.65 890.872 1470.92 891.457ZM1468.69 899.2L1465.56 921.527L1475.06 912.72L1470.46 899.067C1469.89 899.216 1469.27 899.27 1468.69 899.2ZM1466.5 898.161C1466.48 898.137 1466.46 898.114 1466.43 898.076C1466.09 897.759 1465.82 897.389 1465.62 896.994L1425.7 916.802C1425.95 917.374 1425.89 918.034 1425.51 918.564L1439.61 929.915L1466.5 898.161ZM1425.29 916.223C1425.41 916.342 1425.53 916.479 1425.61 916.627L1465.54 896.799C1464.95 895.5 1465.1 893.959 1465.96 892.77L1453.92 883.587L1424.71 895.273L1424.19 915.723C1424.59 915.748 1424.98 915.93 1425.29 916.223ZM1453.73 883.459L1442.87 875.196L1424.98 883.922L1424.7 895.068L1453.73 883.459ZM1425 874.93L1391.28 876.147C1391.31 876.634 1391.15 877.119 1390.78 877.486C1390.76 877.51 1390.74 877.534 1390.72 877.539L1404.3 893.772L1424.79 883.781L1425 874.93ZM1390.74 874.943C1390.88 875.071 1390.98 875.227 1391.07 875.389L1425.31 862.35L1425.33 861.834L1385.47 831.464L1389.38 874.436C1389.87 874.412 1390.36 874.579 1390.74 874.943ZM1385.23 831.29L1383.42 829.917C1383.37 829.966 1383.33 830.028 1383.27 830.081C1382.86 830.492 1382.34 830.77 1381.82 830.885L1389.09 873.784L1385.23 831.29ZM1381.3 825.34L1382.56 805.141C1382.36 805.114 1382.15 805.045 1381.95 804.937L1371.1 823.003L1378.8 826.81C1378.92 826.574 1379.07 826.362 1379.25 826.188C1379.79 825.619 1380.54 825.343 1381.3 825.34ZM1371 823.166L1368.52 827.298L1378.49 827.86C1378.51 827.563 1378.59 827.28 1378.72 826.997L1371 823.166ZM1370.81 823.087L1354.68 815.107L1349.8 826.223L1368.29 827.281L1370.81 823.087ZM1364.12 789.675L1337.66 793.394L1340.36 807.797L1354.59 814.836L1365.1 790.922C1364.93 790.852 1364.78 790.744 1364.64 790.631C1364.37 790.342 1364.19 790.019 1364.12 789.675ZM1354.51 815.023L1340.41 808.036L1343.73 825.884L1349.57 826.221L1354.51 815.023ZM1337.46 793.415L1322.4 795.539L1321.88 798.642L1340.13 807.685L1337.46 793.415ZM1337.44 793.2L1334.93 779.817L1324.66 782.16L1322.45 795.314L1337.44 793.2ZM1334.9 779.622L1330.15 754.158C1329.89 754.199 1329.62 754.197 1329.37 754.171L1324.69 781.925L1334.9 779.622ZM1335.12 779.767L1337.64 793.179L1364.1 789.475C1364.07 788.959 1364.22 788.441 1364.6 788.054C1364.92 787.721 1365.37 787.535 1365.79 787.516L1366.06 772.748L1335.12 779.767ZM1365.27 791.021L1354.76 814.92L1370.92 822.923L1381.78 804.852C1381.68 804.806 1381.61 804.735 1381.53 804.649C1380.81 803.954 1380.8 802.807 1381.48 802.093C1381.74 801.827 1382.07 801.666 1382.42 801.576L1380.91 791.338L1367.68 789.648C1367.62 789.988 1367.45 790.301 1367.19 790.566C1366.69 791.107 1365.92 791.263 1365.27 791.021ZM1382.62 801.555C1382.75 801.544 1382.88 801.548 1383 801.57L1384.92 791.842L1381.11 791.365L1382.62 801.555ZM1383.2 801.611C1383.51 801.665 1383.8 801.82 1384.06 802.052C1384.68 802.652 1384.77 803.612 1384.32 804.31L1422.35 831.3L1422.58 831.317L1394.66 793.071L1385.15 791.859L1383.2 801.611ZM1394.46 792.853L1386.97 782.581L1385.17 791.677L1394.46 792.853ZM1394.74 792.883L1401.53 793.755L1387.55 779.712L1387.02 782.308L1394.74 792.883ZM1394.9 793.116L1422.81 831.348L1426.08 831.611L1426.41 818.691L1401.78 793.992L1394.9 793.116ZM1426.3 831.632L1440.43 832.74L1426.63 818.904L1426.3 831.632ZM1426.29 831.829L1426.23 834.085L1451.83 852.264L1457.68 850.039L1440.63 832.957L1426.29 831.829ZM1457.88 849.955L1465.38 847.096L1457.88 834.3L1440.94 832.978L1457.88 849.955ZM1465.57 847.032L1478.5 842.11L1472.12 835.435L1458.12 834.331L1465.57 847.032ZM1478.71 842.021L1491.94 836.995L1472.43 835.456L1478.71 842.021ZM1478.86 842.192L1488.79 852.582L1514.58 840.013C1514.41 839.609 1514.36 839.179 1514.39 838.753L1492.43 837.019L1478.86 842.192ZM1495.23 859.333L1500.96 865.321L1514.65 860.39L1516.69 841.717C1516.16 841.613 1515.64 841.374 1515.21 840.963C1515.17 840.93 1515.14 840.877 1515.11 840.839L1495.23 859.333ZM1514.85 860.321L1527.68 855.706L1533.88 846.536L1519.69 840.157C1519.55 840.426 1519.39 840.69 1519.18 840.908C1518.55 841.555 1517.7 841.831 1516.89 841.744L1514.85 860.321ZM1533.99 846.353L1537.51 841.126L1519.93 839.208C1519.91 839.456 1519.85 839.715 1519.76 839.955L1533.99 846.353ZM1534.18 846.447L1542.72 850.283L1559.8 844.137C1559.73 843.952 1559.72 843.765 1559.73 843.569L1537.77 841.166L1534.18 846.447ZM1560.12 844.78L1548.55 852.91L1563.15 859.481L1561.68 845.457C1561.18 845.5 1560.68 845.338 1560.28 844.964C1560.22 844.888 1560.16 844.827 1560.12 844.78ZM1563.38 859.565L1571.12 863.051L1562.26 845.302C1562.14 845.361 1562.01 845.391 1561.89 845.416L1563.38 859.565ZM1571.4 863.192L1591.52 872.23L1592.27 869.908L1562.84 844.895C1562.83 844.9 1562.83 844.9 1562.83 844.9C1562.7 845.04 1562.55 845.123 1562.42 845.2L1571.4 863.192ZM1593.36 866.527L1598.44 850.978L1590.85 843.904L1578.24 843.838L1593.36 866.527ZM1598.51 850.762L1600.73 843.951L1591.15 843.911L1598.51 850.762ZM1612.37 863.698L1613.94 865.154L1633.55 850.88L1632.79 845.801C1632.29 845.845 1631.79 845.683 1631.39 845.323L1612.37 863.698ZM1633.73 850.754L1639.68 846.414L1634.3 844.672C1634.22 844.893 1634.08 845.1 1633.91 845.269C1633.65 845.534 1633.33 845.71 1632.97 845.785L1633.73 850.754ZM1633.77 850.978L1636.77 870.952L1653.13 850.779L1639.93 846.488L1633.77 850.978ZM1653.25 850.625L1657.35 845.582L1654.17 836.141L1640.12 846.357L1653.25 850.625ZM1660.1 854.689L1662.11 889.205L1667.99 866.759L1660.74 854.501C1660.53 854.589 1660.33 854.658 1660.1 854.689ZM1660.72 851.279L1674.13 828.35L1672.77 826.867L1657.57 845.618L1659.42 851.135C1659.87 851.03 1660.32 851.083 1660.72 851.279ZM1660.9 851.392C1660.99 851.458 1661.08 851.524 1661.17 851.605C1661.58 852.007 1661.75 852.555 1661.69 853.086L1671.18 854.58L1677.18 831.679L1674.27 828.525L1660.9 851.392ZM1671.38 854.607L1700.48 859.203C1700.59 858.685 1700.82 858.19 1701.22 857.78C1701.24 857.775 1701.25 857.77 1701.26 857.751L1677.34 831.83L1671.38 854.607ZM1702.28 862.372L1687.42 899.218L1697.02 915.463L1713.85 895.476L1703.93 862.442C1703.39 862.595 1702.81 862.558 1702.28 862.372ZM1714.01 895.293L1722.21 885.576L1704.81 862.06C1704.59 862.201 1704.37 862.308 1704.12 862.392L1714.01 895.293ZM1722.34 885.417L1723.64 883.884L1709.47 861.299L1705.94 860.471C1705.82 860.926 1705.59 861.344 1705.24 861.701C1705.16 861.793 1705.06 861.875 1704.97 861.938L1722.34 885.417ZM1724.91 864.865L1709.74 861.349L1723.77 883.71L1732.51 873.343L1724.91 864.865ZM1732.64 873.184L1737.24 867.73L1725.26 864.952L1732.64 873.184ZM1709.32 861.048L1708.15 859.181L1706.02 859.466C1706.05 859.728 1706.03 860.006 1706 860.274L1709.32 861.048ZM1708.25 858.97L1718.41 857.594L1715.43 854.288L1707.53 857.811L1708.25 858.97ZM1708.36 859.155L1709.6 861.112L1724.68 864.609L1718.56 857.764L1708.36 859.155ZM1737.61 867.602L1759.34 872.628L1751.19 857.099C1749.81 857.768 1748.11 857.633 1746.86 856.642L1737.61 867.602ZM1759.59 872.687L1760.72 872.953L1765.02 866.465L1752.44 856.14C1752.4 856.188 1752.35 856.251 1752.31 856.299C1752.02 856.589 1751.71 856.826 1751.36 857.026L1759.59 872.687ZM1759.72 872.93L1760.17 873.781L1760.62 873.131L1759.72 872.93ZM1765.13 866.301L1769.85 859.173L1753.29 854.616C1753.16 855.095 1752.92 855.561 1752.6 855.976L1765.13 866.301ZM1765.18 866.588L1760.94 872.989L1775.45 876.363C1775.55 876.027 1775.7 875.7 1775.92 875.435L1765.18 866.588ZM1776.2 879.127C1775.48 878.432 1775.23 877.464 1775.41 876.554L1760.83 873.172L1760.28 873.985L1772.21 896.731L1777.15 879.744C1776.8 879.609 1776.48 879.397 1776.2 879.127ZM1760.15 874.187L1748.84 891.264L1767.68 912.299L1772.13 896.999L1760.15 874.187ZM1760.04 873.988L1759.46 872.861L1737.47 867.761L1732.79 873.326L1748.7 891.102L1760.04 873.988ZM1732.65 873.485L1723.9 883.891L1737.42 905.482C1737.96 905.2 1738.62 905.212 1739.16 905.522L1748.58 891.29L1732.65 873.485ZM1723.74 884.055L1722.46 885.583L1737.21 905.523L1723.74 884.055ZM1713.94 895.7L1697.13 915.648L1717.65 950.352L1725.43 933.919L1713.94 895.7ZM1697 915.821L1682.7 932.79L1711.93 962.38L1717.52 950.554L1697 915.821ZM1682.56 932.949L1676.11 940.625L1709.59 967.375L1711.86 962.596L1682.56 932.949ZM1675.99 940.78L1666.95 951.523L1666.97 951.532C1667.54 952.085 1667.67 952.906 1667.34 953.593L1706.21 974.504L1709.49 967.553L1675.99 940.78ZM1666.78 951.391L1675.82 940.662L1671.96 937.58L1666.46 951.212C1666.57 951.24 1666.69 951.31 1666.78 951.391ZM1671.78 937.434L1664.56 931.657L1665.69 951.015C1665.87 951.032 1666.07 951.059 1666.27 951.119L1671.78 937.434ZM1664.36 931.487L1654.79 923.865C1654.78 923.87 1654.75 923.894 1654.75 923.914C1654.58 924.083 1654.41 924.204 1654.2 924.292L1665.09 951.14C1665.22 951.082 1665.35 951.052 1665.47 951.041L1664.36 931.487ZM1654.05 924.346C1653.43 924.558 1652.7 924.427 1652.2 923.944C1651.82 923.58 1651.65 923.094 1651.65 922.597L1636.56 921.342L1635.15 936.873L1664.16 951.91C1664.21 951.795 1664.3 951.684 1664.42 951.563C1664.57 951.399 1664.74 951.292 1664.95 951.19L1654.05 924.346ZM1664.44 954.116C1664.11 953.799 1663.93 953.38 1663.9 952.96L1636.35 953.376C1636.34 953.635 1636.31 953.903 1636.23 954.152L1667.22 965.837L1665.82 954.632C1665.33 954.656 1664.83 954.494 1664.44 954.116ZM1635.5 951.301C1636.03 951.807 1636.32 952.492 1636.34 953.171L1663.89 952.768C1663.91 952.539 1663.96 952.299 1664.06 952.088L1635.13 937.103L1633.91 950.538C1634.5 950.609 1635.05 950.866 1635.5 951.301ZM1634.92 937L1600.29 919.043C1600.23 919.144 1600.15 919.235 1600.08 919.322L1631.67 951.25C1632.23 950.718 1632.98 950.476 1633.7 950.516L1634.92 937ZM1632.56 955.93L1620.47 988.301L1629.46 996.22L1633.19 956.081C1632.97 956.059 1632.76 956.004 1632.56 955.93ZM1620.4 988.503L1617.09 997.366L1622.88 1022.49L1626.91 1023.62L1629.44 996.45L1620.4 988.503ZM1616.96 997.73L1611.68 1011.9L1617 1020.84L1622.66 1022.43L1616.96 997.73ZM1611.58 1012.14L1609.15 1018.63L1616.7 1020.76L1611.58 1012.14ZM1611.44 1011.91L1584.63 966.843L1577.03 968.953L1582.47 996.225L1606.05 1017.75L1608.95 1018.56L1611.44 1011.91ZM1606.4 1018.05L1608.46 1019.91L1608.89 1018.76L1606.4 1018.05ZM1608.55 1020.26L1606.19 1026.58L1623.38 1034.66C1623.47 1034.47 1623.59 1034.3 1623.74 1034.12L1608.55 1020.26ZM1608.38 1020.13L1605.97 1017.92L1585.65 1012.17L1586.68 1017.4L1605.99 1026.49L1608.38 1020.13ZM1586.74 1017.65L1594.58 1057.06L1605.93 1026.68L1586.74 1017.65ZM1585.44 1012.12L1561.38 1005.33C1561.38 1005.37 1561.37 1005.42 1561.35 1005.47L1586.45 1017.3L1585.44 1012.12ZM1560.92 1003.49C1561.38 1003.93 1561.56 1004.54 1561.44 1005.12L1585.38 1011.9L1582.28 996.323L1559.55 975.586C1558.9 976.209 1557.92 976.262 1557.21 975.739L1551.48 982.366L1559.1 1003.08C1559.72 1002.88 1560.42 1003.01 1560.92 1003.49ZM1559.3 1006.56C1558.99 1006.5 1558.66 1006.34 1558.4 1006.09C1558.4 1006.09 1558.39 1006.08 1558.37 1006.07L1518.95 1041.23L1520 1069.73L1552.81 1052.43L1559.3 1006.56ZM1558.26 1005.91C1557.85 1005.38 1557.75 1004.72 1557.98 1004.13L1539.86 995.807L1518.21 1020.86L1518.96 1040.97L1558.26 1005.91ZM1539.67 995.728L1516.91 985.269L1518.22 1020.55L1539.67 995.728ZM1516.33 975.38L1499.15 975.771C1499.16 976.12 1499.09 976.479 1498.94 976.801L1516.67 984.951L1516.33 975.38ZM1498.31 973.724C1498.84 974.231 1499.11 974.887 1499.15 975.58L1516.33 975.189L1514.2 917.404L1506.9 913.798L1496.92 973.007C1497.43 973.103 1497.91 973.337 1498.31 973.724ZM1506.7 913.704L1485.56 903.262L1475.29 912.784L1495.56 973.06C1495.94 972.946 1496.34 972.918 1496.72 972.962L1506.7 913.704ZM1475.11 912.925L1465.5 921.833L1461.87 947.837L1494.24 973.881C1494.28 973.852 1494.31 973.809 1494.35 973.765C1494.64 973.456 1494.99 973.257 1495.36 973.095L1475.11 912.925ZM1461.84 948.071L1456.67 985.061L1493.62 976.287C1493.47 975.524 1493.65 974.709 1494.14 974.059L1461.84 948.071ZM1461.66 947.925L1448.65 937.461L1427.13 957.434L1429.69 991.471L1456.45 985.106L1461.66 947.925ZM1426.08 946.187L1378.86 1001.96L1426.93 957.359L1426.08 946.187ZM1427.12 957.195L1448.52 937.347L1439.64 930.206L1426.29 945.97L1427.12 957.195ZM1439.47 930.074L1425.38 918.737C1425.35 918.761 1425.34 918.766 1425.33 918.785C1425.04 919.094 1424.65 919.275 1424.26 919.312L1426.24 945.684L1439.47 930.074ZM1423.98 915.716L1424.5 895.361L1410.35 901.023L1422.96 916.085C1423.26 915.852 1423.62 915.715 1423.98 915.716ZM1424.48 895.142L1424.76 884.015L1404.41 893.923L1410.2 900.833L1424.48 895.142ZM1404.23 894.035L1360.46 915.379L1361.38 920.37L1410.03 900.926L1404.23 894.035ZM1404.11 893.869L1390.57 877.689C1389.87 878.217 1388.86 878.179 1388.23 877.536C1388.15 877.465 1388.09 877.375 1388.03 877.299L1357.63 900.331L1360.41 915.155L1404.11 893.869ZM1387.92 877.147C1387.53 876.448 1387.61 875.592 1388.2 874.988C1388.42 874.752 1388.71 874.586 1389.04 874.506L1381.63 830.915C1380.98 830.999 1380.29 830.867 1379.73 830.486L1351.9 869.467L1357.63 900.126L1387.92 877.147ZM1349.66 858.697L1298.34 944.087L1351.65 869.427L1349.66 858.697ZM1351.82 869.191L1379.54 830.359C1379.47 830.288 1379.38 830.222 1379.31 830.151C1378.73 829.583 1378.43 828.821 1378.46 828.061L1368.4 827.5L1349.82 858.432L1351.82 869.191ZM1368.17 827.483L1349.69 826.435L1345.57 835.803L1349.74 858.141L1368.17 827.483ZM1349.49 826.408L1343.78 826.075L1345.52 835.436L1349.49 826.408ZM1340.18 807.923L1321.84 798.848L1317.54 824.394L1343.54 825.872L1340.18 807.923ZM1322.2 795.56L1317.09 796.282L1321.69 798.548L1322.2 795.56ZM1322.23 795.34L1324.45 782.2L1299.92 787.763L1316.78 796.118L1322.23 795.34ZM1243.62 759.88L1299.63 787.623L1324.49 781.98L1329.17 754.145C1328.65 754.035 1328.17 753.801 1327.78 753.408C1327.3 752.95 1327.03 752.355 1326.95 751.744L1243.78 759.076C1243.78 759.363 1243.73 759.636 1243.62 759.88ZM1307.74 675.53L1243.03 757.688C1243.09 757.744 1243.16 757.801 1243.23 757.858C1243.52 758.141 1243.69 758.498 1243.76 758.875L1326.93 751.543C1326.89 750.788 1327.14 750.031 1327.72 749.446C1328.05 749.108 1328.46 748.855 1328.9 748.722L1309.15 675.812C1308.67 675.912 1308.16 675.832 1307.74 675.53ZM1309.74 675.576C1309.62 675.664 1309.48 675.713 1309.34 675.762L1329.09 748.686C1329.98 748.477 1330.97 748.71 1331.68 749.391C1332.48 750.172 1332.72 751.321 1332.37 752.319L1366.2 765.375L1366.39 754.245L1309.74 675.576ZM1366.6 754.491L1366.41 765.43L1375.3 768.872C1375.44 768.569 1375.61 768.271 1375.87 768.02C1375.95 767.928 1376.06 767.86 1376.16 767.778L1366.6 754.491ZM1375.93 771.982C1375.55 771.618 1375.31 771.156 1375.18 770.689L1366.27 772.722L1366.01 787.538C1366.41 787.558 1366.84 787.73 1367.16 788.052C1367.56 788.426 1367.75 788.969 1367.7 789.481L1380.88 791.171L1378.19 772.752C1377.38 772.856 1376.55 772.583 1375.93 771.982ZM1379.44 772.29C1379.12 772.513 1378.75 772.656 1378.39 772.717L1381.1 791.159L1384.98 791.645L1386.83 782.358L1379.44 772.29ZM1379.61 772.169L1386.85 782.109L1387.35 779.57L1379.81 772.004C1379.74 772.057 1379.67 772.115 1379.61 772.169ZM1380.45 771.046C1380.32 771.33 1380.16 771.608 1379.96 771.84L1387.41 779.326L1388.31 774.861L1380.45 771.046ZM1388.48 774.946L1387.57 779.51L1401.86 793.805L1426.95 797.017L1427.15 797.044L1435.11 798.057C1435.13 797.937 1435.17 797.812 1435.22 797.697L1388.48 774.946ZM1435.63 799.667C1435.23 799.293 1435.06 798.76 1435.09 798.239L1402.08 794.032L1440.71 832.756L1457.75 834.091L1437.72 799.971C1437.05 800.312 1436.21 800.22 1435.63 799.667ZM1438.05 799.742C1437.99 799.796 1437.96 799.839 1437.88 799.883L1458 834.117L1471.92 835.217L1438.05 799.742ZM1438.45 799.27C1438.38 799.39 1438.31 799.496 1438.21 799.593L1472.21 835.229L1492.38 836.814L1504.08 832.363L1438.45 799.27ZM1504.35 832.494L1492.85 836.857L1514.4 838.543C1514.44 838.255 1514.53 837.968 1514.67 837.679L1504.35 832.494ZM1555.48 813.025L1504.6 832.391L1514.77 837.535C1514.88 837.352 1515.01 837.165 1515.16 837.015C1516.24 835.909 1518.01 835.891 1519.13 836.96C1519.22 837.054 1519.3 837.14 1519.36 837.23L1555.58 813.2C1555.55 813.129 1555.52 813.077 1555.48 813.025ZM1555.87 813.58C1555.8 813.523 1555.74 813.447 1555.69 813.352L1519.48 837.382C1519.82 837.87 1519.97 838.442 1519.97 839.021L1537.66 840.947L1556.04 813.712C1555.98 813.67 1555.91 813.627 1555.87 813.58ZM1556.19 813.835L1537.87 840.969L1559.74 843.359C1559.81 843 1559.97 842.673 1560.23 842.388C1560.93 841.669 1562.06 841.662 1562.78 842.357C1562.97 842.532 1563.1 842.76 1563.21 842.993L1574.84 839.078L1558.03 813.84C1557.48 814.175 1556.77 814.163 1556.19 813.835ZM1558.38 813.592C1558.33 813.626 1558.27 813.68 1558.23 813.723L1575.06 839.004L1582.84 836.386L1558.38 813.592ZM1582.97 836.547L1575.15 839.18L1578.13 843.638L1590.64 843.706L1582.97 836.547ZM1604.61 830.125C1604.4 829.927 1604.27 829.684 1604.17 829.432L1583.21 836.483L1590.94 843.712L1600.81 843.764L1605.14 830.502C1604.95 830.394 1604.76 830.281 1604.61 830.125ZM1607.42 829.733C1607.35 829.853 1607.26 829.978 1607.17 830.075C1606.67 830.582 1605.96 830.747 1605.33 830.534L1601.01 843.743L1630.82 843.89C1630.84 843.642 1630.89 843.416 1631 843.186L1607.42 829.733ZM1637.6 791.282L1607.07 827.471C1607.09 827.48 1607.1 827.509 1607.12 827.518C1607.67 828.062 1607.81 828.864 1607.51 829.541L1631.09 843.027C1631.15 842.926 1631.23 842.835 1631.32 842.743C1631.69 842.357 1632.21 842.179 1632.71 842.198L1638.41 791.675C1638.12 791.63 1637.83 791.49 1637.6 791.282ZM1638.63 791.711L1632.93 842.234C1633.28 842.288 1633.62 842.461 1633.88 842.721C1634.36 843.194 1634.52 843.876 1634.36 844.49L1639.89 846.292L1654.11 835.955L1639.23 791.681C1639.03 791.716 1638.83 791.723 1638.63 791.711ZM1639.94 791.291C1639.78 791.427 1639.61 791.534 1639.43 791.612L1654.28 835.8L1670.27 824.178L1639.94 791.291ZM1670.42 824.32L1654.34 836.02L1657.5 845.404L1672.63 826.74L1670.42 824.32ZM1680.09 817.499C1680.06 817.461 1680.01 817.414 1679.98 817.362L1670.59 824.199L1672.77 826.561L1680.12 817.504C1680.1 817.514 1680.09 817.499 1680.09 817.499ZM1680.25 817.636L1672.89 826.713L1674.23 828.172L1680.35 817.697C1680.33 817.674 1680.29 817.655 1680.25 817.636ZM1680.53 817.81L1674.39 828.323L1677.25 831.429L1680.79 817.913C1680.69 817.885 1680.61 817.848 1680.53 817.81ZM1680.98 817.959L1677.41 831.614L1701.42 857.615C1702.51 856.682 1704.15 856.708 1705.18 857.725C1705.4 857.924 1705.56 858.156 1705.69 858.399L1707.23 857.709L1682.2 817.779C1681.81 817.993 1681.39 818.06 1680.98 817.959ZM1682.36 817.691L1707.41 857.63L1715.28 854.117L1682.54 817.551C1682.48 817.604 1682.43 817.652 1682.36 817.691ZM1682.87 817.165C1682.82 817.247 1682.75 817.333 1682.68 817.406L1715.48 854.015L1734.63 845.477L1682.87 817.165ZM1734.85 845.608L1715.64 854.185L1718.65 857.558L1745.36 853.947C1745.25 853.135 1745.4 852.302 1745.77 851.567L1734.85 845.608ZM1795.06 818.727L1735.09 845.496L1745.88 851.384C1746.04 851.105 1746.23 850.831 1746.47 850.589C1748.04 848.977 1750.62 848.936 1752.23 850.506C1752.37 850.634 1752.48 850.771 1752.59 850.909L1795.24 819.017C1795.17 818.927 1795.11 818.837 1795.06 818.727ZM1795.61 819.482C1795.51 819.401 1795.43 819.302 1795.35 819.202L1752.7 851.094C1753.4 852.086 1753.62 853.288 1753.33 854.429L1769.95 859.01L1795.94 819.765C1795.83 819.675 1795.72 819.586 1795.61 819.482ZM1796.12 819.863L1770.17 859.046L1782.73 862.502L1796.6 820.083C1796.42 820.033 1796.28 819.953 1796.12 819.863ZM1796.78 820.163L1782.93 862.562L1797.75 866.645L1797.46 820.266C1797.25 820.258 1797.01 820.227 1796.78 820.163ZM1797.67 820.273L1797.96 866.7L1799.6 867.156L1831.87 852.546L1799.44 819.533C1798.95 819.992 1798.31 820.228 1797.67 820.273ZM1924.27 810.74C1924.21 810.603 1924.18 810.455 1924.15 810.288L1800.34 817.368C1800.37 818.094 1800.11 818.823 1799.57 819.393L1832.06 852.449L1924.27 810.74ZM1862.52 883.771L1832.02 852.717L1799.91 867.258L1862.15 884.411C1862.21 884.166 1862.35 883.959 1862.52 883.771ZM1862.08 884.708C1862.1 884.669 1862.1 884.636 1862.1 884.588L1799.61 867.362L1797.97 868.12L1798.03 878.765L1862.08 884.708ZM1797.75 868.213L1780.68 875.936C1780.86 876.336 1780.95 876.755 1780.94 877.191L1797.81 878.743L1797.75 868.213ZM1798.24 944.901L1797.82 878.963L1780.93 877.401C1780.86 877.999 1780.62 878.594 1780.16 879.072C1779.83 879.41 1779.44 879.658 1779.02 879.787L1797.95 944.938C1798.05 944.917 1798.13 944.921 1798.24 944.901ZM1797.74 944.978L1778.81 879.842C1778.31 879.952 1777.81 879.947 1777.34 879.804L1772.34 896.973L1797.58 945.046C1797.64 945.012 1797.68 945.012 1797.74 944.978ZM1797.41 945.139L1772.27 897.27L1767.84 912.483L1797.22 945.284C1797.28 945.231 1797.34 945.178 1797.41 945.139ZM1796.9 945.617C1796.94 945.555 1796.98 945.478 1797.04 945.425C1797.06 945.42 1797.06 945.42 1797.07 945.401L1767.78 912.728L1764.46 924.187L1796.9 945.617ZM1767.6 912.534L1748.72 891.432L1739.32 905.625C1739.37 905.673 1739.44 905.729 1739.5 905.772C1740.1 906.349 1740.21 907.222 1739.83 907.929L1764.26 924.079L1767.6 912.534ZM1744.5 992.146L1764.2 924.275L1739.73 908.107C1739.68 908.189 1739.6 908.261 1739.55 908.329C1739 908.884 1738.22 909.026 1737.57 908.755L1725.66 933.935L1743.14 992.165C1743.57 992.051 1744.05 992.046 1744.5 992.146ZM1742.94 992.22L1725.51 934.195L1717.76 950.537L1742.49 992.392C1742.64 992.323 1742.78 992.274 1742.94 992.22ZM1742.33 992.508L1717.67 950.777L1712.08 962.536L1741.95 992.784C1742.1 992.701 1742.19 992.605 1742.33 992.508ZM1741.81 992.929L1711.99 962.728L1709.74 967.484L1741.72 993.04C1741.76 993.011 1741.78 992.972 1741.81 992.929ZM1741.59 993.213L1709.64 967.695L1706.36 974.612L1741.42 993.478C1741.47 993.382 1741.54 993.295 1741.59 993.213ZM1741.28 993.752C1741.3 993.714 1741.31 993.675 1741.33 993.622L1706.29 974.78L1703.97 979.675L1741.28 993.752ZM1706.11 974.682L1667.25 953.771C1667.17 953.877 1667.08 953.988 1667 954.08C1666.73 954.364 1666.37 954.535 1666.02 954.611L1667.42 965.925L1703.79 979.625L1706.11 974.682ZM1677.49 1035.17L1703.7 979.817L1667.45 966.154L1676.01 1034.92C1676.53 1034.85 1677.02 1034.95 1677.49 1035.17ZM1675.81 1034.94L1667.23 966.071L1636.14 954.359C1636.02 954.69 1635.82 954.998 1635.56 955.263C1635.36 955.476 1635.13 955.636 1634.9 955.762L1675.08 1035.14C1675.31 1035.04 1675.56 1034.96 1675.81 1034.94ZM1674.9 1035.23L1634.72 955.855C1634.3 956.051 1633.85 956.141 1633.4 956.103L1629.64 996.395L1674.26 1035.73C1674.46 1035.53 1674.66 1035.36 1674.9 1035.23ZM1674.13 1035.87L1629.61 996.63L1627.09 1023.69L1673.58 1036.84C1673.7 1036.49 1673.88 1036.16 1674.13 1035.87ZM1627.81 1033.93C1628.39 1034.48 1628.65 1035.21 1628.65 1035.94L1673.47 1037.48C1673.48 1037.34 1673.5 1037.19 1673.54 1037.03L1627.09 1023.9L1626.24 1033.16C1626.81 1033.24 1627.36 1033.49 1627.81 1033.93ZM1626.03 1033.15L1626.9 1023.85L1622.93 1022.73L1625.34 1033.2C1625.56 1033.15 1625.8 1033.14 1626.03 1033.15ZM1625.15 1033.25L1622.71 1022.66L1617.15 1021.09L1624.52 1033.48C1624.73 1033.38 1624.92 1033.29 1625.15 1033.25ZM1624.35 1033.59L1616.85 1021.02L1609.08 1018.82L1608.62 1020.08L1623.87 1033.99C1624.02 1033.83 1624.18 1033.69 1624.35 1033.59ZM1610.26 1129.79L1625.3 1038.7C1624.8 1038.58 1624.3 1038.35 1623.91 1037.96C1623.05 1037.14 1622.84 1035.88 1623.28 1034.85L1606.11 1026.77L1594.65 1057.43L1609.08 1129.86C1609.49 1129.78 1609.88 1129.76 1610.26 1129.79ZM1608.46 1130.04C1608.6 1129.98 1608.75 1129.94 1608.89 1129.91L1594.53 1057.78L1587.71 1076.02L1608.46 1130.04ZM1587.61 1075.74L1594.45 1057.41L1586.5 1017.54L1561.24 1005.65C1561.17 1005.79 1561.08 1005.93 1560.96 1006.04C1560.79 1006.21 1560.62 1006.33 1560.43 1006.43L1572.91 1037.65C1574.34 1037.13 1576 1037.42 1577.15 1038.54C1578.76 1040.11 1578.82 1042.68 1577.23 1044.3C1576.83 1044.71 1576.38 1045.03 1575.86 1045.24L1587.61 1075.74ZM1527.74 1236.06L1587.5 1076.03L1575.7 1045.31C1574.99 1045.57 1574.22 1045.61 1573.46 1045.46L1527.47 1235.98C1527.55 1236 1527.64 1236.03 1527.74 1236.06ZM1527.28 1235.93L1573.28 1045.39C1572.63 1045.22 1572.01 1044.89 1571.49 1044.39C1571.14 1044.05 1570.87 1043.66 1570.68 1043.25L1553.02 1052.57L1527.09 1235.9C1527.15 1235.89 1527.21 1235.92 1527.28 1235.93ZM1526.14 1235.84C1526.4 1235.83 1526.63 1235.83 1526.89 1235.87L1552.8 1052.68L1520.03 1069.96L1526.14 1235.84ZM1442.34 1110.67L1519.81 1069.82L1518.77 1041.4L1441.86 1109.99C1442.06 1110.19 1442.21 1110.43 1442.34 1110.67ZM1441.61 1109.71C1441.66 1109.75 1441.69 1109.81 1441.74 1109.85L1518.76 1041.15L1518.02 1021.08L1441.51 1109.61C1441.54 1109.64 1441.58 1109.67 1441.61 1109.71ZM1441.34 1109.48L1517.99 1020.79L1516.69 985.185L1498.87 977.003C1498.75 977.253 1498.57 977.489 1498.37 977.687C1497.56 978.508 1496.38 978.74 1495.37 978.353L1440.44 1108.91C1440.76 1109.06 1441.08 1109.23 1441.34 1109.48ZM1440.25 1108.83L1495.17 978.279C1494.88 978.153 1494.61 977.974 1494.39 977.747C1494.03 977.392 1493.77 976.955 1493.65 976.483L1456.62 985.286L1439.37 1108.61C1439.69 1108.64 1439.97 1108.72 1440.25 1108.83ZM1438.47 1108.57C1438.7 1108.55 1438.94 1108.55 1439.17 1108.58L1456.41 985.326L1429.69 991.677L1438.47 1108.57ZM1378.63 1003.61L1429.49 991.521L1426.95 957.622L1378.21 1002.86C1378.4 1003.08 1378.55 1003.33 1378.63 1003.61ZM1377.99 1002.68L1426.06 945.891L1424.08 919.329C1423.8 919.346 1423.51 919.268 1423.27 919.16L1377.86 1002.59C1377.9 1002.61 1377.94 1002.64 1377.99 1002.68ZM1376.68 1002.33C1377.02 1002.29 1377.37 1002.33 1377.69 1002.49L1423.09 919.062C1422.98 919.005 1422.88 918.925 1422.77 918.835C1422.05 918.14 1422.04 916.993 1422.74 916.274C1422.75 916.269 1422.77 916.245 1422.8 916.22L1410.15 901.106L1361.41 920.599L1376.68 1002.33ZM1361.18 920.439L1360.25 915.467L1299.45 945.113L1361.18 920.439ZM1298.52 945.337L1360.23 915.267L1357.46 900.486L1298.44 945.219C1298.47 945.257 1298.49 945.299 1298.52 945.337ZM1298.2 944.92C1298.24 944.967 1298.28 945.02 1298.31 945.057L1357.4 900.267L1351.71 869.694L1298.07 944.821C1298.11 944.868 1298.15 944.887 1298.2 944.92ZM1297.78 944.633L1349.6 858.382L1345.44 836.12L1297.75 944.609C1297.76 944.623 1297.78 944.633 1297.78 944.633ZM1297.34 944.465C1297.42 944.483 1297.49 944.507 1297.58 944.525L1345.38 835.772L1343.57 826.068L1317.52 824.576L1297.34 944.465ZM1317.34 824.368L1321.67 798.749L1316.74 796.324L1175.68 816.115C1175.67 816.182 1175.7 816.205 1175.69 816.273L1317.34 824.368Z" fill="#111111"/>
</g>
<g opacity="0.3">
<path d="M604.173 1313.89C604.08 1312.62 602.979 1311.69 601.709 1311.79C601.281 1311.82 600.922 1311.97 600.592 1312.17L502.634 1183.94L579.652 1202.42C579.613 1202.58 579.594 1202.77 579.634 1202.95C579.72 1204.25 580.821 1205.18 582.091 1205.08C583.36 1204.99 584.307 1203.88 584.214 1202.61C584.138 1201.56 583.337 1200.71 582.331 1200.54L586.084 1067.52C586.1 1067.51 586.153 1067.52 586.186 1067.5C587.455 1067.41 588.402 1066.3 588.309 1065.03C588.216 1063.76 587.115 1062.83 585.846 1062.92C584.576 1063.01 583.62 1064.11 583.713 1065.38C583.72 1065.46 583.746 1065.58 583.77 1065.66L464.631 1096.23L464.226 1096.34L443.743 1101.59C443.566 1101 443.248 1100.47 442.818 1100.06L442.639 1099.87C442.454 1099.72 442.246 1099.59 442.028 1099.46L441.793 1099.33C441.275 1099.1 440.671 1099 440.061 1099.03C438.647 1099.14 437.502 1100.03 437.007 1101.3L426.304 1098.64L426.04 1098.58L373.153 1085.48L372.889 1085.42L361.8 1082.68C361.845 1082.5 361.854 1082.29 361.837 1082.07C361.81 1081.73 361.697 1081.4 361.528 1081.12L361.398 1080.9C361.329 1080.79 361.226 1080.69 361.15 1080.6L360.955 1080.43C360.532 1080.1 359.974 1079.92 359.39 1079.96C358.405 1080.04 357.622 1080.71 357.357 1081.61L266.048 1060.37L231.999 999.767C232.697 999.323 233.127 998.547 233.064 997.663C232.972 996.394 231.871 995.464 230.601 995.557C229.375 995.646 228.481 996.658 228.481 997.849L185.88 1000.22L171.072 976.118C171.664 975.648 172.028 974.911 171.963 974.097C171.88 972.956 170.974 972.088 169.846 972.006L169.512 911.729C170.715 911.563 171.606 910.509 171.516 909.282C171.414 907.996 170.303 907.05 169.043 907.159C167.774 907.252 166.844 908.353 166.91 909.616L110.467 917.002L106.852 902.651C107.88 902.345 108.596 901.373 108.497 900.242C108.404 898.973 107.303 898.043 106.033 898.136C105.005 898.218 104.209 898.946 103.981 899.87L30.1405 885.302L-6.70633 810.104C-5.49796 809.464 -4.6808 808.139 -4.79733 806.682C-4.94506 804.726 -6.65776 803.267 -8.62288 803.399C-9.50652 803.461 -10.2705 803.832 -10.8558 804.388L-125.997 696.577C-125.625 696.15 -125.413 695.572 -125.454 694.946C-125.557 693.66 -126.642 692.72 -127.928 692.823C-129.197 692.916 -130.127 694.017 -130.034 695.286C-129.941 696.555 -128.84 697.485 -127.587 697.402C-127.33 697.382 -127.093 697.328 -126.869 697.216L-70.8309 813.032L-125.849 818.501C-126.021 817.324 -127.072 816.477 -128.272 816.573C-129.558 816.675 -130.498 817.76 -130.395 819.046C-130.302 820.315 -129.201 821.245 -127.915 821.142C-127.246 821.097 -126.654 820.74 -126.269 820.26L-58.8822 866.652L-113.011 930.715C-113.434 930.386 -113.975 930.197 -114.549 930.251C-115.835 930.354 -116.775 931.439 -116.672 932.724C-116.579 933.994 -115.478 934.924 -114.209 934.831C-113.154 934.755 -112.295 933.945 -112.127 932.922L-63.0545 938.436L-99.0655 1020.74C-99.574 1020.53 -100.125 1020.43 -100.699 1020.49C-102.654 1020.64 -104.123 1022.33 -103.975 1024.29C-103.827 1026.24 -102.121 1027.73 -100.166 1027.58C-98.7252 1027.47 -97.5672 1026.53 -97.0896 1025.27L-49.1708 1041.93L-68.6966 1117.42C-68.9836 1117.39 -69.2706 1117.36 -69.5707 1117.38C-71.5258 1117.53 -72.9948 1119.23 -72.8372 1121.2C-72.6895 1123.15 -70.9832 1124.64 -69.0281 1124.49C-68.0323 1124.43 -67.1565 1123.95 -66.542 1123.22L-21.5227 1158.2C-21.9956 1158.87 -22.2668 1159.69 -22.1982 1160.54C-22.1122 1161.73 -21.4728 1162.71 -20.5805 1163.3L-80.114 1264.53C-81.0127 1263.97 -82.0952 1263.7 -83.236 1263.78C-86.0913 1264 -88.2571 1266.48 -88.0275 1269.35C-87.8177 1272.19 -85.3082 1274.34 -82.4429 1274.13C-79.6041 1273.92 -77.4582 1271.41 -77.6679 1268.58C-77.7063 1267.88 -77.9062 1267.21 -78.2213 1266.62L-14.1728 1230.91L-86.1327 1435.67C-86.7533 1435.46 -87.4164 1435.37 -88.1286 1435.42C-90.984 1435.64 -93.1233 1438.12 -92.9036 1440.97C-92.674 1443.85 -90.2007 1445.97 -87.3455 1445.75C-84.4902 1445.53 -82.3244 1443.05 -82.5441 1440.2C-82.6336 1438.97 -83.1612 1437.87 -83.9718 1437.02L57.1436 1280.05L99.4861 1382.98C97.5728 1383.87 96.2827 1385.86 96.461 1388.09C96.6707 1390.93 99.1638 1393.08 102.019 1392.86C104.874 1392.64 107.014 1390.16 106.811 1387.29C106.711 1386.05 106.184 1384.95 105.409 1384.12L209.206 1277.13L249.013 1330.35C248.454 1330.8 248.14 1331.5 248.191 1332.26C248.294 1333.54 249.405 1334.49 250.648 1334.39C251.918 1334.3 252.864 1333.19 252.771 1331.92C252.737 1331.49 252.574 1331.07 252.306 1330.74L333.81 1263.35L374.549 1338.78C373.841 1339.21 373.388 1340.02 373.45 1340.9C373.553 1342.19 374.638 1343.13 375.907 1343.03C377.177 1342.94 378.123 1341.83 378.03 1340.56C377.972 1339.83 377.568 1339.2 377.003 1338.82L454.995 1205.3L599.955 1312.82C599.685 1313.23 599.535 1313.73 599.576 1314.24C599.679 1315.53 600.764 1316.47 602.033 1316.38C603.319 1316.27 604.275 1315.18 604.173 1313.89ZM599.902 1311.73L479.018 1178.28L502.232 1183.86L599.902 1311.73ZM32.3216 1207.32C32.2732 1206.61 32.0834 1205.96 31.7683 1205.36L69.4045 1185.03C69.5636 1185.29 69.7885 1185.51 70.0364 1185.7L39.0887 1235.63L29.4939 1212.31C31.3281 1211.4 32.4929 1209.46 32.3216 1207.32ZM-21.1325 942.675C-21.1393 942.589 -21.1627 942.514 -21.1695 942.428L9.50766 934.971L9.58326 951.236L-32.6669 979.142L-23.8723 945.094C-23.6875 945.14 -23.4698 945.166 -23.2554 945.148C-21.986 945.056 -21.0396 943.945 -21.1325 942.675ZM-48.7764 855.042L-30.8906 863.154L-36.7135 877.725C-37.1856 877.538 -37.7103 877.451 -38.2609 877.469C-38.6203 877.506 -38.9598 877.577 -39.2859 877.706L-49.7063 856.143L-48.7764 855.042ZM-49.8391 855.887L-50.6554 854.201L-49.0175 854.941L-49.8391 855.887ZM-30.6726 863.292L-15.508 870.171L-16.7051 881.094L-34.4282 880.95C-34.4416 880.891 -34.4186 880.854 -34.4319 880.795C-34.5382 879.466 -35.343 878.357 -36.4625 877.843L-30.6726 863.292ZM12.7411 885.322L35.7604 910.484L24.0286 912.225L9.62457 904.931L9.55251 886.552C9.63822 886.545 9.71742 886.564 9.80312 886.558C10.924 886.442 11.9319 885.991 12.7411 885.322ZM47.0422 922.428L45.2754 920.507L46.8468 919.985L47.8124 921.918C47.5391 922.06 47.2757 922.219 47.0422 922.428ZM132.835 968.866L162.127 993.069L158.661 1001.72L135.144 1003.03L131.511 969.576C132.032 969.508 132.486 969.256 132.835 968.866ZM199.046 1023.54C198.774 1023.91 198.627 1024.33 198.595 1024.8L149.567 1025.24L151.027 1021.59L184.618 1011.63L199.046 1023.54ZM184.915 1011.56L191.353 1009.65L199.566 1023.02C199.434 1023.1 199.306 1023.22 199.187 1023.36L184.915 1011.56ZM455.311 1107.83L499.082 1122.68C498.968 1123.09 498.89 1123.52 498.934 1123.96C498.992 1124.69 499.261 1125.36 499.665 1125.88L474.306 1146.86L449.771 1114.73L455.311 1107.83ZM449.599 1114.52L442.587 1105.36C443.064 1104.96 443.428 1104.45 443.657 1103.86L455.06 1107.71L449.599 1114.52ZM231.23 1179.6L246.54 1154.96C247.28 1155.37 248.145 1155.61 249.042 1155.61L249.436 1208.55L234.905 1208.3L231.23 1179.6ZM234.628 1208.28L213.6 1207.91L230.991 1179.95L234.628 1208.28ZM83.77 1134.88L96.4396 1153.17C95.7384 1153.57 95.3053 1154.31 95.2847 1155.13L56.5137 1156.85L83.77 1134.88ZM40.1919 1169.7L16.019 1158.91L55.7528 1157.15L40.1919 1169.7ZM52.3394 927.068L84.555 946.293L77.9 960.491L32.9358 976.466L48.393 928.531C48.7825 928.656 49.2081 928.691 49.6367 928.656C50.771 928.6 51.7551 927.961 52.3394 927.068ZM93.0187 1005.64L104.658 1005.01L103.824 1065.02C103.781 1065.03 103.738 1065.03 103.695 1065.03C103.593 1065.05 103.517 1065.07 103.422 1065.06L89.2978 1010.78C91.5153 1010.14 93.1085 1008.05 93.0187 1005.64ZM93.0146 1005.37C92.9255 1004.25 92.4839 1003.26 91.8152 1002.45L104.863 990.842L104.671 1004.73L93.0146 1005.37ZM104.911 1004.72L105.113 990.623L124.403 973.466L131.88 1003.21L104.911 1004.72ZM91.6267 1002.25C90.8987 1001.46 89.8978 1000.92 88.8023 1000.7L96.9547 956.034C97.1196 956.047 97.2582 956.053 97.4296 956.039C98.2868 955.97 98.9943 955.431 99.3416 954.704L105.341 957.123L104.862 990.505L91.6267 1002.25ZM99.4366 954.489C99.5347 954.206 99.57 953.892 99.5526 953.566C99.5351 953.239 99.4319 952.92 99.2728 952.656L105.438 948.842L105.337 956.856L99.4366 954.489ZM96.7171 955.975L88.5482 1000.65C88.1919 1000.62 87.8193 1000.6 87.4599 1000.64C84.6046 1000.86 82.4817 1003.33 82.675 1006.18L55.469 1008.82L65.1551 988.185L95.7759 955.533C96.0437 955.753 96.3739 955.89 96.7171 955.975ZM55.1591 1008.83L44.8431 1009.82L64.5732 988.784L55.1591 1008.83ZM44.4672 1009.87L21.4385 1012.1L32.8313 976.777L77.7361 960.814L64.96 988.011L44.4672 1009.87ZM78.2096 960.371L84.7665 946.457L95.2297 952.695C95.0363 953.081 94.9386 953.477 94.9663 953.933C94.9801 954.104 95.0002 954.249 95.0469 954.401L78.2096 960.371ZM32.5216 976.896L21.1549 1012.12L10.1202 1013.19L9.98847 984.893L32.5216 976.896ZM21.0733 1012.39L16.5415 1026.38L10.1795 1026.23L10.1144 1013.44L21.0733 1012.39ZM21.3469 1012.36L44.1977 1010.17L28.7279 1026.66L16.8285 1026.41L21.3469 1012.36ZM44.6 1010.13L55.0346 1009.1L47.5603 1025.03C47.2301 1024.9 46.8804 1024.84 46.5375 1024.86C45.3803 1024.96 44.5123 1025.86 44.4201 1026.97L29.0808 1026.65L44.6 1010.13ZM55.3346 1009.08L82.7055 1006.45C82.7864 1007.03 82.9431 1007.59 83.1985 1008.09L48.6912 1026.01C48.4724 1025.65 48.1714 1025.34 47.7949 1025.16L55.3346 1009.08ZM83.3113 1008.31C83.6826 1008.96 84.1956 1009.55 84.8004 1009.99L64.4329 1039.46L48.6654 1028.39C48.9181 1027.99 49.0519 1027.5 49.0107 1026.99C48.9902 1026.73 48.9267 1026.48 48.804 1026.24L83.3113 1008.31ZM85.0185 1010.13C85.9306 1010.75 87.0594 1011.06 88.2431 1010.97C88.5266 1010.96 88.7903 1010.91 89.0341 1010.83L103.168 1065.13C102.723 1065.28 102.348 1065.56 102.056 1065.89L64.6411 1039.58L85.0185 1010.13ZM101.918 1066.11C101.813 1066.31 101.724 1066.49 101.662 1066.69L53.2836 1056.04L64.4868 1039.81L101.918 1066.11ZM104.058 1065.04L104.915 1004.99L131.953 1003.48L136.62 1022.03C134.952 1022.43 133.757 1023.98 133.891 1025.76C133.969 1026.75 134.427 1027.62 135.121 1028.21L105.181 1065.48C104.867 1065.23 104.484 1065.07 104.058 1065.04ZM223.857 1064.31L220.658 1095.72C220.572 1095.73 220.476 1095.72 220.374 1095.73C220.272 1095.75 220.17 1095.77 220.068 1095.78L206.373 1044.93L213.661 1046.95L223.857 1064.31ZM214.047 1047.03L225.299 1050.19L223.892 1063.89L214.047 1047.03ZM346.818 1126.53L385.413 1153.9L384.279 1155.03L330.043 1139.86L339.528 1127.93L345.472 1126.42L346.818 1126.53ZM346.243 1126.25L346.362 1126.22L346.418 1126.28L346.243 1126.25ZM340.889 1195.22L308.908 1166.53L318.524 1154.41L341.29 1194.96C341.149 1195.02 341.01 1195.13 340.889 1195.22ZM60.3272 1100.53L70.6718 1092.67L104.882 1114.93C104.692 1115.25 104.6 1115.62 104.588 1116.01L71.6521 1116.9L60.3272 1100.53ZM71.352 1116.92L37.5023 1117.83L60.1067 1100.69L71.352 1116.92ZM140.176 1027.76L146.187 1033.03L138.626 1051.97L105.925 1066.27C105.799 1065.99 105.62 1065.8 105.395 1065.58L135.32 1028.32C135.997 1028.8 136.823 1029.09 137.723 1029.02C138.702 1028.97 139.578 1028.48 140.176 1027.76ZM186.136 1117.68L178.973 1117.53L217.372 1099.73L186.136 1117.68ZM218.64 1099.3C218.736 1099.42 218.816 1099.55 218.928 1099.66L202.386 1118.06L186.631 1117.71L218.64 1099.3ZM178.376 1117.51L113.325 1116.08L113.711 1115.08L218.322 1098.55C218.358 1098.68 218.401 1098.79 218.448 1098.94L178.376 1117.51ZM113.819 1114.81L117.311 1106.05L145.751 1078.49L218.312 1097.56C218.276 1097.76 218.261 1098 218.268 1098.2C218.271 1098.24 218.275 1098.28 218.294 1098.32L113.819 1114.81ZM117.55 1105.48L129.984 1074.34L145.451 1078.41L117.55 1105.48ZM145.974 1078.27L170.56 1054.41L218.744 1096.61C218.58 1096.82 218.446 1097.08 218.361 1097.31L145.974 1078.27ZM145.674 1078.18L130.076 1074.08L138.815 1052.17L158.296 1043.66L170.365 1054.23L145.674 1078.18ZM129.812 1074.01L106.098 1067.78C106.134 1067.58 106.149 1067.35 106.132 1067.13C106.115 1066.92 106.055 1066.71 105.989 1066.52L138.456 1052.32L129.812 1074.01ZM138.953 1051.84L146.376 1033.23L158.075 1043.48L138.953 1051.84ZM103.871 1069.6L106.61 1113.78C105.944 1113.87 105.384 1114.2 105.036 1114.71L70.8824 1092.5L102.107 1068.8C102.544 1069.3 103.182 1069.61 103.871 1069.6ZM60.1815 1100.33L43.4045 1076.09C43.648 1075.9 43.8781 1075.65 44.0718 1075.38L70.4439 1092.51L60.1815 1100.33ZM106.87 1113.8L104.131 1069.62C105.038 1069.52 105.772 1068.88 106.033 1068.05L129.704 1074.28L117.077 1105.93L108.389 1114.34C107.999 1113.99 107.464 1113.78 106.87 1113.8ZM116.87 1106.48L113.529 1114.85L109.115 1115.54C109.031 1115.15 108.849 1114.81 108.584 1114.52L116.87 1106.48ZM113.421 1115.12L113.031 1116.08L109.159 1115.99C109.149 1115.97 109.172 1115.94 109.169 1115.89C109.159 1115.88 109.155 1115.83 109.145 1115.82L113.421 1115.12ZM112.94 1116.33L112.56 1117.3L109.138 1116.47C109.151 1116.42 109.16 1116.33 109.18 1116.25L112.94 1116.33ZM113.207 1116.33L177.852 1117.76L156.166 1127.83L112.798 1117.36L113.207 1116.33ZM178.439 1117.76L185.708 1117.93L164.882 1129.91L156.579 1127.92L178.439 1117.76ZM186.2 1117.93L202.162 1118.28L186.928 1135.24L165.235 1130.01L186.2 1117.93ZM219.114 1099.82C219.16 1099.86 219.216 1099.92 219.279 1099.95L208.616 1118.18L202.712 1118.04L219.114 1099.82ZM219.513 1100.07C219.873 1100.26 220.286 1100.35 220.741 1100.32C220.767 1100.33 220.784 1100.32 220.8 1100.31L223.144 1118.5L208.952 1118.18L219.513 1100.07ZM221.047 1100.27C221.225 1100.23 221.384 1100.16 221.542 1100.08L231.656 1118.69L223.395 1118.51L221.047 1100.27ZM221.766 1099.97C222.035 1099.79 222.285 1099.57 222.463 1099.3L254.133 1118.29C253.982 1118.57 253.911 1118.86 253.875 1119.17L231.966 1118.68L221.766 1099.97ZM253.863 1119.45C253.857 1119.47 253.85 1119.5 253.86 1119.52C253.942 1120.54 254.654 1121.35 255.588 1121.59L250.182 1145.37C249.69 1145.26 249.169 1145.22 248.655 1145.26C247.943 1145.31 247.277 1145.51 246.697 1145.81L232.092 1118.96L253.863 1119.45ZM258.44 1119.4C258.43 1119.38 258.437 1119.36 258.453 1119.35L275.532 1117.79L276.916 1120.86L258.44 1119.4ZM277.022 1121.11L279.038 1125.6L258.379 1119.82C258.392 1119.77 258.412 1119.69 258.425 1119.63L277.022 1121.11ZM258.423 1119.07C258.403 1118.93 258.402 1118.82 258.349 1118.69L273.496 1113.27L275.415 1117.52L258.423 1119.07ZM279.184 1125.92L285.967 1141.05L281.686 1142.11L257.93 1120.79C258.104 1120.59 258.232 1120.36 258.324 1120.1L279.184 1125.92ZM339.096 1128.03L329.762 1139.8L311.929 1134.83L339.096 1128.03ZM339.777 1127.6L340.976 1126.09L344.658 1126.38L339.777 1127.6ZM329.598 1140.01L318.996 1153.41L318.244 1153.39L308.334 1135.72L311.464 1134.95L329.598 1140.01ZM286.334 1141.21L308.063 1135.79L317.931 1153.35L292.996 1152.24L290.132 1149.66L286.334 1141.21ZM289.659 1149.25L281.944 1142.31L286.096 1141.27L289.659 1149.25ZM308.194 1135.49L307.22 1133.76L310.943 1134.79L308.194 1135.49ZM307.941 1135.55L286.221 1140.99L279.504 1126.04L306.876 1133.68L307.941 1135.55ZM281.4 1142.19L270.149 1144.99L257.351 1121.32C257.499 1121.23 257.638 1121.12 257.772 1120.97L281.4 1142.19ZM270.028 1145.31L273.318 1151.39L254.244 1150.53C254.257 1150.37 254.253 1150.21 254.239 1150.04C254.219 1149.79 254.172 1149.52 254.118 1149.28L270.028 1145.31ZM270.289 1145.22L281.631 1142.39L289.921 1149.83L290.971 1152.16L273.612 1151.39L270.289 1145.22ZM290.404 1150.26L292.616 1152.24L291.274 1152.18L290.404 1150.26ZM292.904 1152.5L308.555 1166.54L301.63 1175.31L291.364 1152.44L292.904 1152.5ZM308.73 1166.35L293.31 1152.5L318.09 1153.62L318.382 1154.14L308.73 1166.35ZM318.403 1153.65L318.793 1153.66L318.572 1153.93L318.403 1153.65ZM319.3 1153.42L329.872 1140.1L384.078 1155.22L383.056 1156.25L319.3 1153.42ZM385.641 1154.05L386.63 1154.76C386.469 1155.01 386.334 1155.28 386.246 1155.58L384.579 1155.12L385.641 1154.05ZM384.362 1155.32L386.155 1155.83C386.109 1156.02 386.08 1156.19 386.071 1156.4L383.396 1156.29L384.362 1155.32ZM389.355 1153.14C388.284 1153.22 387.352 1153.76 386.751 1154.55L385.809 1153.89L406.806 1132.93C406.816 1132.95 406.852 1132.97 406.878 1132.98L391.666 1153.76C391.008 1153.31 390.212 1153.07 389.355 1153.14ZM385.591 1153.75L347.323 1126.59L406.035 1131.17C406.022 1131.23 406.029 1131.31 406.036 1131.4C406.077 1131.91 406.296 1132.39 406.627 1132.75L385.591 1153.75ZM345.435 1126.18L341.157 1125.86L342.842 1123.74L346.071 1126.04L345.435 1126.18ZM339.372 1127.71L311.46 1134.68L307.047 1133.44L301.182 1122.99L340.673 1126.07L339.372 1127.71ZM306.694 1133.34L279.374 1125.71L277.326 1121.13L300.878 1122.97L306.694 1133.34ZM277.2 1120.85L275.785 1117.73L296.846 1115.81L300.709 1122.69L277.2 1120.85ZM275.689 1117.49L273.747 1113.16L291.737 1106.72L296.697 1115.56L275.689 1117.49ZM273.65 1112.93L264.779 1093.15L282.973 1091.1L291.614 1106.48L273.65 1112.93ZM273.4 1113.04L258.253 1118.46C257.881 1117.58 257.005 1116.99 255.993 1117.06L253.145 1094.49L264.515 1093.2L273.4 1113.04ZM253.108 1094.25L248.779 1059.97C249.033 1059.91 249.27 1059.85 249.494 1059.74L264.392 1092.96L253.108 1094.25ZM252.887 1094.51L255.746 1117.1C255.541 1117.13 255.347 1117.18 255.166 1117.29L242.526 1095.7L252.887 1094.51ZM254.942 1117.4C254.672 1117.59 254.448 1117.81 254.261 1118.06L222.6 1099.08C222.781 1098.75 222.869 1098.34 222.854 1097.94L242.252 1095.73L254.942 1117.4ZM222.834 1097.69C222.733 1097.07 222.398 1096.56 221.929 1096.19L232.871 1079.71L242.113 1095.5L222.834 1097.69ZM221.717 1096.02C221.473 1095.88 221.199 1095.8 220.918 1095.74L224.086 1064.69L232.722 1079.47L221.717 1096.02ZM206.322 1044.62L201.6 1027.1C201.735 1027.06 201.86 1027.01 201.975 1026.94L213.498 1046.64L206.322 1044.62ZM206.105 1044.82L219.84 1095.85C219.488 1095.98 219.175 1096.17 218.929 1096.43L170.771 1054.24L186.216 1039.27L206.105 1044.82ZM170.559 1054.07L158.573 1043.56L175.353 1036.23L185.915 1039.18L170.559 1054.07ZM158.341 1043.37L146.477 1032.99L148.219 1028.66L174.957 1036.14L158.341 1043.37ZM146.289 1032.79L140.333 1027.58C140.56 1027.28 140.731 1026.93 140.848 1026.57L147.978 1028.55L146.289 1032.79ZM140.923 1026.32C140.982 1026.09 141.014 1025.84 141.02 1025.59L149.192 1025.51L148.073 1028.34L140.923 1026.32ZM140.999 1025.33C140.996 1025.29 140.993 1025.25 140.989 1025.21C140.982 1025.01 140.938 1024.79 140.888 1024.59L150.691 1021.7L149.283 1025.25L140.999 1025.33ZM140.818 1024.36C140.326 1022.84 138.845 1021.8 137.2 1021.95L135.175 1003.31L158.563 1002.01L150.822 1021.4L140.818 1024.36ZM136.926 1021.98C136.926 1021.98 136.9 1021.97 136.883 1021.98L132.227 1003.45L134.908 1003.31L136.926 1021.98ZM101.603 1067.67C101.657 1068.02 101.786 1068.34 101.972 1068.61L70.6743 1092.37L44.2196 1075.17C44.5773 1074.58 44.7696 1073.85 44.7113 1073.12L101.603 1067.67ZM41.4315 1076.88C42.1008 1076.84 42.7036 1076.61 43.2104 1076.25L59.9874 1100.49L37.0901 1117.85L25.7101 1118.17L40.2406 1076.77C40.6102 1076.86 41.0193 1076.9 41.4315 1076.88ZM36.705 1118.11L21.6914 1129.51L25.5822 1118.4L36.705 1118.11ZM37.1535 1118.11L71.5176 1117.16L77.7779 1126.19L15.1162 1148.27L21.5443 1129.94L37.1535 1118.11ZM71.8376 1117.17L104.592 1116.28C104.603 1116.41 104.633 1116.57 104.67 1116.7L78.0217 1126.11L71.8376 1117.17ZM104.776 1116.95C104.859 1117.13 104.932 1117.28 105.038 1117.42L83.8448 1134.52L78.1774 1126.33L104.776 1116.95ZM105.174 1117.61C105.637 1118.12 106.317 1118.42 107.056 1118.38C108.025 1118.31 108.808 1117.64 109.082 1116.75L112.452 1117.57L98.3057 1152.99C98.0317 1152.91 97.7248 1152.84 97.3984 1152.86C97.1412 1152.88 96.8974 1152.96 96.6635 1153.06L83.9641 1134.71L105.174 1117.61ZM98.5567 1153.11L112.713 1117.59L155.791 1127.99L99.5819 1154.06C99.3662 1153.63 98.986 1153.3 98.5567 1153.11ZM156.187 1128.09L164.543 1130.09L106.984 1163.22L99.3785 1156.59C99.7235 1156.15 99.9031 1155.59 99.8552 1154.99C99.8445 1154.75 99.7746 1154.53 99.6882 1154.31L156.187 1128.09ZM97.7586 1157.47C98.3422 1157.44 98.846 1157.15 99.2307 1156.79L106.763 1163.38L97.9139 1168.48L97.7257 1157.49C97.7322 1157.47 97.7322 1157.47 97.7586 1157.47ZM97.6547 1168.91L98.0281 1190.94L73.617 1184.3C73.6691 1184.09 73.6884 1183.9 73.6777 1183.66C73.6537 1183.36 73.5704 1183.07 73.4477 1182.83L97.6547 1168.91ZM97.9081 1168.73L106.958 1163.55L137.495 1190.26L129.255 1199.42L98.3085 1191L97.9081 1168.73ZM107.189 1163.42L164.913 1130.18L186.737 1135.44L137.659 1190.05L107.189 1163.42ZM202.492 1118.31L208.482 1118.44L197.212 1137.72L187.202 1135.32L202.492 1118.31ZM208.782 1118.42L223.165 1118.76L226.495 1144.76L197.476 1137.78L208.782 1118.42ZM223.432 1118.76L231.805 1118.93L246.474 1145.93C245.311 1146.61 244.451 1147.71 244.072 1149.02L226.769 1144.85L223.432 1118.76ZM243.987 1149.25C243.88 1149.74 243.835 1150.26 243.88 1150.82C243.935 1151.62 244.185 1152.37 244.556 1153.02L229.022 1162.56L226.789 1145.1L243.987 1149.25ZM250.43 1145.45L255.842 1121.64C256.007 1121.66 256.162 1121.65 256.333 1121.64C256.617 1121.62 256.894 1121.52 257.127 1121.43L269.906 1145.07L254.028 1149.02C253.535 1147.28 252.149 1145.91 250.43 1145.45ZM246.306 1154.84L231.163 1179.19L229.063 1162.85L244.679 1153.26C245.116 1153.87 245.678 1154.43 246.306 1154.84ZM249.283 1155.6C249.326 1155.59 249.369 1155.59 249.428 1155.58C250.012 1155.54 250.578 1155.4 251.095 1155.18L273.948 1207.06C273.244 1207.42 272.764 1208.11 272.701 1208.94L249.677 1208.54L249.283 1155.6ZM274.818 1206.83C274.604 1206.85 274.383 1206.89 274.182 1206.97L251.336 1155.05C252.972 1154.27 254.076 1152.64 254.212 1150.78L273.457 1151.62L292.467 1186.84L276.3 1207.24C275.897 1206.94 275.359 1206.79 274.818 1206.83ZM273.744 1151.65L291.087 1152.43L301.449 1175.53L292.641 1186.65L273.744 1151.65ZM308.76 1166.73L340.704 1195.4C340.284 1195.86 340.038 1196.45 340.1 1197.11C340.103 1197.16 340.106 1197.2 340.116 1197.22L313.626 1202.01L301.753 1175.55L308.76 1166.73ZM342.216 1194.67C341.975 1194.68 341.748 1194.75 341.531 1194.83L318.705 1154.19L319.112 1153.67L382.799 1156.49L343.956 1195.28C343.499 1194.86 342.885 1194.62 342.216 1194.67ZM383.172 1156.51L386.065 1156.65C386.072 1156.74 386.062 1156.83 386.079 1156.94C386.137 1157.66 386.426 1158.37 386.84 1158.9L344.769 1194.88L383.172 1156.51ZM391.867 1153.91L407.09 1133.14C407.308 1133.28 407.576 1133.39 407.856 1133.44L403.728 1159.93L393.111 1157.38C393.179 1157.05 393.205 1156.72 393.171 1156.4C393.108 1155.41 392.598 1154.52 391.867 1153.91ZM403.696 1160.18L402.748 1166.23L392.558 1158.66C392.774 1158.35 392.928 1158.01 393.036 1157.63L403.696 1160.18ZM403.943 1160.25L426.207 1165.61L421.915 1180.44L402.986 1166.4L403.943 1160.25ZM437.71 1133.07L460.525 1158.26L446.153 1170.14L426.52 1165.42L435.743 1133.49C435.964 1133.56 436.198 1133.58 436.422 1133.58C436.927 1133.52 437.362 1133.35 437.71 1133.07ZM426.445 1165.66L445.909 1170.33L428.116 1185.05L422.137 1180.62L426.445 1165.66ZM460.704 1158.45L473.688 1172.8L471.66 1176.25L446.47 1170.21L460.704 1158.45ZM460.905 1158.26L474.257 1147.23L482.382 1157.89L473.823 1172.54L460.905 1158.26ZM474.451 1147.06L499.844 1126.06C500.062 1126.31 500.33 1126.53 500.594 1126.71L482.543 1157.63L474.451 1147.06ZM474.111 1147.02L460.726 1158.07L437.895 1132.89C438.348 1132.41 438.617 1131.78 438.562 1131.09C438.524 1130.51 438.239 1129.96 437.838 1129.6L449.617 1114.96L474.111 1147.02ZM435.489 1133.44L426.282 1165.36L403.976 1160.01L408.094 1133.5C408.226 1133.54 408.354 1133.53 408.499 1133.51C409.769 1133.41 410.715 1132.3 410.632 1131.05C410.594 1130.58 410.405 1130.15 410.134 1129.78L419.958 1121.01L434.259 1130.14C434.039 1130.52 433.944 1130.96 433.982 1131.43C434.031 1132.37 434.663 1133.16 435.489 1133.44ZM409.955 1129.59C409.843 1129.48 409.714 1129.38 409.578 1129.3L415.629 1118.23L419.74 1120.87L409.955 1129.59ZM409.344 1129.18C409 1128.98 408.588 1128.89 408.149 1128.91C407.051 1128.99 406.18 1129.85 406.048 1130.9L346.91 1126.27L346.672 1126.1L405.108 1111.49L415.391 1118.06L409.344 1129.18ZM405.484 1111.45L421.173 1107.52L415.523 1117.87L405.484 1111.45ZM405.184 1111.25L397.838 1106.56L422.948 1104.24L421.347 1107.21L405.184 1111.25ZM404.838 1111.34L346.417 1125.94L343.007 1123.53L353.217 1110.65L397.41 1106.6L404.838 1111.34ZM342.779 1123.38L328.072 1112.94L352.832 1110.68L342.779 1123.38ZM342.631 1123.58L340.844 1125.83L301.022 1122.72L297.12 1115.78L327.696 1112.99L342.631 1123.58ZM296.997 1115.54L291.997 1106.63L309.75 1100.24L327.375 1112.76L296.997 1115.54ZM291.868 1106.42L283.247 1091.07L294.917 1089.75L309.495 1100.08L291.868 1106.42ZM283.114 1090.81L274.285 1075.12L294.597 1089.51L283.114 1090.81ZM282.824 1090.85L264.656 1092.91L249.708 1059.61C250.205 1059.36 250.607 1058.98 250.925 1058.54L273.789 1074.74L282.824 1090.85ZM252.867 1094.26L242.393 1095.44L233.032 1079.46L246.262 1059.56C246.866 1059.89 247.563 1060.08 248.318 1060.03C248.387 1060.03 248.463 1060.01 248.522 1059.99L252.867 1094.26ZM232.892 1079.23L224.121 1064.26L225.546 1050.26L244.607 1055.59C244.516 1055.96 244.461 1056.36 244.492 1056.74C244.575 1057.88 245.178 1058.84 246.044 1059.42L232.892 1079.23ZM225.585 1049.99L226.405 1042.01L245.138 1054.47C244.961 1054.73 244.804 1055.03 244.699 1055.34L225.585 1049.99ZM225.321 1049.92L213.858 1046.72L202.179 1026.79C202.393 1026.66 202.561 1026.49 202.709 1026.29L226.124 1041.85L225.321 1049.92ZM201.346 1027.16L206.022 1044.53L186.396 1039.04L199.27 1026.55C199.72 1027 200.344 1027.25 201.039 1027.21C201.158 1027.18 201.26 1027.17 201.346 1027.16ZM186.112 1038.95L175.709 1036.04L198.823 1025.92C198.896 1026.08 199.002 1026.22 199.098 1026.34L186.112 1038.95ZM175.313 1035.94L148.3 1028.38L149.459 1025.5L198.589 1025.05C198.599 1025.07 198.599 1025.07 198.599 1025.07C198.61 1025.31 198.686 1025.51 198.753 1025.69L175.313 1035.94ZM151.151 1021.31L158.863 1001.98L172.039 1001.26L184.407 1011.47L151.151 1021.31ZM158.971 1001.72L162.348 993.25L171.734 1001.01L158.971 1001.72ZM134.887 1003.06L132.163 1003.2L124.646 973.274L129.527 968.932C129.977 969.379 130.601 969.631 131.28 969.603L134.887 1003.06ZM124.573 973.004L122.293 963.912L128.969 966.596C128.871 966.88 128.836 967.193 128.86 967.493C128.898 967.964 129.07 968.399 129.358 968.764L124.573 973.004ZM124.346 973.186L105.135 990.251L105.599 957.215L121.989 963.781L124.346 973.186ZM105.605 956.964L105.711 948.699L116.508 942.064L121.906 963.494L105.605 956.964ZM95.5972 955.349L65.509 987.432L78.0556 960.711L95.1268 954.644C95.2595 954.901 95.3987 955.132 95.5972 955.349ZM97.7754 951.517L103.367 918.191L105.902 917.851L105.467 948.555L99.16 952.432C98.8123 951.969 98.3299 951.653 97.7754 951.517ZM97.5049 951.478C97.3663 951.472 97.2278 951.465 97.0728 951.469C96.3442 951.527 95.7286 951.922 95.3511 952.487L84.8681 946.216L97.6736 918.957L103.087 918.248L97.5049 951.478ZM84.65 946.079L52.4773 926.85C52.7921 926.256 52.9714 925.586 52.9132 924.857C52.9032 924.841 52.8933 924.824 52.8998 924.798L97.39 918.971L84.65 946.079ZM48.1389 928.483L32.6262 976.586L10.0107 984.632L9.85413 951.387L46.4663 927.202C46.8672 927.791 47.472 928.234 48.1389 928.483ZM9.84658 951.077L9.76141 934.908L45.9222 926.115C46.0254 926.435 46.1516 926.718 46.3206 926.998L9.84658 951.077ZM9.75729 934.641L9.74298 932.088L41.9873 921.573L46.1126 923.641C45.8537 924.179 45.7467 924.783 45.7881 925.41C45.7919 925.565 45.8221 925.726 45.8588 925.861L9.75729 934.641ZM23.9963 912.469L41.6801 921.399L9.75537 931.811L9.6702 914.563L23.9963 912.469ZM9.66609 914.296L9.62215 905.224L23.5835 912.269L9.66609 914.296ZM42.3398 921.449L45.0052 920.581L46.8481 922.59C46.6081 922.825 46.3979 923.109 46.2141 923.4L42.3398 921.449ZM45.0768 920.29L36.2754 910.667L41.8794 909.866L46.7241 919.744L45.0768 920.29ZM44.8166 920.38L42.0161 921.286L24.4315 912.408L35.9853 910.708L44.8166 920.38ZM9.36362 904.796L-15.9631 891.991L4.65576 883.467C5.46252 885.248 7.22734 886.496 9.25897 886.549L9.36362 904.796ZM-16.2504 891.85L-17.5716 891.188L-16.4867 881.344L4.21448 881.509C4.22134 881.595 4.21174 881.69 4.2186 881.776C4.25971 882.29 4.37662 882.782 4.55286 883.259L-16.2504 891.85ZM-16.5765 891.98L-17.7129 892.442L-17.6203 891.442L-16.5765 891.98ZM-16.4544 881.1L-15.257 870.289L4.62673 879.328C4.37127 879.909 4.22481 880.559 4.20045 881.225L-16.4544 881.1ZM-16.7373 881.338L-17.816 891.044L-34.7434 882.511C-34.5599 882.108 -34.4491 881.659 -34.4405 881.227L-16.7373 881.338ZM-37.7249 884.604C-36.4555 884.511 -35.4189 883.773 -34.8548 882.735L-17.8548 891.314L-17.9797 892.558L-48.1766 905.049L-39.1534 884.434C-38.7011 884.587 -38.2228 884.635 -37.7249 884.604ZM-18.0249 892.855L-20.8882 918.758L-56.4399 923.948L-48.3141 905.38L-18.0249 892.855ZM-17.7482 892.755L-16.2628 892.127L9.36774 905.063L9.40894 914.317L-20.6246 918.711L-17.7482 892.755ZM9.41304 914.584L9.48512 931.884L-21.3194 941.957C-21.6183 941.239 -22.2729 940.713 -23.0516 940.577L-20.6534 918.998L9.41304 914.584ZM9.49918 932.168L9.50355 934.704L-21.1472 942.167L9.49918 932.168ZM9.58084 951.529L9.75051 984.722L-38.5771 1001.9L-32.7846 979.505L9.58084 951.529ZM9.73815 984.999L9.87297 1013.22L-42.7949 1018.31L-38.6224 1002.2L9.73815 984.999ZM9.87709 1013.49L9.92229 1026.25L-44.5816 1025.09L-42.9029 1018.58L9.87709 1013.49ZM9.91642 1026.5L9.99026 1044.36L9.96387 1044.35C8.95165 1044.43 8.16226 1045.13 7.91775 1046.06L-47.0915 1034.81L-44.6303 1025.35L9.91642 1026.5ZM10.2673 1044.37L10.177 1026.52L16.4599 1026.66L10.7227 1044.46C10.5972 1044.4 10.4223 1044.37 10.2673 1044.37ZM16.7534 1026.66L28.5143 1026.9L11.6375 1044.89C11.4458 1044.76 11.2277 1044.62 10.9867 1044.52L16.7534 1026.66ZM28.8507 1026.9L44.4077 1027.25C44.4177 1027.27 44.4211 1027.31 44.4145 1027.34C44.4385 1027.64 44.502 1027.89 44.6347 1028.15L12.1175 1045.5C12.0445 1045.34 11.9385 1045.2 11.8261 1045.09L28.8507 1026.9ZM44.7441 1028.33C45.1716 1029.04 45.9942 1029.51 46.8778 1029.44C47.5472 1029.4 48.1068 1029.06 48.5077 1028.57L64.2752 1039.65L52.9931 1055.97L12.4024 1047.01C12.4415 1046.86 12.4443 1046.67 12.4271 1046.46C12.4131 1046.18 12.3332 1045.93 12.217 1045.67L44.7441 1028.33ZM10.3306 1048.94C10.9142 1048.9 11.4278 1048.64 11.8027 1048.25L38.3734 1071.11C38.1697 1071.37 37.9859 1071.66 37.8549 1071.96L-1.93601 1058.12L8.56435 1048.32C9.02072 1048.74 9.64478 1048.99 10.3306 1048.94ZM40.8889 1069.77C39.9624 1069.84 39.1261 1070.28 38.5476 1070.92L11.9604 1048.07C12.1311 1047.83 12.282 1047.56 12.3537 1047.27L52.8224 1056.2L43.0639 1070.32C42.436 1069.92 41.6868 1069.72 40.8889 1069.77ZM53.1128 1056.28L101.581 1066.96C101.558 1067.11 101.562 1067.27 101.556 1067.41L44.6809 1072.85C44.5592 1071.87 44.0256 1071.02 43.2919 1070.48L53.1128 1056.28ZM39.993 1076.69L25.4166 1118.17L10.1884 1118.58L39.2565 1076.33C39.4845 1076.48 39.7355 1076.6 39.993 1076.69ZM25.3251 1118.42L21.3328 1129.78L-4.79232 1149.6L-9.65991 1147.42L10.0176 1118.82L25.3251 1118.42ZM21.1626 1130.24L14.7801 1148.38L2.29454 1152.78L-4.54131 1149.72L21.1626 1130.24ZM14.6755 1148.69L11.7525 1157.02L2.64465 1152.95L14.6755 1148.69ZM14.9951 1148.59L77.9171 1126.42L83.6243 1134.67L56.0851 1156.88L15.5006 1158.69L12.0099 1157.11L14.9951 1148.59ZM14.9234 1158.7L11.3886 1158.83L11.9084 1157.35L14.9234 1158.7ZM11.0134 1159.11L8.17537 1167.2L-15.2019 1161.08C-15.1367 1160.82 -15.1144 1160.56 -15.112 1160.26L11.0134 1159.11ZM11.2905 1159.12L15.4419 1158.92L39.9813 1169.87L34.7144 1174.13L8.43938 1167.27L11.2905 1159.12ZM34.4545 1174.33L-5.32942 1206.43L8.33786 1167.51L34.4545 1174.33ZM40.2324 1169.99L69.2565 1182.96C69.2335 1183 69.204 1183.06 69.1745 1183.12L35.0147 1174.22L40.2324 1169.99ZM71.2045 1181.54C70.4066 1181.59 69.7352 1182.04 69.3744 1182.71L40.4693 1169.82L56.1914 1157.13L95.2888 1155.39C95.4143 1156.53 96.3369 1157.39 97.4551 1157.46L97.6471 1168.6L73.3184 1182.62C72.8744 1181.92 72.0882 1181.47 71.2045 1181.54ZM70.2909 1185.86C70.6509 1186.05 71.0998 1186.16 71.5548 1186.13C71.5548 1186.13 71.5712 1186.12 71.5976 1186.13L81.4516 1252.61L57.2016 1279.59L39.2447 1235.96L70.2909 1185.86ZM71.8349 1186.08C72.6654 1185.89 73.3101 1185.32 73.5683 1184.56L98.0486 1191.2L98.7762 1233.31L81.6552 1252.35L71.8349 1186.08ZM98.2962 1191.28L129.054 1199.61L99.0193 1233.01L98.2962 1191.28ZM137.68 1190.42L154.143 1204.81C153.851 1205.14 153.625 1205.55 153.504 1205.98L129.545 1199.49L137.68 1190.42ZM156.626 1203.49C155.7 1203.55 154.896 1203.97 154.301 1204.62L137.838 1190.24L187.011 1135.52L197.084 1137.95L158.576 1203.93C157.998 1203.6 157.338 1203.44 156.626 1203.49ZM197.348 1138.02L226.509 1145.05L228.785 1162.72L159.859 1205.08C159.585 1204.66 159.211 1204.31 158.801 1204.04L197.348 1138.02ZM228.842 1163L230.966 1179.54L213.323 1207.9L160.475 1206.96C160.462 1206.9 160.465 1206.83 160.468 1206.76C160.433 1206.22 160.257 1205.74 160.022 1205.28L228.842 1163ZM213.162 1208.15L188.065 1248.5L159.125 1209.82C159.895 1209.19 160.38 1208.25 160.427 1207.21L213.162 1208.15ZM213.456 1208.16L234.692 1208.54L239.441 1245.59L209.201 1276.75L188.248 1248.73L213.456 1208.16ZM249.63 1235.46L250.3 1328.42L239.698 1245.68L249.63 1235.46ZM239.638 1245.36L234.916 1208.54L249.404 1208.79L249.599 1235.07L239.638 1245.36ZM249.681 1208.8L272.688 1209.22C272.692 1209.26 272.702 1209.28 272.695 1209.3C272.73 1209.84 272.959 1210.33 273.306 1210.69L249.882 1234.83L249.681 1208.8ZM276.512 1207.4L292.6 1187.1L301.806 1204.16L277.211 1208.6C277.104 1208.12 276.872 1207.7 276.512 1207.4ZM292.791 1186.89L301.592 1175.8L313.389 1202.06L302.103 1204.09L292.791 1186.89ZM313.479 1202.32L338.842 1258.85L333.875 1262.97L302.199 1204.33L313.479 1202.32ZM313.732 1202.26L340.147 1197.49C340.397 1198.57 341.409 1199.36 342.556 1199.25C342.685 1199.24 342.82 1199.2 342.939 1199.17L353.862 1246.45L339.069 1258.66L313.732 1202.26ZM343.176 1199.12C344.121 1198.75 344.748 1197.85 344.663 1196.78C344.638 1196.37 344.486 1195.97 344.234 1195.63L386.992 1159.08C387.568 1159.7 388.344 1160.13 389.205 1160.21L384.617 1220.97L354.037 1246.25L343.176 1199.12ZM395.586 1212.28L376.121 1337.51L384.898 1221.14L395.586 1212.28ZM384.92 1220.77L389.492 1160.24C389.621 1160.23 389.759 1160.24 389.888 1160.23C390.917 1160.15 391.825 1159.64 392.42 1158.88L402.703 1166.53L395.641 1211.89L384.92 1220.77ZM402.941 1166.7L421.843 1180.73L418.237 1193.25L395.96 1211.67L402.941 1166.7ZM422.062 1180.87L427.912 1185.2L418.582 1192.93L422.062 1180.87ZM446.226 1170.41L471.533 1176.48L454.915 1204.95L428.317 1185.2L446.226 1170.41ZM473.867 1172.98L478.268 1177.85L471.925 1176.31L473.867 1172.98ZM474.011 1172.74L482.554 1158.1L501.98 1183.52L478.707 1177.95L474.011 1172.74ZM579.701 1202.17L502.376 1183.62L482.699 1157.85L500.813 1126.85C501.407 1127.16 502.067 1127.33 502.769 1127.26C503.61 1127.2 504.358 1126.84 504.937 1126.31L580.206 1201.26C579.969 1201.54 579.796 1201.84 579.701 1202.17ZM585.817 1067.52L582.07 1200.51C581.958 1200.51 581.846 1200.51 581.734 1200.52C581.22 1200.56 580.762 1200.77 580.39 1201.08L505.121 1126.13C505.772 1125.43 506.145 1124.48 506.052 1123.44C506.004 1122.84 505.811 1122.26 505.497 1121.77L584.211 1066.65C584.595 1067.13 585.157 1067.47 585.817 1067.52ZM583.827 1065.94C583.867 1066.11 583.966 1066.28 584.066 1066.44L505.334 1121.58C504.639 1120.65 503.48 1120.07 502.227 1120.15C500.812 1120.27 499.644 1121.2 499.167 1122.45L455.485 1107.64L464.369 1096.61L583.827 1065.94ZM463.96 1096.68L455.234 1107.52L443.742 1103.63C443.856 1103.23 443.934 1102.8 443.88 1102.34C443.876 1102.18 443.83 1102.03 443.799 1101.87L463.96 1096.68ZM440.597 1106.16C441.266 1106.12 441.876 1105.86 442.383 1105.51L449.428 1114.76L437.61 1129.44C437.197 1129.13 436.639 1128.95 436.066 1129.01C435.37 1129.04 434.744 1129.42 434.373 1129.96L420.119 1120.87L437.758 1105.07C438.466 1105.83 439.499 1106.24 440.597 1106.16ZM436.916 1103.6C437.049 1104.08 437.291 1104.52 437.595 1104.87L419.914 1120.68L415.731 1117.99L421.493 1107.41L436.916 1103.6ZM436.852 1103.35L421.67 1107.15L423.251 1104.26L436.792 1103.02C436.809 1103.13 436.835 1103.24 436.852 1103.35ZM436.942 1101.56C436.835 1101.94 436.763 1102.34 436.778 1102.74L423.392 1103.97L426.16 1098.89L436.942 1101.56ZM425.922 1098.83L423.086 1104.02L397.485 1106.35L370.357 1089.04L370.139 1088.9L361.538 1083.4C361.613 1083.27 361.679 1083.11 361.718 1082.96L425.922 1098.83ZM359.714 1084.55C360.41 1084.51 361.009 1084.13 361.407 1083.59L397.082 1106.39L327.787 1112.73L310.053 1100.15L357.428 1083.14C357.8 1084.02 358.702 1084.62 359.714 1084.55ZM357.285 1082.65C357.301 1082.75 357.298 1082.82 357.342 1082.93L309.789 1099.97L295.293 1089.7L357.285 1082.65ZM357.282 1081.86C357.253 1082.04 357.24 1082.2 357.254 1082.37L294.999 1089.47L274.009 1074.59L266.204 1060.7L357.282 1081.86ZM265.834 1060.61L273.507 1074.24L251.089 1058.33C251.28 1058.01 251.424 1057.66 251.521 1057.26L265.834 1060.61ZM231.752 999.916L265.672 1060.3L251.547 1057.04C251.586 1056.77 251.615 1056.48 251.584 1056.21C251.437 1054.25 249.724 1052.8 247.759 1052.93C247.587 1052.94 247.442 1052.96 247.307 1053L231.518 1000.01C231.601 999.963 231.676 999.94 231.752 999.916ZM230.925 1000.15C231.037 1000.15 231.156 1000.12 231.281 1000.07L247.07 1053.05C246.335 1053.25 245.723 1053.69 245.26 1054.26L226.407 1041.72L230.648 1000.13C230.744 1000.14 230.839 1000.15 230.925 1000.15ZM230.397 1000.13L226.179 1041.57L202.873 1026.08C203.099 1025.67 203.21 1025.22 203.179 1024.73C203.086 1023.46 201.985 1022.53 200.715 1022.62C200.389 1022.64 200.079 1022.76 199.78 1022.89L191.607 1009.59L228.596 998.633C228.865 999.414 229.566 999.979 230.397 1000.13ZM228.459 998.109C228.482 998.185 228.499 998.287 228.496 998.356L191.458 1009.34L185.993 1000.44L228.459 998.109ZM185.729 1000.49L191.224 1009.44L184.683 1011.37L172.408 1001.24L185.729 1000.49ZM169.824 976.58C170.193 976.559 170.519 976.43 170.825 976.267L185.553 1000.24L172.104 1000.99L162.423 993.003L168.999 976.517C169.28 976.572 169.55 976.611 169.824 976.58ZM167.402 973.909C167.372 974.084 167.353 974.276 167.367 974.447C167.439 975.347 167.998 976.088 168.791 976.395L162.245 992.818L133.009 968.671C133.186 968.407 133.321 968.146 133.399 967.829L167.402 973.909ZM169.255 911.749L169.585 971.984C169.559 971.977 169.526 971.997 169.5 971.99C168.514 972.069 167.731 972.744 167.467 973.645L133.441 967.601C133.464 967.453 133.46 967.298 133.456 967.143C133.401 966.457 133.043 965.864 132.537 965.473L168.146 911.475C168.463 911.666 168.859 911.764 169.255 911.749ZM167.902 911.331L132.293 965.329C131.903 965.093 131.438 964.992 130.966 965.03C130.109 965.098 129.402 965.638 129.054 966.365L122.183 963.618L116.722 941.935L167.343 910.815C167.505 911.009 167.7 911.183 167.902 911.331ZM166.964 909.853C167.011 910.117 167.091 910.361 167.203 910.585L116.682 941.645L110.53 917.256L166.964 909.853ZM110.273 917.277L116.445 941.811L105.714 948.406L106.142 917.84L110.273 917.277ZM106.384 902.732C106.443 902.718 106.529 902.711 106.604 902.688L110.21 917.023L106.145 917.546L106.347 902.709C106.367 902.742 106.384 902.732 106.384 902.732ZM106.117 902.736L105.908 917.6L103.415 917.937L105.968 902.713C106.011 902.71 106.064 902.723 106.117 902.736ZM105.698 902.674L103.132 917.951L97.8046 918.653L105.361 902.563C105.486 902.622 105.592 902.648 105.698 902.674ZM105.136 902.452L97.4981 918.704L52.8528 924.534C52.5539 922.738 50.9307 921.427 49.0876 921.574C48.7183 921.595 48.3723 921.692 48.0462 921.821L47.1071 919.895L104.094 901.284C104.3 901.811 104.661 902.222 105.136 902.452ZM104.007 901.067L46.9943 919.671L42.1694 909.825L103.951 900.787C103.967 900.889 103.974 900.975 104.007 901.067ZM103.942 900.14C103.926 900.262 103.92 900.401 103.93 900.53L42.0532 909.558L30.3031 885.609L103.942 900.14ZM29.9797 885.557L41.7631 909.599L36.067 910.434L12.9252 885.143C13.6882 884.435 14.2262 883.504 14.4639 882.484L29.9797 885.557ZM-6.92032 810.233L29.8436 885.257L14.5027 882.213C14.574 881.811 14.609 881.385 14.5747 880.957C14.355 878.101 11.8718 875.962 9.01655 876.182C8.77585 876.192 8.55501 876.236 8.3342 876.279L-7.33212 810.37C-7.19701 810.333 -7.06193 810.296 -6.92032 810.233ZM-8.0704 810.524C-7.9154 810.52 -7.75389 810.49 -7.59238 810.459L8.0739 876.369C6.5878 876.773 5.39039 877.766 4.7481 879.12L-15.2248 870.045L-8.63103 810.525C-8.44963 810.528 -8.26824 810.531 -8.0704 810.524ZM-8.8851 810.477L-15.4693 869.901L-30.5546 863.041L-9.52872 810.304C-9.31407 810.399 -9.11279 810.434 -8.8851 810.477ZM-9.77626 810.229L-30.7957 862.939L-48.6022 854.847L-10.5196 809.779C-10.3081 809.943 -10.0537 810.104 -9.77626 810.229ZM-10.7312 809.615L-48.8532 854.729L-50.8313 853.835L-70.4411 813.268L-11.8624 807.445C-11.7509 808.299 -11.3199 809.049 -10.7312 809.615ZM-126.635 697.119C-126.46 697.036 -126.306 696.92 -126.145 696.778L-10.9773 804.596C-11.5952 805.284 -11.9353 806.208 -11.873 807.204L-70.5473 813.018L-126.635 697.119ZM-125.835 818.785L-70.7311 813.308L-51.2143 853.684L-125.994 819.712C-125.853 819.425 -125.818 819.111 -125.835 818.785ZM-126.164 820.062C-126.151 820.009 -126.128 819.973 -126.089 819.927L-51.0055 854.03L-50.0198 856.108L-58.7508 866.46L-126.164 820.062ZM-49.8771 856.381L-39.4999 877.836C-40.007 878.075 -40.428 878.419 -40.773 878.852L-58.5228 866.614L-49.8771 856.381ZM-112.858 930.892L-58.7135 866.819L-40.9373 879.063C-41.3608 879.701 -41.6091 880.48 -41.5505 881.321C-41.5025 881.921 -41.3194 882.484 -41.0146 882.952L-112.604 931.165C-112.69 931.06 -112.772 930.998 -112.858 930.892ZM-112.432 931.376L-40.8589 883.172C-40.455 883.692 -39.9657 884.093 -39.3944 884.332L-48.5027 905.179L-112.339 931.567C-112.362 931.491 -112.408 931.452 -112.432 931.376ZM-112.242 931.801L-48.6732 905.529L-56.7465 923.998L-112.175 932.097C-112.192 931.995 -112.209 931.893 -112.242 931.801ZM-112.137 932.681C-112.128 932.585 -112.102 932.48 -112.119 932.377C-112.128 932.361 -112.129 932.361 -112.122 932.335L-56.8875 924.286L-62.9794 938.188L-112.137 932.681ZM-56.5545 924.242L-20.9106 919.019L-23.2958 940.545C-23.3815 940.552 -23.4936 940.552 -23.5893 940.542C-24.6444 940.618 -25.4632 941.382 -25.668 942.382L-62.6989 938.243L-56.5545 924.242ZM-98.8673 1020.84L-62.8004 938.484L-25.7166 942.636C-25.7328 942.758 -25.7225 942.887 -25.7221 942.999C-25.6433 943.985 -24.9946 944.761 -24.1363 945.029L-33.0225 979.334L-97.5613 1021.96C-97.8825 1021.51 -98.3454 1021.11 -98.8673 1020.84ZM-97.4056 1022.18L-33.0873 979.71L-38.8374 1001.99L-97.1039 1022.72C-97.1968 1022.53 -97.2962 1022.36 -97.4056 1022.18ZM-97.0504 1022.96L-38.942 1002.3L-43.0685 1018.34L-96.9002 1023.54C-96.9767 1023.34 -96.9904 1023.17 -97.0504 1022.96ZM-96.8796 1023.8L-43.1337 1018.6L-44.8158 1025.08L-96.8824 1023.98C-96.8957 1023.92 -96.8827 1023.87 -96.8796 1023.8ZM-96.8948 1024.26L-44.8874 1025.37L-47.3258 1034.79L-96.9496 1024.65C-96.917 1024.52 -96.9109 1024.38 -96.8948 1024.26ZM-97.0309 1025.03C-97.0179 1024.98 -97.0048 1024.93 -96.9754 1024.87L-47.3944 1035.02L-49.1121 1041.69L-97.0309 1025.03ZM-47.1403 1035.06L7.86905 1046.32C7.85637 1046.48 7.85362 1046.66 7.85738 1046.82C7.88858 1047.31 8.09769 1047.77 8.38573 1048.14L-2.20999 1058.04L-48.8975 1041.79L-47.1403 1035.06ZM-68.4754 1117.49L-48.9626 1042.05L-2.42704 1058.24L-66.8203 1118.44C-67.2736 1117.95 -67.8417 1117.64 -68.4754 1117.49ZM-66.6417 1118.62L-2.14314 1058.34L37.7733 1072.24C37.6262 1072.66 37.5682 1073.13 37.6059 1073.6C37.6268 1073.97 37.7235 1074.31 37.8432 1074.62L-66.0952 1119.42C-66.2477 1119.13 -66.4168 1118.85 -66.6417 1118.62ZM-65.9988 1119.65L37.9395 1074.86C38.1984 1075.4 38.5625 1075.85 39.0285 1076.18L9.86197 1118.6L-65.7715 1120.66C-65.8088 1120.3 -65.8692 1119.98 -65.9988 1119.65ZM-65.7609 1120.9L9.70113 1118.85L-9.89104 1147.34L-66.0205 1122.29C-65.8569 1121.86 -65.7561 1121.39 -65.7609 1120.9ZM-18.9382 1156.76C-19.9505 1156.83 -20.7998 1157.32 -21.3978 1158.04L-66.4371 1123.02C-66.3288 1122.86 -66.2204 1122.71 -66.1319 1122.52L-10.0552 1147.55L-16.7732 1157.29C-17.3911 1156.9 -18.1403 1156.7 -18.9382 1156.76ZM-16.5617 1157.45L-9.8307 1147.66L-5.03574 1149.79L-15.9266 1158.06C-16.1087 1157.83 -16.3237 1157.62 -16.5617 1157.45ZM-15.7809 1158.26L-4.76832 1149.9L1.94204 1152.9L-15.3599 1159C-15.4761 1158.73 -15.5989 1158.49 -15.7809 1158.26ZM-15.28 1159.24L2.29216 1153.07L11.6773 1157.27L11.0985 1158.87L-15.1391 1160.03C-15.1531 1159.75 -15.2001 1159.48 -15.28 1159.24ZM-79.9189 1264.7L-20.369 1163.46C-19.7844 1163.76 -19.1144 1163.94 -18.4121 1163.87C-16.902 1163.77 -15.6751 1162.71 -15.267 1161.35L8.10024 1167.45L-5.70113 1206.74L-78.8275 1265.73C-79.1618 1265.32 -79.5256 1264.98 -79.9189 1264.7ZM-78.367 1266.41C-78.45 1266.24 -78.5659 1266.09 -78.6818 1265.93L-5.8647 1207.18L-14.0716 1230.56L-78.367 1266.41ZM-13.7424 1230.36L-5.48306 1206.88L34.7713 1174.41L69.1358 1183.39C69.0901 1183.58 69.0644 1183.8 69.098 1184C69.122 1184.3 69.1854 1184.55 69.2917 1184.8L31.6554 1205.14C30.6841 1203.45 28.8307 1202.4 26.7899 1202.55C23.9346 1202.77 21.7853 1205.24 22.0149 1208.11C22.0732 1208.84 22.2566 1209.51 22.5915 1210.14L-13.7424 1230.36ZM-85.918 1435.77L-13.8765 1230.73L22.6944 1210.35C23.1751 1211.18 23.8928 1211.85 24.7582 1212.31L-85.5879 1435.9C-85.6869 1435.85 -85.8025 1435.81 -85.918 1435.77ZM-85.3632 1436.01L24.9893 1212.4C25.7688 1212.76 26.6365 1212.93 27.5466 1212.88C28.1731 1212.84 28.7464 1212.67 29.27 1212.42L38.9313 1235.92L-85.1551 1436.14C-85.2114 1436.08 -85.2905 1436.06 -85.3632 1436.01ZM-84.1834 1436.85C-84.4247 1436.64 -84.6562 1436.44 -84.937 1436.27L39.0575 1236.21L56.9845 1279.79L-84.1834 1436.85ZM99.6936 1382.88L57.3079 1279.84L81.4855 1252.92L100.715 1382.6C100.356 1382.63 100.02 1382.75 99.6936 1382.88ZM101.193 1382.53C101.107 1382.54 101.032 1382.56 100.946 1382.57L81.6991 1252.68L98.7806 1233.69L101.365 1382.52C101.322 1382.52 101.252 1382.52 101.193 1382.53ZM101.642 1382.53L99.0437 1233.42L129.338 1199.71L153.412 1206.24C153.328 1206.58 153.306 1206.95 153.343 1207.31C153.46 1208.77 154.426 1209.96 155.73 1210.41L102.984 1382.71C102.552 1382.59 102.097 1382.5 101.642 1382.53ZM103.232 1382.78L155.988 1210.5C156.367 1210.61 156.776 1210.65 157.179 1210.61C157.821 1210.56 158.434 1210.35 158.931 1209.98L187.931 1248.76L104.272 1383.28C103.935 1383.06 103.595 1382.9 103.232 1382.78ZM105.191 1383.98C104.976 1383.77 104.745 1383.58 104.49 1383.42L188.103 1248.97L209.027 1276.95L105.191 1383.98ZM249.184 1330.22L209.347 1276.96L239.458 1245.92L250.206 1329.83C249.84 1329.89 249.487 1330.01 249.184 1330.22ZM250.568 1329.83L249.893 1235.19L273.475 1210.85C273.736 1211.1 274.076 1211.25 274.403 1211.35L250.76 1329.85C250.707 1329.84 250.638 1329.84 250.568 1329.83ZM252.127 1330.55C251.826 1330.24 251.453 1330 251.014 1329.9L274.657 1211.4C274.816 1211.44 274.971 1211.43 275.152 1211.43C276.421 1211.34 277.368 1210.23 277.275 1208.96C277.265 1208.95 277.262 1208.9 277.258 1208.86L301.929 1204.4L333.657 1263.17L252.127 1330.55ZM334.014 1263.2L338.974 1259.1L374.206 1337.61L334.014 1263.2ZM374.931 1338.59L339.159 1258.93L353.903 1246.74L375.099 1338.54C375.039 1338.55 374.99 1338.58 374.931 1338.59ZM375.583 1338.44C375.498 1338.45 375.422 1338.48 375.362 1338.49L354.14 1246.57L384.621 1221.35L375.791 1338.45C375.705 1338.46 375.653 1338.45 375.583 1338.44ZM376.227 1338.51L395.901 1212.02L418.107 1193.66L376.269 1338.5C376.253 1338.51 376.227 1338.51 376.227 1338.51ZM376.794 1338.7C376.695 1338.65 376.606 1338.61 376.507 1338.56L418.445 1193.37L428.123 1185.36L454.784 1205.14L376.794 1338.7ZM455.133 1205.08L471.787 1176.53L478.579 1178.18L600.237 1312.47C600.191 1312.55 600.148 1312.55 600.102 1312.62L455.133 1205.08Z" fill="#111111"/>
</g>
<g opacity="0.1" filter="url(#filter0_f_4_2517)">
<ellipse cx="677.5" cy="1148" rx="84" ry="195.5" transform="rotate(-90 677.5 1148)" fill="#18417D"/>
</g>
<g opacity="0.06" filter="url(#filter1_f_4_2517)">
<ellipse cx="622.5" cy="1005" rx="157" ry="200.5" transform="rotate(-90 622.5 1005)" fill="#18417D"/>
</g>
<g opacity="0.04" filter="url(#filter2_f_4_2517)">
<ellipse cx="79.4999" cy="134.5" rx="228.5" ry="292.5" transform="rotate(-90 79.4999 134.5)" fill="#18417D"/>
</g>
</g>
<defs>
<filter id="filter0_f_4_2517" x="182" y="764" width="991" height="768" filterUnits="userSpaceOnUse" color-interpolation-filters="sRGB">
<feFlood flood-opacity="0" result="BackgroundImageFix"/>
<feBlend mode="normal" in="SourceGraphic" in2="BackgroundImageFix" result="shape"/>
<feGaussianBlur stdDeviation="150" result="effect1_foregroundBlur_4_2517"/>
</filter>
<filter id="filter1_f_4_2517" x="122" y="548" width="1001" height="914" filterUnits="userSpaceOnUse" color-interpolation-filters="sRGB">
<feFlood flood-opacity="0" result="BackgroundImageFix"/>
<feBlend mode="normal" in="SourceGraphic" in2="BackgroundImageFix" result="shape"/>
<feGaussianBlur stdDeviation="150" result="effect1_foregroundBlur_4_2517"/>
</filter>
<filter id="filter2_f_4_2517" x="-513" y="-394" width="1185" height="1057" filterUnits="userSpaceOnUse" color-interpolation-filters="sRGB">
<feFlood flood-opacity="0" result="BackgroundImageFix"/>
<feBlend mode="normal" in="SourceGraphic" in2="BackgroundImageFix" result="shape"/>
<feGaussianBlur stdDeviation="150" result="effect1_foregroundBlur_4_2517"/>
</filter>
</defs>
</svg>
