<svg width="337" height="55" viewBox="0 0 337 55" fill="none" xmlns="http://www.w3.org/2000/svg">
<g clip-path="url(#clip0_10_4506)">
<path d="M20.2537 0H20.5435C20.5165 0.618248 20.1472 1.14148 19.9423 1.70888C19.5136 2.68577 19.5541 3.77105 19.5473 4.8135C19.5594 5.5562 19.5473 6.3163 19.7697 7.03358C20.5839 9.30852 22.3067 11.2904 24.5511 12.2633C25.3302 12.6112 26.1795 12.7517 27.0206 12.8668C27.0274 14.5529 27.0381 16.2391 26.995 17.9238C26.9573 18.3026 26.9707 18.7294 26.7308 19.0479C26.4666 19.2875 26.0703 19.2032 25.7495 19.2928C23.5495 19.9218 21.5963 21.3978 20.4532 23.3757C19.9018 24.2803 19.6215 25.312 19.3829 26.3344C17.3245 26.3451 15.2661 26.3291 13.2077 26.3425C12.9178 25.2799 12.6145 24.2027 12.0255 23.2579C10.6033 20.8572 7.93564 19.2018 5.11697 19.1175C3.31604 19.0426 1.57578 19.6675 0.00939941 20.4972C0.412451 18.8245 1.04871 17.2173 1.74293 15.6436C5.17763 8.05462 12.1657 2.16521 20.2537 0Z" fill="#F48221"/>
<path d="M35.0803 0H35.3931C38.5137 0.860462 41.4658 2.28565 44.1308 4.10827C47.552 6.45815 50.5378 9.50122 52.545 13.1371C53.8324 15.4642 54.9916 17.8971 55.5996 20.4945C54.5495 19.9807 53.4859 19.4494 52.3199 19.254C49.9515 18.7937 47.4078 19.4668 45.5583 20.9977C44.0297 22.2248 43.0066 23.9872 42.5119 25.862C42.4256 26.02 42.4606 26.3719 42.1964 26.3344C40.2108 26.3438 38.2266 26.3331 36.2423 26.3384C36.0576 25.6881 35.9026 25.027 35.6505 24.3994C34.8512 22.3894 33.239 20.7234 31.2655 19.8187C30.3502 19.3825 29.3473 19.1831 28.3578 18.9877C28.3956 16.9884 28.4239 14.9892 28.4859 12.9926C29.0507 12.7745 29.6722 12.7303 30.2464 12.5309C31.9247 12.0358 33.398 10.9572 34.4656 9.59088C35.3351 8.4427 36.0549 7.08978 36.0495 5.61776C36.0536 4.42275 36.1628 3.19027 35.7948 2.03406C35.5939 1.34221 35.1073 0.734672 35.0803 0Z" fill="#F48221"/>
<path d="M160.136 10.2627C162.295 10.2614 164.453 10.2627 166.613 10.2627C168.054 10.2774 169.503 10.1931 170.933 10.4193C173.058 10.7244 175.109 11.5688 176.789 12.903C178.997 14.6266 180.614 17.1009 181.214 19.8335C181.824 22.3707 181.58 25.0833 180.592 27.4934C179.564 29.9757 177.669 32.0807 175.336 33.4243C173.392 34.5417 171.137 35.0595 168.9 35.0729C165.979 35.0729 163.057 35.0743 160.136 35.0729C160.136 26.8029 160.136 18.5328 160.136 10.2627ZM163.847 13.9789C163.851 19.7733 163.839 25.5664 163.853 31.3608C165.404 31.3554 166.954 31.3581 168.504 31.3594C169.543 31.3768 170.591 31.2724 171.592 30.9874C174.538 30.1698 176.932 27.6539 177.572 24.6831C178.268 21.7926 177.386 18.5529 175.218 16.4813C173.645 14.8848 171.413 14.0271 169.179 13.9856C167.401 13.9695 165.625 13.9816 163.847 13.9789Z" fill="#F48221"/>
<path d="M274.106 11.5994C275.406 11.0535 277.04 11.9728 277.235 13.3578C277.51 14.7375 276.254 16.1306 274.846 16.0423C273.612 16.0168 272.572 14.866 272.636 13.6509C272.659 12.7557 273.263 11.9139 274.106 11.5994Z" fill="#F48221"/>
<path d="M181.987 18.1394C183.119 17.679 184.233 17.1745 185.355 16.6901C187.461 21.3216 189.488 25.9892 191.614 30.6114C193.852 25.9424 196.1 21.2761 198.376 16.6245C199.492 17.1919 200.64 17.6977 201.752 18.2745C198.734 24.4383 195.758 30.6207 192.755 36.7925C192.213 37.8845 191.741 39.0286 190.973 39.9895C190.257 40.9115 189.258 41.6328 188.122 41.9419C186.74 42.3086 185.214 41.9794 184.056 41.1617C182.975 40.4565 182.244 39.3806 181.561 38.3181C182.605 37.6797 183.631 37.012 184.675 36.3723C185.257 37.0883 185.695 38.037 186.631 38.3582C187.119 38.5469 187.584 38.1909 187.884 37.8417C188.495 37.103 188.845 36.201 189.296 35.366C189.363 35.1907 189.544 34.9967 189.402 34.8066C187.111 29.6813 184.822 24.5547 182.533 19.428C182.348 18.9985 182.13 18.5836 181.987 18.1394Z" fill="#F48221"/>
<path d="M206.915 19.3798C208.804 17.6241 211.476 16.7476 214.045 17.0915C215.944 17.2895 217.827 18.1982 218.927 19.7866C219.724 20.9201 220.052 22.3198 220.043 23.6875C220.042 27.4826 220.043 31.2777 220.042 35.0729C218.795 35.0742 217.547 35.0742 216.3 35.0729C216.297 31.2282 216.303 27.3849 216.299 23.5403C216.297 22.728 216.041 21.8408 215.335 21.3603C214.355 20.6752 213.064 20.6083 211.918 20.8063C209.695 21.181 207.916 23.0277 207.337 25.1475C206.948 26.4562 207.077 27.8332 207.056 29.1781C207.056 31.1426 207.057 33.1084 207.056 35.0729C205.814 35.0568 204.571 35.109 203.332 35.0448C203.361 29.1366 203.336 23.2271 203.344 17.3176C204.513 17.3163 205.682 17.3163 206.852 17.319C206.872 18.0055 206.894 18.692 206.915 19.3798Z" fill="#F48221"/>
<path d="M226.94 17.7163C229.246 16.9389 231.813 16.7555 234.161 17.4701C235.458 17.8783 236.686 18.5781 237.601 19.5898C238.444 20.5212 238.928 21.7604 238.938 23.0129C238.951 27.0235 238.924 31.0355 238.953 35.046C237.787 35.1089 236.619 35.0554 235.452 35.0741C235.426 34.6018 235.408 34.1307 235.389 33.6583C233.385 35.1076 230.799 35.6295 228.366 35.2481C226.371 35.0032 224.384 34.0638 223.24 32.375C222.091 30.729 221.912 28.45 222.864 26.6729C223.767 24.9707 225.531 23.8413 227.386 23.3997C228.625 23.0852 229.912 23.1655 231.179 23.1561C232.535 23.1561 233.892 23.1575 235.248 23.1561C235.246 22.1899 234.379 21.5396 233.576 21.1756C231.987 20.5105 230.168 20.6149 228.541 21.0819C227.498 21.3603 226.603 21.9678 225.681 22.4977C225.018 21.4553 224.352 20.4155 223.688 19.3757C224.735 18.7548 225.773 18.0951 226.94 17.7163ZM226.828 27.6699C226.36 28.0312 225.973 28.5665 225.99 29.178C225.98 30.1322 226.732 30.9284 227.591 31.2536C229.918 32.1007 232.862 31.6042 234.443 29.6036C235.107 28.8582 235.316 27.8412 235.231 26.871C233.343 26.871 231.454 26.8696 229.567 26.871C228.607 26.8763 227.595 27.061 226.828 27.6699Z" fill="#F48221"/>
<path d="M247.998 17.7673C249.89 16.8707 252.143 16.7904 254.114 17.4809C255.341 17.9078 256.371 18.791 257.037 19.8924C258.37 18.3615 260.256 17.2668 262.303 17.0701C263.995 16.9095 265.804 17.1772 267.228 18.1514C268.383 18.9382 269.162 20.1935 269.471 21.5383C269.77 22.724 269.689 23.9525 269.7 25.1622C269.701 28.4622 269.696 31.7635 269.702 35.0635C268.453 35.0849 267.205 35.0689 265.956 35.0729C265.954 31.1894 265.96 27.306 265.954 23.4225C265.944 22.5661 265.734 21.5651 264.941 21.0887C263.983 20.6043 262.828 20.6203 261.814 20.9121C260.053 21.4473 258.788 23.0264 258.243 24.7219C257.744 26.2006 257.886 27.7757 257.867 29.3066C257.866 31.2296 257.867 33.1512 257.866 35.0729C256.627 35.0608 255.387 35.0997 254.149 35.0528C254.169 31.2671 254.151 27.4799 254.159 23.6942C254.163 22.9368 254.086 22.1191 253.606 21.4969C253.285 21.0606 252.742 20.8719 252.228 20.7809C250.983 20.5561 249.648 20.8505 248.632 21.6026C247.433 22.4938 246.614 23.8427 246.29 25.2866C246.002 26.4281 246.079 27.6111 246.069 28.7753C246.069 30.875 246.069 32.9733 246.069 35.0729C244.832 35.0742 243.594 35.0742 242.358 35.0729C242.372 29.1514 242.33 23.2298 242.38 17.3083C243.558 17.3404 244.739 17.2855 245.918 17.3377C245.912 17.9359 245.94 18.5327 245.948 19.1296C246.578 18.6037 247.246 18.1126 247.998 17.7673Z" fill="#F48221"/>
<path d="M286.443 17.2854C288.429 16.7916 290.58 17.0044 292.419 17.901C293.82 18.6129 294.944 19.7343 296.042 20.829C295.122 21.6787 294.229 22.5606 293.314 23.4171C292.528 22.6356 291.799 21.759 290.788 21.2532C288.638 20.0957 285.777 20.8798 284.313 22.764C282.713 24.6616 282.693 27.6632 284.289 29.5701C285.745 31.453 288.57 32.2425 290.737 31.1492C291.776 30.6567 292.517 29.7628 293.321 28.9746C294.227 29.8471 295.146 30.7049 296.045 31.5854C294.979 32.5864 293.948 33.6623 292.647 34.3702C289.952 35.8195 286.531 35.6308 283.914 34.0999C281.763 32.8313 280.127 30.6862 279.594 28.248C279.071 26.0801 279.415 23.7302 280.489 21.7778C281.731 19.5483 283.929 17.8421 286.443 17.2854Z" fill="#F48221"/>
<path d="M273.113 17.3096C274.346 17.331 275.58 17.3015 276.813 17.3256C276.801 23.2418 276.812 29.1567 276.808 35.0728C275.57 35.0742 274.333 35.0742 273.097 35.0728C273.107 29.1526 273.075 23.2298 273.113 17.3096Z" fill="#F48221"/>
<path d="M13.2374 27.6685C15.2823 27.6699 17.3285 27.6592 19.3748 27.6739C19.4651 28.4554 19.5244 29.2516 19.7846 30.0024C20.402 31.8129 21.6529 33.3974 23.2436 34.4693C24.3368 35.2093 25.6484 35.489 26.9115 35.8048C26.9587 37.8937 26.9977 39.984 27.0368 42.0729C25.3033 41.9485 23.7235 42.8865 22.4469 43.9571C20.8509 45.302 19.5689 47.2277 19.5608 49.3674C19.5541 50.3978 19.4894 51.447 19.7064 52.4627C19.8843 53.3379 20.4936 54.0779 20.557 54.9798C16.5157 53.8277 12.6672 51.9261 9.44139 49.2309C4.81505 45.4238 1.45044 40.1339 0.00134277 34.3435C0.870803 34.7878 1.74296 35.2615 2.70543 35.4796C4.6452 35.9413 6.7683 35.7753 8.55171 34.86C10.5629 33.7921 12.1468 31.9334 12.8518 29.7789C13.085 29.0977 13.1349 28.3751 13.2374 27.6685Z" fill="#F48221"/>
<path d="M34.5694 32.446C35.5036 31.0262 36.2261 29.3829 36.2005 27.658C38.2562 27.6767 40.3133 27.6647 42.3703 27.6647C42.4876 30.4535 44.1524 33.0402 46.4723 34.5591C48.4336 35.7153 50.8748 36.0271 53.0761 35.4409C53.9725 35.2134 54.784 34.7611 55.6023 34.3463C53.5385 42.619 47.4914 49.8145 39.6393 53.2724C38.1335 53.9175 36.6197 54.5959 35.021 54.9706C35.1666 54.0754 35.722 53.3179 35.9147 52.4361C36.0752 51.6947 36.0603 50.9306 36.0657 50.1758C36.0576 49.3529 36.0657 48.5111 35.8029 47.7216C34.7555 44.617 31.7804 42.2443 28.4846 41.9593C28.4279 39.9333 28.3943 37.9046 28.3565 35.8772C30.7088 35.4302 33.1284 34.4319 34.5694 32.446Z" fill="#F48221"/>
<path d="M71.5289 11.1914C74.2667 9.76492 77.5397 9.69801 80.485 10.4635C81.7953 10.7953 82.9937 11.4457 84.1327 12.1523C84.9105 12.6233 85.5441 13.2804 86.2006 13.8986C85.385 14.8367 84.5924 15.7948 83.7634 16.7209C83.2013 16.195 82.6904 15.5968 82.0191 15.2007C81.1604 14.6801 80.2559 14.201 79.2651 13.9883C77.3091 13.5493 75.1564 13.5319 73.3272 14.4366C72.5682 14.8554 71.7554 15.4375 71.5626 16.3301C71.4683 17.2254 72.1625 17.9774 72.9187 18.3575C74.7655 19.2715 76.7416 19.8937 78.7205 20.4545C80.2464 20.9028 81.7333 21.4942 83.1271 22.257C83.7472 22.6023 84.3673 22.9622 84.8943 23.4413C86.5888 24.9307 87.318 27.4265 86.6508 29.5783C86.2316 31.053 85.2206 32.3096 83.979 33.1955C81.8546 34.7344 79.1815 35.3874 76.5772 35.362C74.3934 35.2804 72.1598 34.9164 70.2241 33.8592C68.9839 33.1874 67.7491 32.4407 66.8136 31.3728C66.6101 31.1253 66.3108 30.9352 66.1868 30.6382C67.0185 29.7737 67.8745 28.9279 68.7426 28.0996C69.0459 28.2762 69.2454 28.5867 69.5002 28.8249C70.1742 29.5743 71.0693 30.0721 71.9441 30.5525C73.3568 31.326 74.9892 31.5695 76.5799 31.6445C78.2959 31.6525 80.0887 31.334 81.5297 30.3571C82.3035 29.8339 83.0368 29.0832 83.1487 28.1183C83.2309 27.104 82.5744 26.1565 81.6982 25.6841C79.9971 24.7554 78.1516 24.1211 76.2874 23.6006C74.6037 23.1295 72.9565 22.5166 71.4049 21.7097C70.34 21.1851 69.3452 20.4531 68.7089 19.4401C67.8826 18.1367 67.5968 16.4733 68.0807 14.9959C68.5781 13.2857 69.9666 11.9796 71.5289 11.1914Z" fill="black"/>
<path d="M142.05 10.264C143.286 10.26 144.522 10.26 145.759 10.264C145.759 15.0521 145.766 19.8415 145.755 24.6296C148.558 21.8956 151.313 19.1162 154.101 16.3675C154.978 17.2347 155.853 18.1045 156.728 18.9757C154.597 21.0914 152.488 23.2311 150.342 25.3321C152 27.2217 153.702 29.0764 155.397 30.9338C155.915 31.6043 156.829 31.2898 157.554 31.3554C157.562 32.5919 157.553 33.8284 157.56 35.0648C156.617 35.0582 155.643 35.1706 154.737 34.8547C153.7 34.5028 152.897 33.7159 152.181 32.9237C150.692 31.2818 149.176 29.6625 147.704 28.0058C147.026 28.6027 146.417 29.2718 145.763 29.894C145.755 31.6203 145.765 33.3466 145.759 35.0715C144.523 35.0742 143.286 35.0742 142.051 35.0729C142.048 26.8028 142.048 18.5341 142.05 10.264Z" fill="black"/>
<path d="M96.2526 17.3137C98.1196 16.7958 100.148 17.0193 101.914 17.7847C104.384 18.878 106.274 21.1463 106.954 23.737C107.361 25.2452 107.392 26.847 107.028 28.3672C106.437 30.9995 104.597 33.3346 102.145 34.5042C100.324 35.3566 98.1964 35.6149 96.2458 35.0769C95.1027 34.7852 94.058 34.2098 93.1212 33.5086C93.1037 36.371 93.1239 39.2334 93.1117 42.0958C91.877 42.0945 90.6436 42.0905 89.4101 42.0985C89.3967 33.8378 89.402 25.5757 89.4074 17.315C90.5654 17.3164 91.7246 17.3244 92.8839 17.311C92.9432 17.8731 92.9392 18.4391 92.9594 19.0038C93.9529 18.2651 95.034 17.6108 96.2526 17.3137ZM97.2676 20.8372C95.7781 21.1476 94.515 22.1995 93.7965 23.5109C93.1374 24.7407 92.9486 26.2141 93.2924 27.5656C93.6024 28.9105 94.4705 30.1069 95.6325 30.8576C96.8039 31.6003 98.2921 31.8425 99.6361 31.4745C101.147 31.0958 102.399 29.9516 103.037 28.5572C103.544 27.4158 103.68 26.1097 103.389 24.8933C103.086 23.5096 102.208 22.2677 101.016 21.4929C99.9205 20.7957 98.5374 20.5374 97.2676 20.8372Z" fill="black"/>
<path d="M113.491 17.6591C115.657 16.9632 118.036 16.7892 120.248 17.3834C121.828 17.8264 123.347 18.6895 124.329 20.021C124.962 20.8841 125.307 21.9453 125.32 23.0105C125.328 27.0265 125.311 31.0411 125.328 35.057C124.163 35.0945 122.997 35.065 121.831 35.0731C121.807 34.6208 121.792 34.1684 121.78 33.7161C121.358 33.8633 121.022 34.1698 120.619 34.3558C118.578 35.4237 116.152 35.5923 113.921 35.0998C112.438 34.7867 111.021 34.056 110.029 32.9012C108.661 31.3663 108.238 29.0579 109.022 27.1536C109.575 25.7605 110.744 24.6846 112.07 24.0155C113.258 23.4147 114.598 23.1551 115.925 23.1564C117.826 23.1564 119.727 23.1591 121.629 23.1551C121.625 22.1461 120.693 21.489 119.851 21.129C118.181 20.4854 116.289 20.6299 114.615 21.1812C113.689 21.4676 112.896 22.035 112.057 22.4953C111.403 21.4542 110.731 20.4211 110.075 19.3813C111.159 18.7109 112.263 18.0405 113.491 17.6591ZM113.286 27.6113C112.787 27.9753 112.361 28.5239 112.372 29.1636C112.354 30.0481 113.003 30.8122 113.779 31.1709C116.191 32.1692 119.356 31.6205 120.943 29.4513C121.532 28.7273 121.679 27.7772 121.613 26.8739C119.717 26.8686 117.823 26.8699 115.929 26.8712C115.006 26.8793 114.039 27.0519 113.286 27.6113Z" fill="black"/>
<path d="M135.473 17.5291C136.818 16.9978 138.282 17.0152 139.705 16.9724C139.579 18.1995 139.44 19.4253 139.294 20.6511C138.43 20.7328 137.543 20.7234 136.718 21.0165C135.215 21.5223 134.056 22.7454 133.343 24.1197C132.693 25.387 132.44 26.8229 132.449 28.236C132.456 30.5083 132.441 32.7806 132.457 35.0528C131.218 35.097 129.978 35.0635 128.739 35.0716C128.747 29.15 128.722 23.2285 128.753 17.3083C129.911 17.323 131.069 17.3244 132.227 17.307C132.294 18.051 132.285 18.7977 132.305 19.5431C133.25 18.7201 134.27 17.9466 135.473 17.5291Z" fill="black"/>
<path d="M321.8 35.0234C321.815 30.9874 321.761 26.9487 321.827 22.9141C322.036 22.9221 322.248 22.9315 322.465 22.9408C322.461 24.4169 322.471 25.8942 322.458 27.3703C323.617 27.3087 324.809 27.1281 325.95 27.4305C327.131 27.745 327.978 28.8276 328.199 29.9931C328.384 31.0249 328.303 32.1222 327.873 33.0857C327.347 34.254 326.169 35.1626 324.859 35.2068C323.834 35.2282 322.814 35.1305 321.8 35.0234ZM322.47 28.022C322.465 30.1658 322.451 32.3096 322.477 34.4534C323.182 34.4855 323.885 34.5618 324.594 34.5778C325.677 34.622 326.742 33.9395 327.18 32.9613C327.703 31.8024 327.785 30.408 327.208 29.2545C326.823 28.4743 325.999 27.9444 325.128 27.9015C324.24 27.8627 323.353 27.9577 322.47 28.022Z" fill="black"/>
<path d="M299.522 25.4191C300.933 24.1157 303.012 24.3418 304.779 24.477C304.777 24.6911 304.78 24.9039 304.784 25.118C303.529 25.0604 302.211 24.8169 301.006 25.2866C300.108 25.7028 299.345 26.4709 299.056 27.425C298.573 28.9532 298.582 30.6314 299.087 32.1529C299.384 33.0508 300.12 33.7534 300.954 34.1736C302.139 34.662 303.456 34.4425 304.703 34.4185C304.736 33.0495 304.698 31.6805 304.723 30.3115C303.826 30.2794 302.928 30.3062 302.032 30.2968C302.025 30.08 302.022 29.8632 302.022 29.6478C303.149 29.6237 304.276 29.6438 305.404 29.6371C305.41 31.4316 305.403 33.2275 305.408 35.0233C304.136 35.1116 302.846 35.1893 301.577 35.0206C300.379 34.8654 299.309 34.104 298.683 33.0936C298.087 31.9789 297.979 30.6768 297.989 29.4363C298.056 27.9978 298.306 26.3692 299.522 25.4191Z" fill="black"/>
<path d="M330.318 24.5025C330.538 24.4945 330.757 24.4878 330.988 24.4851C331.001 25.9464 330.964 27.4091 331.003 28.869C331.284 29.0243 331.681 28.9065 332.011 28.94C333.456 28.936 334.901 28.9413 336.348 28.9373C336.349 27.4559 336.35 25.9745 336.346 24.4931C336.561 24.4905 336.778 24.4878 337 24.4864V35.0141C336.776 35.01 336.558 35.006 336.344 34.9993C336.35 33.1995 336.353 31.3996 336.344 29.5997C334.555 29.6077 332.767 29.5836 330.981 29.6117C331.003 31.4049 330.972 33.1995 330.999 34.9926C330.77 34.9967 330.544 35.0047 330.323 35.0167C330.322 31.512 330.333 28.0072 330.318 24.5025Z" fill="black"/>
<path d="M308.646 28.1798C309.092 27.7716 309.579 27.3715 310.182 27.2176C311.523 26.8483 313.22 27.4117 313.728 28.7847C314.325 27.8439 315.346 27.0932 316.504 27.1039C317.384 27.1373 318.363 27.3902 318.906 28.1343C319.38 28.8261 319.483 29.6933 319.522 30.5096C319.55 32.0057 319.508 33.5031 319.543 35.0006C319.305 35.0153 319.069 35.0233 318.838 35.0287C318.821 33.4791 318.868 31.9267 318.814 30.3784C318.739 29.4778 318.512 28.3738 317.589 27.9684C316.028 27.2658 314.044 28.5558 314.006 30.2379C314.021 31.825 313.994 33.4148 314.022 35.0019C313.785 35.0153 313.549 35.022 313.318 35.0274C313.31 33.5232 313.337 32.0191 313.305 30.5163C313.237 29.6304 313.078 28.5679 312.248 28.062C310.954 27.322 309.177 28.1022 308.664 29.4404C308.604 31.2965 308.657 33.1579 308.638 35.0166C308.409 35.01 308.187 35.0019 307.964 34.9926C307.982 32.4553 307.972 29.9181 307.968 27.3809C308.188 27.3755 308.408 27.3688 308.635 27.3621C308.635 27.6338 308.637 27.9068 308.646 28.1798Z" fill="black"/>
<path opacity="0.76" d="M195.432 39.5691C197.187 38.4919 199.573 38.6418 201.283 39.7364C201.12 39.9679 200.954 40.1954 200.801 40.4309C199.71 39.6963 198.315 39.4286 197.03 39.7177C196.334 39.893 195.6 40.2677 195.317 40.9649C195.014 41.6942 195.105 42.6858 195.786 43.1796C196.292 43.5168 196.885 43.7002 197.475 43.8313C198.616 44.0387 199.79 44.2809 200.786 44.8978C202.077 45.9242 201.975 48.2166 200.609 49.144C199.817 49.6926 198.842 49.9509 197.882 49.9496C196.42 49.9656 194.887 49.5414 193.817 48.511C193.976 48.2607 194.154 48.0225 194.349 47.7991C195.135 48.6783 196.327 49.0931 197.486 49.1533C198.354 49.2095 199.278 49.0623 199.992 48.5391C201.031 47.7629 200.988 45.8065 199.736 45.2645C198.231 44.5834 196.433 44.7359 195.058 43.7483C193.74 42.7166 194.007 40.3948 195.432 39.5691Z" fill="#BFBFBF"/>
<path opacity="0.76" d="M216.142 39.0151C217.377 38.71 218.744 38.8358 219.856 39.4715C221.069 40.1754 221.801 41.4935 222.075 42.833C222.318 44.1177 222.284 45.4719 221.877 46.7205C221.476 47.9463 220.616 49.0824 219.388 49.5762C217.605 50.2975 215.301 49.9991 214.014 48.4936C212.915 47.2437 212.569 45.5121 212.666 43.8955C212.729 42.6483 213.113 41.3878 213.915 40.4109C214.471 39.7123 215.274 39.2279 216.142 39.0151ZM216.698 39.7083C215.813 39.8515 214.993 40.3587 214.494 41.1C213.781 42.101 213.566 43.3629 213.584 44.566C213.616 45.7637 213.901 47.0189 214.701 47.9503C216.045 49.5882 218.934 49.5682 220.244 47.8994C221.028 46.9279 221.28 45.6499 221.297 44.4322C221.289 43.1823 221.026 41.8709 220.212 40.8819C219.395 39.8582 217.961 39.4621 216.698 39.7083Z" fill="#BFBFBF"/>
<path opacity="0.76" d="M233.804 39.0365C235.726 39.0338 237.65 39.0351 239.572 39.0365C239.569 39.2934 239.569 39.5517 239.571 39.8099C237.96 39.8126 236.348 39.8099 234.737 39.8113C234.726 41.2137 234.743 42.6148 234.727 44.0172C236.201 44.0373 237.674 44.0213 239.149 44.0266C239.143 44.2862 239.142 44.5458 239.141 44.8054C237.67 44.8161 236.198 44.78 234.729 44.8242C234.738 46.4755 234.735 48.1282 234.73 49.7795C234.421 49.7795 234.114 49.7795 233.811 49.7795C233.793 46.1985 233.807 42.6175 233.804 39.0365Z" fill="#BFBFBF"/>
<path opacity="0.76" d="M250.113 39.8193C250.085 39.5543 250.084 39.288 250.117 39.0244C252.75 39.0498 255.381 39.0271 258.014 39.0351C258.011 39.2934 258.01 39.5517 258.014 39.8099C256.851 39.8099 255.687 39.814 254.525 39.8086C254.509 43.1327 254.525 46.4568 254.517 49.7809C254.206 49.7795 253.897 49.7795 253.591 49.7702C253.59 46.4554 253.583 43.1407 253.594 39.8273C252.433 39.7939 251.273 39.8113 250.113 39.8193Z" fill="#BFBFBF"/>
<path opacity="0.76" d="M268.332 39.0365C268.66 39.0351 268.992 39.0338 269.326 39.0365C270.235 42.0621 271.114 45.0972 272.024 48.1215C272.862 45.2457 273.682 42.3646 274.504 39.4848C274.562 39.3402 274.555 39.1515 274.683 39.0445C275.001 39.0271 275.322 39.0378 275.646 39.0472C276.513 42.0795 277.358 45.1186 278.266 48.1376C279.125 45.0958 280.055 42.0742 280.941 39.0391C281.272 39.0338 281.605 39.0351 281.942 39.0351C280.873 42.6014 279.788 46.1637 278.703 49.726C278.407 49.8531 278.049 49.7541 277.734 49.7621C276.89 46.7753 276.01 43.7978 275.15 40.8149C274.224 43.7831 273.408 46.7886 272.528 49.7715C272.214 49.7782 271.902 49.7809 271.594 49.7862C270.488 46.2079 269.407 42.6228 268.332 39.0365Z" fill="#BFBFBF"/>
<path opacity="0.76" d="M296.168 39.0365C296.486 39.0351 296.805 39.0351 297.129 39.0325C298.442 42.6108 299.752 46.1905 301.043 49.7769C300.721 49.7796 300.403 49.7796 300.088 49.7782C299.724 48.7933 299.38 47.8004 299.013 46.8154C297.435 46.8195 295.856 46.8101 294.279 46.8208C293.922 47.807 293.571 48.796 293.209 49.7796C292.887 49.7809 292.567 49.7796 292.25 49.7688C293.554 46.1905 294.855 42.6122 296.168 39.0365ZM296.623 40.2382C295.955 42.1786 295.234 44.1029 294.535 46.0339C295.943 46.0326 297.349 46.0366 298.757 46.0313C298.041 44.1016 297.392 42.1465 296.623 40.2382Z" fill="#BFBFBF"/>
<path opacity="0.76" d="M312.198 39.0364C313.589 39.0378 314.98 39.0137 316.372 39.0485C317.488 39.0592 318.53 39.7979 318.909 40.839C319.355 42.0755 319.298 43.5743 318.504 44.6609C318.109 45.2095 317.47 45.4852 316.843 45.6752C317.751 47.0282 318.631 48.3998 319.506 49.7741C319.144 49.7862 318.787 49.7822 318.433 49.7621C317.618 48.4172 316.744 47.1084 315.928 45.7649C314.998 45.7274 314.069 45.7569 313.14 45.7488C313.138 47.0897 313.143 48.4319 313.139 49.7741C312.825 49.7795 312.514 49.7795 312.206 49.7755C312.187 46.1958 312.202 42.6161 312.198 39.0364ZM313.153 39.7858C313.126 41.5148 313.146 43.2424 313.14 44.9713C314.174 44.966 315.208 44.9834 316.242 44.9647C317.048 44.9606 317.787 44.3986 318.043 43.6465C318.352 42.7566 318.34 41.7329 317.923 40.8778C317.624 40.2542 316.97 39.846 316.281 39.8099C315.238 39.7671 314.195 39.8153 313.153 39.7858Z" fill="#BFBFBF"/>
<path opacity="0.76" d="M331.008 39.0365C333.005 39.0338 335.002 39.0365 337 39.0352V39.8113C335.312 39.8126 333.626 39.8086 331.94 39.8126C331.936 41.1562 331.937 42.4998 331.938 43.8433C333.49 43.85 335.04 43.8393 336.592 43.8487C336.589 44.1056 336.589 44.3612 336.592 44.6195C335.04 44.6302 333.49 44.6181 331.94 44.6262C331.929 46.0714 331.953 47.5167 331.926 48.9633C333.617 49.0114 335.308 48.9713 337 48.9847V49.7796C335.004 49.7796 333.009 49.7796 331.014 49.7796C331 46.1985 331.01 42.6175 331.008 39.0365Z" fill="#BFBFBF"/>
</g>
<defs>
<clipPath id="clip0_10_4506">
<rect width="337" height="55" fill="white"/>
</clipPath>
</defs>
</svg>
