<svg width="187" height="30" viewBox="0 0 187 30" fill="none" xmlns="http://www.w3.org/2000/svg">
<g clip-path="url(#clip0_4_9453)">
<path d="M11.2387 0H11.3995C11.3846 0.337226 11.1796 0.622628 11.0659 0.932117C10.8281 1.46496 10.8505 2.05693 10.8468 2.62555C10.8535 3.03066 10.8468 3.44526 10.9702 3.8365C11.422 5.07737 12.3779 6.15839 13.6233 6.68905C14.0557 6.87883 14.5269 6.95547 14.9937 7.01825C14.9974 7.93796 15.0034 8.85766 14.9795 9.77664C14.9585 9.98321 14.966 10.2161 14.8329 10.3898C14.6862 10.5204 14.4663 10.4745 14.2883 10.5234C13.0676 10.8664 11.9837 11.6715 11.3494 12.7504C11.0435 13.2438 10.8879 13.8066 10.7555 14.3642C9.61331 14.3701 8.47111 14.3613 7.32892 14.3686C7.1681 13.7891 6.9998 13.2015 6.67292 12.6861C5.88378 11.3766 4.40349 10.4737 2.83942 10.4277C1.84009 10.3869 0.874425 10.7277 0.00524902 11.1803C0.228901 10.2679 0.581957 9.39124 0.967177 8.53285C2.87308 4.39343 6.75071 1.18102 11.2387 0Z" fill="#F48221"/>
<path d="M19.4659 0H19.6394C21.371 0.469343 23.0091 1.24672 24.4879 2.24088C26.3864 3.52263 28.0432 5.18248 29.157 7.16569C29.8713 8.43504 30.5146 9.76204 30.8519 11.1788C30.2692 10.8985 29.6791 10.6088 29.032 10.5022C27.7178 10.2511 26.3063 10.6182 25.2801 11.4533C24.4318 12.1226 23.8641 13.0839 23.5896 14.1066C23.5417 14.1927 23.5612 14.3847 23.4146 14.3642C22.3128 14.3693 21.2117 14.3635 20.1106 14.3664C20.0082 14.0117 19.9222 13.6511 19.7823 13.3088C19.3387 12.2124 18.4441 11.3037 17.349 10.8102C16.8411 10.5723 16.2846 10.4635 15.7356 10.3569C15.7565 9.26642 15.7722 8.17591 15.8067 7.08686C16.1201 6.96788 16.4649 6.9438 16.7835 6.83504C17.7148 6.56496 18.5324 5.97664 19.1248 5.23139C19.6072 4.60511 20.0067 3.86715 20.0037 3.06423C20.0059 2.41241 20.0665 1.74015 19.8623 1.10949C19.7509 0.732117 19.4808 0.40073 19.4659 0Z" fill="#F48221"/>
<path d="M88.8586 5.59771C90.0569 5.59698 91.2545 5.59771 92.4528 5.59771C93.2524 5.60574 94.0565 5.55975 94.8501 5.68311C96.029 5.84953 97.1674 6.31012 98.0994 7.03785C99.3247 7.978 100.222 9.32763 100.555 10.8181C100.893 12.2021 100.758 13.6816 100.21 14.9962C99.6396 16.3503 98.5879 17.4984 97.2931 18.2313C96.2145 18.8408 94.9631 19.1233 93.7221 19.1306C92.1012 19.1306 90.4796 19.1313 88.8586 19.1306C88.8586 14.6196 88.8586 10.1087 88.8586 5.59771ZM90.9179 7.62471C90.9201 10.7853 90.9134 13.9452 90.9216 17.1057C91.7818 17.1028 92.642 17.1043 93.5022 17.105C94.0789 17.1145 94.6601 17.0576 95.2159 16.9021C96.8503 16.4561 98.1787 15.0838 98.534 13.4634C98.92 11.8868 98.4308 10.1196 97.228 8.98968C96.3551 8.11887 95.1164 7.65099 93.877 7.62836C92.8904 7.6196 91.9045 7.62617 90.9179 7.62471Z" fill="#F48221"/>
<path d="M152.101 6.32713C152.822 6.02932 153.728 6.53078 153.837 7.28625C153.989 8.03881 153.292 8.79866 152.511 8.75048C151.826 8.73662 151.249 8.10888 151.284 7.4461C151.297 6.95778 151.632 6.49866 152.101 6.32713Z" fill="#F48221"/>
<path d="M100.984 9.89415C101.612 9.64305 102.23 9.36787 102.853 9.10364C104.021 11.6299 105.146 14.1759 106.326 16.6971C107.568 14.1504 108.815 11.6051 110.078 9.06787C110.697 9.37736 111.335 9.65327 111.952 9.96787C110.277 13.3299 108.625 16.7022 106.959 20.0686C106.658 20.6642 106.396 21.2883 105.97 21.8124C105.573 22.3153 105.018 22.7087 104.388 22.8774C103.621 23.0774 102.774 22.8978 102.132 22.4518C101.532 22.0671 101.127 21.4803 100.747 20.9007C101.327 20.5525 101.896 20.1883 102.475 19.8394C102.798 20.2299 103.041 20.7474 103.561 20.9226C103.831 21.0255 104.089 20.8314 104.256 20.6409C104.595 20.2379 104.79 19.746 105.039 19.2905C105.077 19.1949 105.177 19.089 105.098 18.9854C103.827 16.1898 102.557 13.3934 101.287 10.5971C101.184 10.3628 101.063 10.1365 100.984 9.89415Z" fill="#F48221"/>
<path d="M114.816 10.5708C115.864 9.61317 117.347 9.13506 118.773 9.32265C119.827 9.43068 120.871 9.9263 121.482 10.7927C121.924 11.411 122.106 12.1745 122.101 12.9205C122.1 14.9905 122.101 17.0606 122.1 19.1307C121.409 19.1314 120.716 19.1314 120.024 19.1307C120.023 17.0336 120.025 14.9373 120.023 12.8402C120.023 12.3971 119.88 11.9132 119.488 11.6511C118.945 11.2774 118.228 11.2409 117.592 11.3489C116.359 11.5533 115.371 12.5606 115.051 13.7168C114.834 14.4307 114.906 15.1818 114.894 15.9154C114.894 16.9869 114.895 18.0592 114.894 19.1307C114.205 19.1219 113.516 19.1504 112.828 19.1154C112.844 15.8927 112.83 12.6694 112.835 9.44601C113.483 9.44528 114.132 9.44528 114.781 9.44674C114.792 9.82119 114.804 10.1956 114.816 10.5708Z" fill="#F48221"/>
<path d="M125.928 9.66353C127.208 9.23944 128.632 9.13944 129.935 9.52922C130.655 9.75185 131.336 10.1336 131.844 10.6854C132.311 11.1935 132.58 11.8694 132.586 12.5526C132.593 14.7402 132.578 16.9285 132.594 19.1161C131.947 19.1504 131.299 19.1212 130.652 19.1314C130.637 18.8737 130.627 18.6168 130.617 18.3591C129.504 19.1497 128.07 19.4343 126.719 19.2263C125.612 19.0927 124.51 18.5803 123.875 17.6591C123.237 16.7613 123.138 15.5183 123.666 14.5489C124.167 13.6205 125.146 13.0044 126.176 12.7635C126.863 12.592 127.577 12.6358 128.281 12.6307C129.033 12.6307 129.785 12.6314 130.538 12.6307C130.537 12.1037 130.056 11.7489 129.61 11.5504C128.729 11.1876 127.72 11.2446 126.817 11.4993C126.238 11.6511 125.741 11.9825 125.229 12.2716C124.861 11.7029 124.492 11.1358 124.124 10.5686C124.704 10.23 125.28 9.8701 125.928 9.66353ZM125.866 15.0927C125.606 15.2898 125.392 15.5818 125.401 15.9154C125.395 16.4358 125.813 16.8701 126.289 17.0475C127.58 17.5095 129.214 17.2387 130.091 16.1475C130.46 15.7409 130.576 15.1862 130.529 14.657C129.481 14.657 128.433 14.6562 127.386 14.657C126.853 14.6599 126.292 14.7606 125.866 15.0927Z" fill="#F48221"/>
<path d="M137.613 9.69125C138.663 9.2022 139.913 9.15841 141.007 9.53505C141.688 9.7679 142.259 10.2496 142.629 10.8504C143.368 10.0153 144.415 9.41826 145.551 9.31096C146.49 9.22337 147.494 9.36936 148.283 9.90074C148.925 10.3299 149.357 11.0146 149.528 11.7482C149.694 12.3949 149.649 13.065 149.655 13.7248C149.656 15.5248 149.653 17.3256 149.657 19.1256C148.963 19.1372 148.271 19.1285 147.578 19.1307C147.577 17.0124 147.58 14.8942 147.577 12.7759C147.571 12.3088 147.455 11.7628 147.015 11.5029C146.483 11.2387 145.842 11.2475 145.28 11.4066C144.303 11.6986 143.6 12.5599 143.298 13.4847C143.021 14.2913 143.1 15.1504 143.089 15.9854C143.089 17.0343 143.089 18.0825 143.089 19.1307C142.401 19.1241 141.713 19.1453 141.026 19.1197C141.038 17.0548 141.027 14.9891 141.032 12.9241C141.034 12.511 140.991 12.065 140.725 11.7256C140.547 11.4876 140.245 11.3847 139.96 11.335C139.269 11.2124 138.529 11.373 137.965 11.7832C137.3 12.2694 136.845 13.0051 136.666 13.7927C136.505 14.4153 136.548 15.0606 136.543 15.6956C136.543 16.8409 136.543 17.9854 136.543 19.1307C135.856 19.1314 135.17 19.1314 134.484 19.1307C134.491 15.9007 134.468 12.6708 134.496 9.44089C135.149 9.45841 135.805 9.42848 136.459 9.45695C136.455 9.78322 136.471 10.1088 136.476 10.4343C136.825 10.1475 137.196 9.87957 137.613 9.69125Z" fill="#F48221"/>
<path d="M158.946 9.42857C160.048 9.15923 161.242 9.27529 162.262 9.76434C163.039 10.1527 163.663 10.7643 164.273 11.3614C163.762 11.8249 163.267 12.3059 162.759 12.7731C162.323 12.3468 161.918 11.8687 161.357 11.5928C160.164 10.9614 158.577 11.3892 157.764 12.4169C156.877 13.4519 156.865 15.0892 157.751 16.1293C158.559 17.1563 160.127 17.587 161.329 16.9906C161.905 16.722 162.317 16.2344 162.763 15.8045C163.265 16.2804 163.775 16.7483 164.274 17.2286C163.683 17.7746 163.11 18.3614 162.389 18.7476C160.893 19.5381 158.995 19.4351 157.543 18.6001C156.349 17.9081 155.441 16.7381 155.146 15.4081C154.855 14.2257 155.046 12.9439 155.642 11.8789C156.331 10.6629 157.551 9.73222 158.946 9.42857Z" fill="#F48221"/>
<path d="M151.549 9.44165C152.234 9.45333 152.918 9.43727 153.603 9.45041C153.596 12.6774 153.602 15.9037 153.6 19.1307C152.913 19.1314 152.226 19.1314 151.54 19.1307C151.546 15.9015 151.528 12.6708 151.549 9.44165Z" fill="#F48221"/>
<path d="M7.34535 15.0919C8.48006 15.0927 9.61553 15.0868 10.751 15.0949C10.8011 15.5211 10.834 15.9555 10.9784 16.3649C11.321 17.3525 12.0151 18.2168 12.8978 18.8014C13.5044 19.2051 14.2322 19.3576 14.9331 19.5299C14.9592 20.6693 14.9809 21.8095 15.0026 22.9489C14.0407 22.881 13.164 23.3927 12.4557 23.9766C11.5701 24.7102 10.8587 25.7606 10.8542 26.9277C10.8505 27.4898 10.8146 28.062 10.935 28.616C11.0337 29.0934 11.3718 29.4971 11.407 29.989C9.16448 29.3606 7.02894 28.3233 5.23898 26.8533C2.67184 24.7766 0.804833 21.8912 0.000732422 18.7328C0.483193 18.9752 0.967149 19.2336 1.50122 19.3525C2.57759 19.6044 3.75569 19.5138 4.7453 19.0146C5.86131 18.4321 6.74021 17.4182 7.13142 16.243C7.26082 15.8715 7.2885 15.4773 7.34535 15.0919Z" fill="#F48221"/>
<path d="M19.1824 17.6979C19.7008 16.9234 20.1017 16.0271 20.0875 15.0862C21.2282 15.0964 22.3696 15.0898 23.5111 15.0898C23.5761 16.611 24.4999 18.0219 25.7872 18.8504C26.8756 19.4811 28.2302 19.6511 29.4517 19.3314C29.9491 19.2074 30.3994 18.9606 30.8534 18.7344C29.7083 23.2468 26.3527 27.1716 21.9956 29.0577C21.1601 29.4095 20.3201 29.7796 19.433 29.984C19.5138 29.4957 19.8219 29.0825 19.9289 28.6015C20.0179 28.1971 20.0097 27.7803 20.0127 27.3687C20.0082 26.9198 20.0127 26.4606 19.8668 26.03C19.2856 24.3365 17.6348 23.0424 15.8059 22.8869C15.7745 21.7818 15.7558 20.6752 15.7349 19.5694C17.0401 19.3256 18.3828 18.7811 19.1824 17.6979Z" fill="#F48221"/>
<path d="M39.6911 6.10449C41.2103 5.32638 43.0265 5.28989 44.6608 5.70741C45.3879 5.88843 46.0529 6.24317 46.6849 6.62857C47.1165 6.88551 47.4681 7.2439 47.8324 7.58113C47.3798 8.09281 46.94 8.61544 46.48 9.12054C46.1681 8.83368 45.8846 8.50741 45.5121 8.29135C45.0356 8.00741 44.5337 7.74609 43.9839 7.63003C42.8986 7.39062 41.704 7.38113 40.689 7.87456C40.2678 8.10303 39.8168 8.42055 39.7098 8.90741C39.6575 9.39573 40.0427 9.80595 40.4623 10.0132C41.4871 10.5118 42.5836 10.8512 43.6817 11.157C44.5284 11.4016 45.3535 11.7242 46.1269 12.1403C46.471 12.3286 46.8151 12.5249 47.1076 12.7862C48.0478 13.5986 48.4525 14.96 48.0822 16.1337C47.8496 16.9381 47.2886 17.6235 46.5997 18.1067C45.4208 18.9461 43.9375 19.3023 42.4924 19.2884C41.2806 19.2439 40.0412 19.0454 38.9671 18.4687C38.2789 18.1023 37.5937 17.695 37.0746 17.1125C36.9617 16.9775 36.7956 16.8738 36.7268 16.7118C37.1883 16.2403 37.6633 15.7789 38.145 15.3271C38.3133 15.4235 38.424 15.5928 38.5654 15.7227C38.9394 16.1315 39.4361 16.403 39.9215 16.6651C40.7054 17.087 41.6112 17.2198 42.4939 17.2607C43.4461 17.2651 44.4409 17.0913 45.2405 16.5585C45.6699 16.2731 46.0768 15.8636 46.1389 15.3373C46.1845 14.784 45.8202 14.2673 45.334 14.0096C44.3901 13.503 43.3661 13.157 42.3316 12.8731C41.3973 12.6162 40.4833 12.2819 39.6223 11.8417C39.0314 11.5556 38.4794 11.1563 38.1263 10.6038C37.6678 9.89281 37.5092 8.98551 37.7777 8.17967C38.0538 7.24682 38.8242 6.53441 39.6911 6.10449Z" fill="black"/>
<path d="M78.8228 5.59857C79.5087 5.59638 80.1946 5.59638 80.8813 5.59857C80.8813 8.21024 80.885 10.8227 80.879 13.4343C82.4341 11.9431 83.963 10.427 85.5099 8.92776C85.9968 9.40076 86.4823 9.87521 86.9677 10.3504C85.7851 11.5044 84.6153 12.6716 83.4245 13.8175C84.3445 14.8482 85.2885 15.8599 86.2295 16.873C86.5167 17.2387 87.0238 17.0672 87.4263 17.1029C87.4307 17.7774 87.4255 18.4519 87.4292 19.1263C86.9064 19.1227 86.3656 19.184 85.8629 19.0117C85.2877 18.8197 84.8419 18.3905 84.4447 17.9584C83.6182 17.0628 82.7774 16.1796 81.9606 15.2759C81.5844 15.6015 81.2463 15.9664 80.8835 16.3059C80.879 17.2475 80.8842 18.1891 80.8813 19.13C80.1953 19.1314 79.5087 19.1314 78.8235 19.1307C78.822 14.6197 78.822 10.1095 78.8228 5.59857Z" fill="black"/>
<path d="M53.4102 9.44401C54.4462 9.16153 55.5719 9.28342 56.5518 9.70094C57.9221 10.2973 58.9708 11.5345 59.3486 12.9477C59.5745 13.7703 59.5917 14.644 59.3897 15.4732C59.0613 16.909 58.0403 18.1827 56.6797 18.8206C55.6691 19.2856 54.4888 19.4265 53.4064 19.1331C52.7721 18.9739 52.1924 18.6601 51.6726 18.2776C51.6629 19.8389 51.6741 21.4002 51.6673 22.9615C50.9822 22.9608 50.2978 22.9586 49.6133 22.963C49.6059 18.4571 49.6088 13.9506 49.6118 9.44474C50.2544 9.44547 50.8977 9.44985 51.5409 9.44255C51.5738 9.74912 51.5716 10.0579 51.5828 10.3659C52.1341 9.96299 52.734 9.60605 53.4102 9.44401ZM53.9734 11.3659C53.1469 11.5352 52.446 12.109 52.0473 12.8243C51.6816 13.4951 51.5768 14.2988 51.7676 15.036C51.9396 15.7696 52.4213 16.4221 53.0661 16.8316C53.7161 17.2367 54.5419 17.3688 55.2877 17.1681C56.1262 16.9615 56.8211 16.3374 57.1749 15.5769C57.4561 14.9542 57.5317 14.2418 57.3701 13.5783C57.2018 12.8236 56.7148 12.1462 56.0536 11.7236C55.4455 11.3433 54.678 11.2024 53.9734 11.3659Z" fill="black"/>
<path d="M62.9757 9.63214C64.1777 9.25257 65.4979 9.15768 66.7254 9.48177C67.602 9.72338 68.445 10.1942 68.9896 10.9205C69.3412 11.3913 69.5326 11.9701 69.5394 12.5511C69.5439 14.7416 69.5349 16.9314 69.5439 19.1219C68.8976 19.1424 68.2506 19.1263 67.6035 19.1307C67.5901 18.884 67.5819 18.6372 67.5751 18.3905C67.341 18.4708 67.1547 18.638 66.9311 18.7394C65.7986 19.3219 64.4522 19.4139 63.2143 19.1453C62.3915 18.9745 61.6053 18.5759 61.0548 17.946C60.2956 17.1088 60.0607 15.8497 60.496 14.811C60.8027 14.0511 61.4512 13.4643 62.1873 13.0993C62.8463 12.7716 63.5898 12.6299 64.3266 12.6307C65.3812 12.6307 66.4359 12.6321 67.4913 12.6299C67.4891 12.0796 66.9722 11.7212 66.5047 11.5248C65.578 11.1737 64.5285 11.2526 63.5995 11.5533C63.0856 11.7095 62.6458 12.019 62.1798 12.2701C61.817 11.7022 61.4445 11.1387 61.0802 10.5716C61.6816 10.2059 62.2942 9.84016 62.9757 9.63214ZM62.862 15.0606C62.5852 15.2591 62.3488 15.5584 62.3548 15.9073C62.3451 16.3898 62.7049 16.8066 63.1357 17.0022C64.4739 17.5467 66.2302 17.2475 67.1106 16.0643C67.4375 15.6694 67.519 15.1511 67.4824 14.6584C66.4307 14.6555 65.3797 14.6562 64.3288 14.657C63.8164 14.6613 63.2801 14.7555 62.862 15.0606Z" fill="black"/>
<path d="M75.1732 9.56146C75.9197 9.27168 76.7321 9.28117 77.5219 9.25781C77.4516 9.92716 77.3746 10.5958 77.2938 11.2644C76.8143 11.3089 76.3222 11.3038 75.8644 11.4637C75.0304 11.7396 74.3871 12.4067 73.9914 13.1564C73.6308 13.8476 73.4902 14.6308 73.4955 15.4016C73.4992 16.641 73.491 17.8804 73.4999 19.1199C72.8125 19.1439 72.1244 19.1257 71.437 19.1301C71.4414 15.9001 71.4272 12.6702 71.4444 9.44102C72.087 9.44905 72.7295 9.44978 73.372 9.44029C73.4094 9.84613 73.4042 10.2534 73.4154 10.66C73.9398 10.2111 74.506 9.7892 75.1732 9.56146Z" fill="black"/>
<path d="M178.566 19.1036C178.574 16.9022 178.544 14.6993 178.58 12.4985C178.696 12.5029 178.814 12.508 178.934 12.5131C178.932 13.3182 178.938 14.1241 178.931 14.9292C179.574 14.8956 180.235 14.7971 180.869 14.962C181.524 15.1336 181.994 15.7241 182.116 16.3598C182.219 16.9226 182.174 17.5212 181.935 18.0467C181.644 18.6839 180.99 19.1796 180.263 19.2036C179.694 19.2153 179.128 19.162 178.566 19.1036ZM178.937 15.2847C178.934 16.454 178.927 17.6234 178.941 18.7927C179.332 18.8102 179.723 18.8518 180.116 18.8606C180.717 18.8847 181.308 18.5124 181.551 17.9788C181.841 17.3467 181.887 16.5861 181.567 15.9569C181.353 15.5314 180.896 15.2423 180.412 15.219C179.919 15.1978 179.427 15.2496 178.937 15.2847Z" fill="black"/>
<path d="M166.203 13.8651C166.986 13.1541 168.14 13.2775 169.121 13.3512C169.12 13.468 169.121 13.5841 169.124 13.7008C168.427 13.6695 167.696 13.5366 167.027 13.7928C166.529 14.0198 166.105 14.4388 165.945 14.9592C165.677 15.7928 165.682 16.7081 165.962 17.5381C166.127 18.0279 166.535 18.4111 166.998 18.6403C167.656 18.9067 168.387 18.787 169.079 18.7738C169.097 18.0271 169.076 17.2804 169.09 16.5337C168.592 16.5162 168.094 16.5308 167.596 16.5257C167.592 16.4074 167.591 16.2892 167.591 16.1716C168.216 16.1585 168.842 16.1695 169.468 16.1658C169.471 17.1446 169.467 18.1242 169.47 19.1038C168.764 19.1519 168.048 19.1943 167.344 19.1023C166.679 19.0176 166.085 18.6023 165.738 18.0512C165.407 17.4432 165.348 16.733 165.353 16.0563C165.39 15.2716 165.529 14.3833 166.203 13.8651Z" fill="black"/>
<path d="M183.292 13.365C183.414 13.3606 183.536 13.3569 183.664 13.3555C183.671 14.1525 183.651 14.9504 183.672 15.7467C183.829 15.8314 184.048 15.7671 184.232 15.7854C185.034 15.7832 185.835 15.7861 186.638 15.7839C186.639 14.9759 186.64 14.1679 186.637 13.3598C186.756 13.3584 186.877 13.3569 187 13.3562V19.0985C186.876 19.0963 186.755 19.0942 186.636 19.0905C186.64 18.1088 186.641 17.127 186.636 16.1453C185.643 16.1496 184.651 16.1365 183.66 16.1518C183.672 17.1299 183.655 18.1088 183.67 19.0869C183.543 19.089 183.418 19.0934 183.295 19.1C183.294 17.1883 183.3 15.2766 183.292 13.365Z" fill="black"/>
<path d="M171.267 15.3709C171.514 15.1482 171.784 14.93 172.119 14.846C172.863 14.6446 173.805 14.9519 174.087 15.7008C174.418 15.1876 174.984 14.7782 175.627 14.784C176.115 14.8022 176.658 14.9402 176.96 15.346C177.223 15.7234 177.28 16.1964 177.301 16.6417C177.317 17.4577 177.294 18.2745 177.313 19.0913C177.181 19.0993 177.05 19.1037 176.922 19.1066C176.912 18.2614 176.939 17.4147 176.909 16.5701C176.867 16.0789 176.741 15.4767 176.229 15.2555C175.363 14.8723 174.262 15.576 174.241 16.4935C174.249 17.3592 174.234 18.2263 174.25 19.092C174.118 19.0993 173.987 19.103 173.859 19.1059C173.855 18.2855 173.87 17.465 173.852 16.6453C173.814 16.1621 173.726 15.5825 173.265 15.3066C172.547 14.903 171.561 15.3285 171.276 16.0585C171.243 17.0709 171.273 18.0862 171.262 19.1001C171.135 19.0964 171.011 19.092 170.888 19.0869C170.898 17.703 170.893 16.319 170.89 14.9351C171.012 14.9322 171.134 14.9285 171.261 14.9249C171.261 15.073 171.261 15.222 171.267 15.3709Z" fill="black"/>
<path opacity="0.76" d="M108.444 21.5831C109.418 20.9955 110.742 21.0773 111.691 21.6744C111.601 21.8006 111.509 21.9247 111.424 22.0532C110.818 21.6525 110.044 21.5065 109.331 21.6641C108.945 21.7598 108.538 21.9641 108.381 22.3444C108.212 22.7422 108.263 23.2831 108.641 23.5525C108.922 23.7364 109.251 23.8364 109.578 23.9079C110.211 24.0211 110.863 24.1532 111.415 24.4897C112.132 25.0495 112.075 26.2999 111.317 26.8057C110.878 27.105 110.337 27.2459 109.804 27.2452C108.993 27.2539 108.142 27.0225 107.548 26.4605C107.636 26.324 107.735 26.1941 107.844 26.0722C108.28 26.5517 108.941 26.778 109.584 26.8109C110.066 26.8415 110.578 26.7612 110.975 26.4758C111.552 26.0525 111.528 24.9853 110.833 24.6897C109.998 24.3182 109 24.4014 108.237 23.8627C107.506 23.2999 107.654 22.0335 108.444 21.5831Z" fill="#BFBFBF"/>
<path opacity="0.76" d="M119.937 21.2809C120.622 21.1145 121.38 21.1831 121.997 21.5298C122.671 21.9137 123.077 22.6327 123.229 23.3634C123.363 24.0641 123.345 24.8028 123.119 25.4838C122.896 26.1524 122.419 26.7721 121.738 27.0415C120.748 27.4349 119.47 27.2721 118.756 26.451C118.146 25.7692 117.954 24.8247 118.008 23.9429C118.043 23.2626 118.256 22.5751 118.701 22.0422C119.009 21.6612 119.455 21.397 119.937 21.2809ZM120.245 21.659C119.754 21.7371 119.299 22.0137 119.022 22.4181C118.626 22.9641 118.507 23.6524 118.517 24.3086C118.535 24.9619 118.693 25.6466 119.137 26.1546C119.883 27.048 121.486 27.0371 122.213 26.1269C122.647 25.597 122.787 24.8999 122.797 24.2356C122.792 23.5539 122.647 22.8386 122.195 22.2991C121.742 21.7407 120.946 21.5247 120.245 21.659Z" fill="#BFBFBF"/>
<path opacity="0.76" d="M129.737 21.2926C130.803 21.2911 131.871 21.2919 132.938 21.2926C132.936 21.4327 132.936 21.5736 132.937 21.7145C132.043 21.7159 131.148 21.7145 130.254 21.7152C130.248 22.4802 130.258 23.2444 130.249 24.0094C131.067 24.0203 131.884 24.0116 132.703 24.0145C132.7 24.1561 132.699 24.2977 132.698 24.4393C131.882 24.4451 131.065 24.4254 130.25 24.4495C130.255 25.3503 130.254 26.2517 130.251 27.1524C130.079 27.1524 129.909 27.1524 129.741 27.1524C129.731 25.1992 129.738 23.2459 129.737 21.2926Z" fill="#BFBFBF"/>
<path opacity="0.76" d="M138.787 21.7197C138.771 21.5752 138.77 21.4299 138.789 21.2861C140.25 21.3 141.71 21.2876 143.171 21.292C143.169 21.4328 143.169 21.5737 143.171 21.7146C142.525 21.7146 141.88 21.7168 141.235 21.7139C141.226 23.527 141.235 25.3401 141.231 27.1533C141.058 27.1526 140.887 27.1526 140.717 27.1474C140.716 25.3394 140.712 23.5314 140.718 21.7241C140.074 21.7058 139.43 21.7153 138.787 21.7197Z" fill="#BFBFBF"/>
<path opacity="0.76" d="M148.896 21.2926C149.079 21.2919 149.263 21.2911 149.448 21.2926C149.952 22.943 150.44 24.5984 150.945 26.2481C151.41 24.6795 151.865 23.1079 152.321 21.5371C152.353 21.4583 152.35 21.3554 152.421 21.297C152.597 21.2875 152.775 21.2933 152.955 21.2984C153.436 22.9524 153.905 24.6101 154.409 26.2568C154.885 24.5977 155.401 22.9495 155.893 21.2941C156.077 21.2911 156.262 21.2919 156.449 21.2919C155.856 23.2371 155.253 25.1802 154.651 27.1232C154.487 27.1926 154.288 27.1386 154.113 27.143C153.645 25.5138 153.157 23.8897 152.68 22.2627C152.166 23.8816 151.713 25.5211 151.225 27.1481C151.05 27.1517 150.878 27.1532 150.706 27.1561C150.093 25.2043 149.493 23.2488 148.896 21.2926Z" fill="#BFBFBF"/>
<path opacity="0.76" d="M164.342 21.2927C164.519 21.292 164.696 21.292 164.876 21.2905C165.604 23.2424 166.331 25.1949 167.048 27.1511C166.869 27.1526 166.693 27.1526 166.518 27.1518C166.316 26.6146 166.125 26.073 165.921 25.5358C165.045 25.538 164.17 25.5329 163.294 25.5387C163.096 26.0767 162.902 26.6161 162.701 27.1526C162.522 27.1533 162.344 27.1526 162.169 27.1467C162.892 25.1949 163.614 23.2431 164.342 21.2927ZM164.595 21.9482C164.224 23.0066 163.824 24.0562 163.437 25.1095C164.217 25.1088 164.998 25.111 165.779 25.108C165.382 24.0555 165.022 22.9891 164.595 21.9482Z" fill="#BFBFBF"/>
<path opacity="0.76" d="M173.238 21.2926C174.009 21.2933 174.781 21.2802 175.553 21.2991C176.173 21.305 176.751 21.7079 176.961 22.2758C177.209 22.9502 177.177 23.7678 176.737 24.3605C176.518 24.6597 176.163 24.8101 175.815 24.9137C176.319 25.6517 176.807 26.3999 177.292 27.1495C177.092 27.1561 176.894 27.1539 176.697 27.1429C176.245 26.4094 175.76 25.6955 175.307 24.9626C174.791 24.9422 174.276 24.9583 173.76 24.9539C173.759 25.6853 173.762 26.4174 173.76 27.1495C173.585 27.1524 173.413 27.1524 173.242 27.1502C173.232 25.1977 173.24 23.2451 173.238 21.2926ZM173.767 21.7013C173.752 22.6444 173.763 23.5867 173.76 24.5298C174.334 24.5269 174.908 24.5364 175.482 24.5262C175.929 24.524 176.339 24.2174 176.481 23.8072C176.652 23.3218 176.645 22.7634 176.414 22.297C176.248 21.9568 175.885 21.7342 175.503 21.7145C174.924 21.6911 174.345 21.7174 173.767 21.7013Z" fill="#BFBFBF"/>
<path opacity="0.76" d="M183.675 21.2927C184.783 21.2913 185.891 21.2927 187 21.292V21.7153C186.064 21.7161 185.128 21.7139 184.192 21.7161C184.19 22.4489 184.191 23.1818 184.191 23.9146C185.052 23.9183 185.912 23.9124 186.773 23.9175C186.772 24.0577 186.772 24.1971 186.773 24.338C185.912 24.3438 185.052 24.3372 184.192 24.3416C184.186 25.1299 184.2 25.9183 184.185 26.7073C185.123 26.7336 186.061 26.7117 187 26.719V27.1526C185.892 27.1526 184.785 27.1526 183.678 27.1526C183.671 25.1993 183.676 23.246 183.675 21.2927Z" fill="#BFBFBF"/>
</g>
<defs>
<clipPath id="clip0_4_9453">
<rect width="187" height="30" fill="white"/>
</clipPath>
</defs>
</svg>
