<svg width="56" height="55" viewBox="0 0 56 55" fill="none" xmlns="http://www.w3.org/2000/svg">
<path d="M20.2537 0H20.5435C20.5165 0.618248 20.1472 1.14148 19.9423 1.70888C19.5136 2.68577 19.5541 3.77105 19.5473 4.8135C19.5594 5.5562 19.5473 6.3163 19.7697 7.03358C20.5839 9.30852 22.3067 11.2904 24.5511 12.2633C25.3302 12.6112 26.1795 12.7517 27.0206 12.8668C27.0274 14.5529 27.0381 16.2391 26.995 17.9238C26.9573 18.3026 26.9707 18.7294 26.7308 19.0479C26.4666 19.2875 26.0703 19.2032 25.7495 19.2928C23.5495 19.9218 21.5963 21.3978 20.4532 23.3757C19.9018 24.2803 19.6215 25.312 19.3829 26.3344C17.3245 26.3451 15.2661 26.3291 13.2077 26.3425C12.9178 25.2799 12.6145 24.2027 12.0255 23.2579C10.6033 20.8572 7.93564 19.2018 5.11697 19.1175C3.31604 19.0426 1.57578 19.6675 0.00939941 20.4972C0.412451 18.8245 1.04871 17.2173 1.74293 15.6436C5.17763 8.05462 12.1657 2.16521 20.2537 0Z" fill="#F48221"/>
<path d="M35.0803 0H35.3931C38.5137 0.860462 41.4658 2.28565 44.1308 4.10827C47.552 6.45815 50.5378 9.50122 52.545 13.1371C53.8324 15.4642 54.9916 17.8971 55.5996 20.4945C54.5495 19.9807 53.4859 19.4494 52.3199 19.254C49.9515 18.7937 47.4078 19.4668 45.5583 20.9977C44.0297 22.2248 43.0066 23.9872 42.5119 25.862C42.4256 26.02 42.4606 26.3719 42.1964 26.3344C40.2108 26.3438 38.2266 26.3331 36.2423 26.3384C36.0576 25.6881 35.9026 25.027 35.6505 24.3994C34.8512 22.3894 33.239 20.7234 31.2655 19.8187C30.3502 19.3825 29.3473 19.1831 28.3578 18.9877C28.3956 16.9884 28.4239 14.9892 28.4859 12.9926C29.0507 12.7745 29.6722 12.7303 30.2464 12.5309C31.9247 12.0358 33.398 10.9572 34.4656 9.59088C35.3351 8.4427 36.0549 7.08978 36.0495 5.61776C36.0536 4.42275 36.1628 3.19027 35.7948 2.03406C35.5939 1.34221 35.1073 0.734672 35.0803 0Z" fill="#F48221"/>
<path d="M13.2374 27.6685C15.2823 27.6699 17.3285 27.6592 19.3748 27.6739C19.4651 28.4554 19.5244 29.2516 19.7846 30.0024C20.402 31.8129 21.6529 33.3974 23.2436 34.4693C24.3368 35.2093 25.6484 35.489 26.9115 35.8048C26.9587 37.8937 26.9977 39.984 27.0368 42.0729C25.3033 41.9485 23.7235 42.8865 22.4469 43.9571C20.8509 45.302 19.5689 47.2277 19.5608 49.3674C19.5541 50.3978 19.4894 51.447 19.7064 52.4627C19.8843 53.3379 20.4936 54.0779 20.557 54.9798C16.5157 53.8277 12.6672 51.9261 9.44139 49.2309C4.81505 45.4238 1.45044 40.1339 0.00134277 34.3435C0.870803 34.7878 1.74296 35.2615 2.70543 35.4796C4.6452 35.9413 6.7683 35.7753 8.55171 34.86C10.5629 33.7921 12.1468 31.9334 12.8518 29.7789C13.085 29.0977 13.1349 28.3751 13.2374 27.6685Z" fill="#F48221"/>
<path d="M34.5694 32.446C35.5036 31.0262 36.2261 29.3829 36.2005 27.658C38.2562 27.6767 40.3133 27.6647 42.3703 27.6647C42.4876 30.4535 44.1524 33.0402 46.4723 34.5591C48.4336 35.7153 50.8748 36.0271 53.0761 35.4409C53.9725 35.2134 54.784 34.7611 55.6023 34.3463C53.5385 42.619 47.4914 49.8145 39.6393 53.2724C38.1335 53.9175 36.6197 54.5959 35.021 54.9706C35.1666 54.0754 35.722 53.3179 35.9147 52.4361C36.0752 51.6947 36.0603 50.9306 36.0657 50.1758C36.0576 49.3529 36.0657 48.5111 35.8029 47.7216C34.7555 44.617 31.7804 42.2443 28.4846 41.9593C28.4279 39.9333 28.3943 37.9046 28.3565 35.8772C30.7088 35.4302 33.1284 34.4319 34.5694 32.446Z" fill="#F48221"/>
</svg>
